<?xml version="1.0" standalone="no"?>
<!DOCTYPE svg PUBLIC "-//W3C//DTD SVG 1.1//EN" "http://www.w3.org/Graphics/SVG/1.1/DTD/svg11.dtd" >
<svg>
<metadata>
Created by FontForge 20090914 at Fri Sep  2 19:48:24 2022
 By www-data
&#194;&#169; 2021 by Spacetype. All rights reserved.
</metadata>
<defs>
<font id="Garet-Heavy" horiz-adv-x="0" >
  <font-face 
    font-family="Garet Heavy"
    font-weight="850"
    font-stretch="normal"
    units-per-em="1000"
    panose-1="0 0 0 0 0 0 0 0 0 0"
    ascent="800"
    descent="-200"
    x-height="533"
    cap-height="700"
    bbox="-184 -358 1553 1002"
    underline-thickness="50"
    underline-position="-75"
    unicode-range="U+000D-U+FB02"
  />
<missing-glyph horiz-adv-x="823" 
d="M214 32c-57.333 30.667 -102 73.667 -134 129s-48 118 -48 188s16 132.667 48 188s76.667 98.333 134 129s123 46 197 46c73.333 0 138.833 -15.333 196.5 -46s102.667 -73.5 135 -128.5s48.5 -117.833 48.5 -188.5c0 -70 -16.167 -132.5 -48.5 -187.5
s-77.333 -98 -135 -129s-123.167 -46.5 -196.5 -46.5c-74 0 -139.667 15.333 -197 46zM384 435c0 10.667 3.33301 19.166 10 25.499s15.667 9.5 27 9.5c10.667 0 19 -2.33301 25 -7s9 -11.334 9 -20.001c0 -7.33301 -3.16699 -14 -9.5 -20s-17.833 -12 -34.5 -18
c-31.333 -12.667 -52.5 -26.667 -63.5 -42s-16.5 -35.666 -16.5 -60.999v-21h168v10c0 18.667 14 34.334 42 47.001c50.667 24 76 60.333 76 109c0 42.667 -17 76.834 -51 102.501s-79.667 38.5 -137 38.5c-58.667 0 -105.5 -13.333 -140.5 -40
s-53.833 -64.334 -56.5 -113.001h152zM348 101.999c16.667 -16 39 -24 67 -24c27.333 0 49.5 8 66.5 24s25.5 36.667 25.5 62s-8.5 45.833 -25.5 61.5s-39.167 23.5 -66.5 23.5s-49.5 -7.83301 -66.5 -23.5s-25.5 -36.167 -25.5 -61.5s8.33301 -46 25 -62z" />
    <glyph glyph-name="fi" unicode="fi" horiz-adv-x="792" 
d="M507 357h-164v-357h-228v357h-99v176h99v34c0 67.333 17.667 118.333 53 153s87.333 52 156 52h117v-161h-51c-38 0 -57 -19 -57 -57v-21h402v-533h-228v357zM527 809.5c24 23 55.333 34.5 94 34.5s70.167 -11.5 94.5 -34.5s36.5 -53.167 36.5 -90.5
s-12.167 -67.666 -36.5 -90.999s-55.833 -35 -94.5 -35s-70 11.667 -94 35s-36 53.666 -36 90.999s12 67.5 36 90.5z" />
    <glyph glyph-name="fl" unicode="fl" horiz-adv-x="817" 
d="M168 720c35.333 34.667 87.333 52 156 52h436v-772h-228v611h-142c-38 0 -57 -19 -57 -57v-28h132v-169h-122v-357h-228v357h-99v176h99v34c0 67.333 17.667 118.333 53 153z" />
    <glyph glyph-name="f_f.liga" unicode="ff" horiz-adv-x="907" 
d="M593 720c35.333 34.667 87 52 155 52h149v-161h-83c-37.333 0 -56 -19 -56 -57v-21h134v-176h-124v-357h-228v357h-197v-357h-228v357h-99v176h99v34c0 67.333 17.667 118.333 53 153s87.333 52 156 52h135v-161h-69c-38 0 -57 -19 -57 -57v-28h207v41
c0 67.333 17.667 118.333 53 153z" />
    <glyph glyph-name="f_f_i.liga" unicode="ffi" horiz-adv-x="1217" 
d="M932 357h-164v-357h-228v357h-197v-357h-228v357h-99v176h99v34c0 67.333 17.667 118.333 53 153s87.333 52 156 52h135v-161h-69c-38 0 -57 -19 -57 -57v-28h207v41c0 67.333 17.667 118.333 53 153s87 52 155 52h117v-161h-51c-37.333 0 -56 -19 -56 -57v-21h402v-533
h-228v357zM951 809.5c24 23 55.667 34.5 95 34.5c38.667 0 70.167 -11.667 94.5 -35s36.5 -53.333 36.5 -90c0 -37.333 -12.167 -67.666 -36.5 -90.999s-55.833 -35 -94.5 -35c-39.333 0 -71 11.667 -95 35s-36 53.666 -36 90.999s12 67.5 36 90.5z" />
    <glyph glyph-name="f_f_iogonek.liga" unicode="ff&#x12f;" horiz-adv-x="1217" 
d="M932 357h-163.999v-357h-228v357h-197v-357h-228v357h-99v176h99v34c0 67.333 17.667 118.333 53 153s87.333 52 156 52h135v-161h-69c-38 0 -57 -19 -57 -57v-28h207v41c0 67.333 17.667 118.333 53 153s87 52 155 52h117v-161h-51c-37.333 0 -56 -19 -56 -57v-21h402
v-533c-16.667 -10 -29.834 -21.333 -39.501 -34s-14.5 -25 -14.5 -37c0 -19.333 11.333 -29 34 -29h20v-109h-80c-40 0 -71.167 8.5 -93.5 25.5s-33.5 40.5 -33.5 70.5c0 40 20.667 77.667 62 113h-83v357zM951.001 809.5c24 23 55.667 34.5 95 34.5
c38.667 0 70.167 -11.667 94.5 -35s36.5 -53.333 36.5 -90c0 -37.333 -12.167 -67.666 -36.5 -90.999s-55.833 -35 -94.5 -35c-39.333 0 -71 11.667 -95 35s-36 53.666 -36 90.999s12 67.5 36 90.5z" />
    <glyph glyph-name="f_f_j.liga" unicode="ffj" horiz-adv-x="1220" 
d="M815 -58h51c44 0 66 23 66 69v346h-164v-357h-228v357h-197v-357h-228v357h-99v176h99v34c0 67.333 17.667 118.333 53 153s87.333 52 156 52h135v-161h-69c-38 0 -57 -19 -57 -57v-28h207v41c0 67.333 17.667 118.333 53 153s87 52 155 52h117v-161h-51
c-37.333 0 -56 -19 -56 -57v-21h402v-527c0 -172 -85 -258 -255 -258h-90v194zM951.5 809.5c24.333 23 55.833 34.5 94.5 34.5s70.167 -11.5 94.5 -34.5s36.5 -53.167 36.5 -90.5s-12.167 -67.666 -36.5 -90.999s-55.833 -35 -94.5 -35s-70.167 11.667 -94.5 35
s-36.5 53.666 -36.5 90.999s12.167 67.5 36.5 90.5z" />
    <glyph glyph-name="f_f_l.liga" unicode="ffl" horiz-adv-x="1242" 
d="M593 720c35.333 34.667 86.999 51.999 154.999 51.999h437v-772h-228v611h-143c-37.333 0 -56 -19 -56 -57v-28h131v-169h-121v-357h-228v357h-197v-357h-228v357h-99v176h99v34c0 67.333 17.667 118.333 53 153s87.333 52 156 52h135v-162h-69
c-19.333 0 -33.666 -4.66699 -42.999 -14s-14 -23.666 -14 -42.999v-27h207v41c0 67.333 17.667 118.333 53 153z" />
    <glyph glyph-name="uni00660066013C.liga" unicode="ff&#x13c;" horiz-adv-x="1242" 
d="M593 720c35.333 34.667 86.999 51.999 154.999 51.999h437v-772h-228v611h-143c-37.333 0 -56 -19 -56 -57v-28h131v-169h-121v-357h-228v357h-197v-357h-228v357h-99v176h99v34c0 67.333 17.667 118.333 53 153s87.333 52 156 52h135v-162h-69
c-19.333 0 -33.666 -4.66699 -42.999 -14s-14 -23.666 -14 -42.999v-27h207v41c0 67.333 17.667 118.333 53 153zM1014.5 -83.501c15 14.333 34.499 21.501 58.499 21.501c27.333 0 48.833 -10.167 64.5 -30.5s23.5 -45.833 23.5 -76.5c0 -26 -5.33301 -50.833 -16 -74.5
s-26.167 -43 -46.5 -58s-44.5 -23.167 -72.5 -24.5v66c15.333 3.33301 27 8.66602 35 15.999s13 18 15 32h-6c-23.333 0 -42.166 6.83301 -56.499 20.5s-21.5 31.5 -21.5 53.5s7.5 40.167 22.5 54.5z" />
    <glyph glyph-name="f_f_t.liga" unicode="fft" horiz-adv-x="1352" 
d="M1021.5 53.5c-39.667 35.667 -59.499 88.833 -59.499 159.5v144h-194v-357h-228v357h-197v-357h-228v357h-99v176h99v34c0 67.333 17.667 118.333 53 153s87.333 52 156 52h142v-161h-76c-38 0 -57 -19 -57 -57v-28h207v41c0 67.333 17.667 118.333 53 153s87 52 155 52
h148v-161h-82c-37.333 0 -56 -19 -56 -57v-28h156c31.333 0 52.833 4.83301 64.5 14.5s19.5 29.167 23.5 58.5l11 74h177v-140h122v-175h-122v-99c0 -25.333 6.16699 -43.833 18.5 -55.5s31.833 -17.5 58.5 -17.5h51v-186h-119c-78.667 -0 -137.834 17.833 -177.501 53.5z
" />
    <glyph glyph-name="f_f_tcaron.liga" unicode="ff&#x165;" horiz-adv-x="1352" 
d="M1021.5 53.5c-39.667 35.667 -59.499 88.833 -59.499 159.5v144h-194v-357h-228v357h-197v-357h-228v357h-99v176h99v34c0 67.333 17.667 118.333 53 153s87.333 52 156 52h142v-161h-76c-38 0 -57 -19 -57 -57v-28h207v41c0 67.333 17.667 118.333 53 153s87 52 155 52
h148v-161h-82c-37.333 0 -56 -19 -56 -57v-28h156c31.333 0 52.833 4.83301 64.5 14.5s19.5 29.167 23.5 58.5l11 74h177v-140h122v-175h-122v-99c0 -25.333 6.16699 -43.833 18.5 -55.5s31.833 -17.5 58.5 -17.5h51v-186h-119c-78.667 -0 -137.834 17.833 -177.501 53.5z
M1243 762.999h179l-37 -197h-149z" />
    <glyph glyph-name="uni006600660163.liga" unicode="ff&#x163;" horiz-adv-x="1352" 
d="M168 720c35.333 34.667 87.333 52.001 156 52.001h142v-161h-76c-38 0 -57 -19 -57 -57v-28h207v41c0 67.333 17.667 118.333 53 153s87 52 155 52h148v-161h-82c-37.333 0 -56 -19 -56 -57v-28h156c31.333 0 52.833 4.83301 64.5 14.5s19.5 29.167 23.5 58.5l11 74h177
v-140h122v-175h-122v-99c0 -25.333 6.16699 -43.833 18.5 -55.5s31.833 -17.5 58.5 -17.5h51v-186h-112l-12 -38c32 -4.66699 56.667 -17.334 74 -38.001s26 -46 26 -76c0 -34.667 -11.167 -62.667 -33.5 -84s-53.833 -32 -94.5 -32h-111v107h88c18 0 27 6.66699 27 20
c0 14 -9 21 -27 21h-46l-26 35l30 97c-92.667 26 -139 93 -139 201v144h-194v-357h-228v357h-197v-357h-228v357h-99v176h99v34c0 67.333 17.667 118.333 53 153z" />
    <glyph glyph-name="uni00660066021B.liga" unicode="ff&#x21b;" horiz-adv-x="1352" 
d="M1021.5 53.5c-39.667 35.667 -59.499 88.833 -59.499 159.5v144h-194v-357h-228v357h-197v-357h-228v357h-99v176h99v34c0 67.333 17.667 118.333 53 153s87.333 52 156 52h142v-161h-76c-38 0 -57 -19 -57 -57v-28h207v41c0 67.333 17.667 118.333 53 153s87 52 155 52
h148v-161h-82c-37.333 0 -56 -19 -56 -57v-28h156c31.333 0 52.833 4.83301 64.5 14.5s19.5 29.167 23.5 58.5l11 74h177v-140h122v-175h-122v-99c0 -25.333 6.16699 -43.833 18.5 -55.5s31.833 -17.5 58.5 -17.5h51v-186h-119c-78.667 -0 -137.834 17.833 -177.501 53.5z
M1098 -83.501c14.667 14.333 34.002 21.501 58.002 21.501c28 0 49.833 -10.167 65.5 -30.5s23.5 -45.833 23.5 -76.5c0 -26 -5.33301 -50.833 -16 -74.5s-26.334 -43 -47.001 -58s-45 -23.167 -73 -24.5v66c15.333 3.33301 27.166 8.66602 35.499 15.999s13.5 18 15.5 32
h-7c-22.667 0 -41.167 6.83301 -55.5 20.5s-21.5 31.5 -21.5 53.5s7.33301 40.167 22 54.5z" />
    <glyph glyph-name="f_iogonek.liga" unicode="f&#x12f;" horiz-adv-x="792" 
d="M507 357h-163.999v-357h-228v357h-99v176h99v34c0 67.333 17.667 118.333 53 153s87.333 52 156 52h117v-161h-51c-38 0 -57 -19 -57 -57v-21h402v-533c-16.667 -10 -29.834 -21.333 -39.501 -34s-14.5 -25 -14.5 -37c0 -19.333 11.333 -29 34 -29h20v-109h-79
c-40 0 -71.333 8.5 -94 25.5s-34 40.5 -34 70.5c0 40 20.667 77.667 62 113h-83v357zM527.001 809.5c24 23 55.333 34.5 94 34.5s70.167 -11.5 94.5 -34.5s36.5 -53.167 36.5 -90.5s-12.167 -67.666 -36.5 -90.999s-55.833 -35 -94.5 -35s-70 11.667 -94 35
s-36 53.666 -36 90.999s12 67.5 36 90.5z" />
    <glyph glyph-name="f_j.liga" unicode="fj" horiz-adv-x="795" 
d="M390 -58h51c44 0 66 23 66 69v346h-164v-357h-228v357h-99v176h99v34c0 67.333 17.667 118.333 53 153s87.333 52 156 52h117v-161h-51c-38 0 -57 -19 -57 -57v-21h402v-527c0 -172 -85 -258 -255 -258h-90v194zM527 809.5c24 23 55.333 34.5 94 34.5
s70.167 -11.5 94.5 -34.5s36.5 -53.167 36.5 -90.5s-12.167 -67.666 -36.5 -90.999s-55.833 -35 -94.5 -35s-70 11.667 -94 35s-36 53.666 -36 90.999s12 67.5 36 90.5z" />
    <glyph glyph-name="uni0066013C.liga" unicode="f&#x13c;" horiz-adv-x="817" 
d="M168 720c35.333 34.667 87.333 52 156 52h436v-772h-228v611h-142c-38 0 -57 -19 -57 -57v-28h132v-169h-122v-357h-228v357h-99v176h99v34c0 67.333 17.667 118.333 53 153zM589.5 -83.5c15 14.333 34.502 21.501 58.502 21.501c28 0 49.833 -10.167 65.5 -30.5
s23.5 -45.833 23.5 -76.5c0 -26 -5.33301 -50.833 -16 -74.5s-26.334 -43 -47.001 -58s-45 -23.167 -73 -24.5v66c15.333 3.33301 27.166 8.66602 35.499 15.999s13.166 18 14.499 32h-6c-23.333 0 -42.166 6.83301 -56.499 20.5s-21.5 31.5 -21.5 53.5
s7.5 40.167 22.5 54.5z" />
    <glyph glyph-name="f_t.liga" unicode="ft" horiz-adv-x="925" 
d="M594.5 53.5c-39.667 35.667 -59.499 88.833 -59.499 159.5v144h-192v-357h-228v357h-99v176h99v34c0 67.333 17.667 118.333 53 153s87.333 52 156 52h147v-161h-81c-38 0 -57 -19 -57 -57v-28h154c31.333 0 52.833 4.83301 64.5 14.5s19.5 29.167 23.5 58.5l11 74h177
v-140h122v-175h-122v-99c0 -25.333 6.16699 -43.833 18.5 -55.5s31.833 -17.5 58.5 -17.5h51v-186h-119c-78.667 -0 -137.834 17.833 -177.501 53.5z" />
    <glyph glyph-name="f_tcaron.liga" unicode="f&#x165;" horiz-adv-x="934" 
d="M594.5 53.5c-39.667 35.667 -59.499 88.833 -59.499 159.5v144h-192v-357h-228v357h-99v176h99v34c0 67.333 17.667 118.333 53 153s87.333 52 156 52h147v-161h-81c-38 0 -57 -19 -57 -57v-28h154c31.333 0 52.833 4.83301 64.5 14.5s19.5 29.167 23.5 58.5l11 74h177
v-140h122v-175h-122v-99c0 -25.333 6.16699 -43.833 18.5 -55.5s31.833 -17.5 58.5 -17.5h51v-186h-119c-78.667 -0 -137.834 17.833 -177.501 53.5zM816.001 762.999h179l-37 -197h-149z" />
    <glyph glyph-name="uni00660163.liga" unicode="f&#x163;" horiz-adv-x="925" 
d="M168 720c35.333 34.667 87.333 52.001 156 52.001h147v-161h-81c-38 0 -57 -19 -57 -57v-28h154c31.333 0 52.833 4.83301 64.5 14.5s19.5 29.167 23.5 58.5l11 74h177v-140h122v-175h-122v-99c0 -25.333 6.16699 -43.833 18.5 -55.5s31.833 -17.5 58.5 -17.5h51v-186
h-112l-12 -38c32 -4.66699 56.667 -17.334 74 -38.001s26 -46 26 -76c0 -34.667 -11.167 -62.667 -33.5 -84s-53.833 -32 -94.5 -32h-111v107h88c18 0 27 6.66699 27 20c0 14 -9 21 -27 21h-46l-26 35l30 97c-92.667 26 -139 93 -139 201v144h-192v-357h-228v357h-99v176h99
v34c0 67.333 17.667 118.333 53 153z" />
    <glyph glyph-name="uni0066021B.liga" unicode="f&#x21b;" horiz-adv-x="925" 
d="M594.5 53.5c-39.667 35.667 -59.499 88.833 -59.499 159.5v144h-192v-357h-228v357h-99v176h99v34c0 67.333 17.667 118.333 53 153s87.333 52 156 52h147v-161h-81c-38 0 -57 -19 -57 -57v-28h154c31.333 0 52.833 4.83301 64.5 14.5s19.5 29.167 23.5 58.5l11 74h177
v-140h122v-175h-122v-99c0 -25.333 6.16699 -43.833 18.5 -55.5s31.833 -17.5 58.5 -17.5h51v-186h-119c-78.667 -0 -137.834 17.833 -177.501 53.5zM671.001 -83.501c14.667 14.333 34.002 21.501 58.002 21.501c28 0 49.833 -10.167 65.5 -30.5s23.5 -45.833 23.5 -76.5
c0 -26 -5.33301 -50.833 -16 -74.5s-26.334 -43 -47.001 -58s-45 -23.167 -73 -24.5v66c15.333 3.33301 27.166 8.66602 35.499 15.999s13.5 18 15.5 32h-7c-22.667 0 -41.167 6.83301 -55.5 20.5s-21.5 31.5 -21.5 53.5s7.33301 40.167 22 54.5z" />
    <glyph glyph-name=".notdef" horiz-adv-x="823" 
d="M214 32c-57.333 30.667 -102 73.667 -134 129s-48 118 -48 188s16 132.667 48 188s76.667 98.333 134 129s123 46 197 46c73.333 0 138.833 -15.333 196.5 -46s102.667 -73.5 135 -128.5s48.5 -117.833 48.5 -188.5c0 -70 -16.167 -132.5 -48.5 -187.5
s-77.333 -98 -135 -129s-123.167 -46.5 -196.5 -46.5c-74 0 -139.667 15.333 -197 46zM384 435c0 10.667 3.33301 19.166 10 25.499s15.667 9.5 27 9.5c10.667 0 19 -2.33301 25 -7s9 -11.334 9 -20.001c0 -7.33301 -3.16699 -14 -9.5 -20s-17.833 -12 -34.5 -18
c-31.333 -12.667 -52.5 -26.667 -63.5 -42s-16.5 -35.666 -16.5 -60.999v-21h168v10c0 18.667 14 34.334 42 47.001c50.667 24 76 60.333 76 109c0 42.667 -17 76.834 -51 102.501s-79.667 38.5 -137 38.5c-58.667 0 -105.5 -13.333 -140.5 -40
s-53.833 -64.334 -56.5 -113.001h152zM348 101.999c16.667 -16 39 -24 67 -24c27.333 0 49.5 8 66.5 24s25.5 36.667 25.5 62s-8.5 45.833 -25.5 61.5s-39.167 23.5 -66.5 23.5s-49.5 -7.83301 -66.5 -23.5s-25.5 -36.167 -25.5 -61.5s8.33301 -46 25 -62z" />
    <glyph glyph-name="nonmarkingreturn" unicode="&#xd;" horiz-adv-x="223" 
 />
    <glyph glyph-name="space" unicode=" " horiz-adv-x="223" 
 />
    <glyph glyph-name="exclam" unicode="!" horiz-adv-x="318" 
d="M42 700h234l-12 -439h-210zM73.5 183c22.333 21.333 50.833 32 85.5 32c35.333 0 64.166 -10.667 86.499 -32s33.5 -48.666 33.5 -81.999s-11.167 -60.666 -33.5 -81.999s-51.166 -32 -86.499 -32c-34.667 0 -63.167 10.667 -85.5 32s-33.5 48.666 -33.5 81.999
s11.167 60.666 33.5 81.999z" />
    <glyph glyph-name="quotedbl" unicode="&#x22;" horiz-adv-x="510" 
d="M32 700h195l-8 -287h-178zM282 700h195l-8 -287h-178z" />
    <glyph glyph-name="numbersign" unicode="#" horiz-adv-x="803" 
d="M406 142h-97l-30 -142h-212l30 142h-69v171h105l18 86h-102v170h138l28 131h212l-28 -131h98l27 131h212l-28 -131h67v-170h-103l-18 -86h100v-171h-136l-30 -142h-212zM447 295l26 122h-113l-27 -122h114z" />
    <glyph glyph-name="dollar" unicode="$" horiz-adv-x="654" 
d="M234 -6c-66 13.333 -116.998 40.334 -152.998 81.001s-54 92.334 -54 155.001h231c0 -22.667 6 -40 18 -52s29.333 -18 52 -18c19.333 0 34.333 3.83301 45 11.5s16 18.5 16 32.5c0 17.333 -9.16699 31.5 -27.5 42.5s-47.5 19.833 -87.5 26.5
c-82.667 14 -143.667 39 -183 75s-59 84.667 -59 146c0 57.333 18 104.666 54 141.999s86 61.666 150 72.999v98h169v-101c64.667 -13.333 115.167 -40 151.5 -80s54.833 -90.333 55.5 -151h-226c0 22 -5.83301 38.833 -17.5 50.5s-28.167 17.5 -49.5 17.5
c-18.667 0 -33.334 -4 -44.001 -12s-16 -18.667 -16 -32c0 -16 8.5 -29 25.5 -39s46.5 -19 88.5 -27c87.333 -16.667 151.166 -42.667 191.499 -78s60.5 -83 60.5 -143c0 -60.667 -19 -110.167 -57 -148.5s-92 -62.833 -162 -73.5v-103h-172v107z" />
    <glyph glyph-name="percent" unicode="%" horiz-adv-x="997" 
d="M594 700h220l-411 -700h-220zM51.5 633c15.667 25.333 38.001 45.333 67.001 60s63.167 22 102.5 22s73.666 -7.33301 102.999 -22s51.833 -34.667 67.5 -60s23.5 -54.333 23.5 -87c0 -49.333 -17.5 -89.666 -52.5 -120.999s-82.167 -47 -141.5 -47
c-58.667 0 -105.5 15.667 -140.5 47s-52.5 71.666 -52.5 120.999c0 32.667 7.83301 61.667 23.5 87zM193.501 519c7 -7.33301 16.167 -11 27.5 -11s20.5 3.66699 27.5 11s10.5 16.333 10.5 27s-3.5 19.834 -10.5 27.501s-16.167 11.5 -27.5 11.5s-20.5 -3.83301 -27.5 -11.5
s-10.5 -16.834 -10.5 -27.501s3.5 -19.667 10.5 -27zM634.501 275c35 31.333 82.166 47 141.499 47s106.333 -15.667 141 -47s52 -71.666 52 -120.999s-17.333 -89.833 -52 -121.5s-81.667 -47.5 -141 -47.5c-39.333 0 -73.666 7.33301 -102.999 22s-51.833 34.667 -67.5 60
s-23.5 54.333 -23.5 87c0 49.333 17.5 89.666 52.5 120.999zM748.5 126.5c7 -7.66699 16.167 -11.5 27.5 -11.5s20.5 3.83301 27.5 11.5s10.5 16.834 10.5 27.501s-3.5 19.667 -10.5 27s-16.167 11 -27.5 11s-20.5 -3.66699 -27.5 -11s-10.5 -16.333 -10.5 -27
s3.5 -19.834 10.5 -27.501z" />
    <glyph glyph-name="ampersand" unicode="&#x26;" horiz-adv-x="764" 
d="M151.5 9c-41 16 -72.502 38.8311 -94.502 68.498s-33 64.5 -33 104.5c0 40.667 10.833 77.5 32.5 110.5s53.167 60.5 94.5 82.5c-27.333 30.667 -46.333 57.834 -57 81.501s-16 48.167 -16 73.5c0 37.333 10.333 70 31 98s49.834 49.5 87.501 64.5
s81.834 22.5 132.501 22.5c78.667 0 140.667 -17.167 186 -51.5s68 -81.166 68 -140.499c0 -85.333 -48 -152.333 -144 -201l61 -64c12 22.667 18.667 47 20 73h178c-3.33301 -78 -28 -145.333 -74 -202l124 -129h-216l-30 31c-60 -30.667 -128.667 -46 -206 -46
c-55.333 0 -103.5 8 -144.5 24zM255.498 160.998c13.667 -9.33301 33.5 -14.001 59.5 -14.001c17.333 0 34 2 50 6l-98 100c-21.333 -14.667 -32 -32 -32 -52c0 -17.333 6.83301 -30.666 20.5 -39.999zM290.998 482.997c6 -8.66699 18.001 -23 36.001 -43
c34.667 16.667 52 38 52 64c0 13.333 -4.33301 23.833 -13 31.5s-20.667 11.5 -36 11.5c-14.667 0 -26.334 -3.5 -35.001 -10.5s-13 -16.5 -13 -28.5c0 -8 3 -16.333 9 -25z" />
    <glyph glyph-name="quotesingle" unicode="'" horiz-adv-x="260" 
d="M32 700h195l-8 -287h-178z" />
    <glyph glyph-name="parenleft" unicode="(" horiz-adv-x="508" 
d="M95 300c0 163.333 45 314.333 135 453h241c-93.333 -148 -140 -299 -140 -453s46.667 -305 140 -453h-241c-90 138 -135 289 -135 453z" />
    <glyph glyph-name="parenright" unicode=")" horiz-adv-x="508" 
d="M413 300c0 -162.667 -45 -313.667 -135 -453h-241c93.333 148 140 299 140 453s-46.667 305 -140 453h241c90 -138 135 -289 135 -453z" />
    <glyph glyph-name="asterisk" unicode="*" horiz-adv-x="499" 
d="M197 452l-3 2l-76 -60l-69 119l88 34v4l-88 34l69 119l76 -60l3 2l-16 94h136l-15 -94l3 -2l76 60l68 -119l-87 -34v-4l87 -34l-68 -119l-76 60l-3 -2l15 -94h-136z" />
    <glyph glyph-name="plus" unicode="+" horiz-adv-x="579" 
d="M66 422h127v129h192v-129h127v-184h-127v-129h-192v129h-127v184z" />
    <glyph glyph-name="comma" unicode="," horiz-adv-x="301" 
d="M126.5 -56c12.333 11.333 19.834 27 22.501 47h-9c-34.667 0 -62.834 10.333 -84.501 31s-32.5 47.334 -32.5 80.001c0 33.333 11.333 60.666 34 81.999s51.667 32 87 32c41.333 0 73.833 -15.167 97.5 -45.5s35.5 -68.5 35.5 -114.5c0 -39.333 -8 -76.5 -24 -111.5
s-39.333 -63.833 -70 -86.5s-67 -35 -109 -37v99c22.667 4.66699 40.167 12.667 52.5 24z" />
    <glyph glyph-name="hyphen" unicode="-" horiz-adv-x="446" 
d="M50 326h346v-150h-346v150z" />
    <glyph glyph-name="period" unicode="." horiz-adv-x="286" 
d="M56.5 19c-22.333 21.333 -33.5 48.666 -33.5 81.999c0 34 11.167 61.667 33.5 83s51.166 32 86.499 32s64 -10.667 86 -32s33 -49 33 -83c0 -33.333 -11.167 -60.666 -33.5 -81.999s-50.833 -32 -85.5 -32c-35.333 0 -64.166 10.667 -86.499 32z" />
    <glyph glyph-name="slash" unicode="/" horiz-adv-x="617" 
d="M334 764h218l-269 -828h-218z" />
    <glyph glyph-name="zero" unicode="0" horiz-adv-x="710" 
d="M181 28.5c-48.667 29 -85.834 70.833 -111.501 125.5s-38.5 120 -38.5 196s12.833 141.333 38.5 196s62.834 96.5 111.501 125.5s106.667 43.5 174 43.5s125.333 -14.5 174 -43.5s85.834 -70.833 111.501 -125.5s38.5 -120 38.5 -196c0 -115.333 -28.333 -205 -85 -269
s-136.334 -96 -239.001 -96c-67.333 0 -125.333 14.5 -174 43.5zM284 228.5c16 -27.667 39.667 -41.5 71 -41.5s55 14 71 42s24 68.333 24 121c0 53.333 -8 93.833 -24 121.5s-39.667 41.5 -71 41.5s-55 -13.833 -71 -41.5s-24 -68.167 -24 -121.5s8 -93.833 24 -121.5z" />
    <glyph glyph-name="one" unicode="1" horiz-adv-x="468" 
d="M174 397h-153.001v196h74c34 0 60.333 5.83301 79 17.5s33.334 31.167 44.001 58.5l11 31h177v-700h-232v397z" />
    <glyph glyph-name="two" unicode="2" horiz-adv-x="650" 
d="M34 162l290.001 225.001c14.667 12 25.667 23.833 33 35.5s11 24.5 11 38.5c0 18 -5.33301 32.5 -16 43.5s-25.334 16.5 -44.001 16.5c-20 0 -35.333 -6.16699 -46 -18.5s-16.334 -30.5 -17.001 -54.5h-208c2.66699 85.333 28.334 151.166 77.001 197.499
s116 69.5 202 69.5c54.667 0 102.5 -9.5 143.5 -28.5s72.667 -46.167 95 -81.5s33.5 -77 33.5 -125c0 -40.667 -9.5 -79 -28.5 -115s-51.167 -71.667 -96.5 -107l-77 -60l1 -4l70 4h144v-198h-567v162z" />
    <glyph glyph-name="three" unicode="3" horiz-adv-x="641" 
d="M109 49.5c-51.333 43 -78.666 104.164 -81.999 183.497h219c1.33301 -19.333 8 -34.166 20 -44.499s28.333 -15.5 49 -15.5c21.333 0 38.166 5.33301 50.499 16s18.5 25.334 18.5 44.001s-6.16699 33.334 -18.5 44.001s-29.166 16 -50.499 16h-129v122l109 98l-1 3
l-81 -2h-162v186h518v-152l-132 -122c51.333 -12.667 92.166 -38 122.499 -76s45.5 -83.667 45.5 -137c0 -46 -11.5 -86.167 -34.5 -120.5s-55.833 -60.833 -98.5 -79.5s-92.667 -28 -150 -28c-90.667 0 -161.667 21.5 -213 64.5z" />
    <glyph glyph-name="four" unicode="4" horiz-adv-x="693" 
d="M20 264l200 436h248l-186 -404h113l34 168h166v-162h82v-193h-82v-109h-222v109h-353v155z" />
    <glyph glyph-name="five" unicode="5" horiz-adv-x="641" 
d="M114.5 49.5c-51 43 -78.167 104.165 -81.5 183.498h218c0.666992 -18.667 7.16699 -33.334 19.5 -44.001s28.833 -16 49.5 -16c21.333 0 38.333 5.33301 51 16s19 25.334 19 44.001s-6.33301 33.334 -19 44.001s-29.667 16 -51 16h-279l42 407h485v-184h-294l-7 -67h106
c46 0 87 -9.66699 123 -29s64 -46.166 84 -80.499s30 -73.833 30 -118.5c0 -48 -11.5 -89.833 -34.5 -125.5s-55.833 -63 -98.5 -82s-92.667 -28.5 -150 -28.5c-90.667 0 -161.5 21.5 -212.5 64.5z" />
    <glyph glyph-name="six" unicode="6" horiz-adv-x="657" 
d="M169.5 16c-45 20.667 -79.833 49.835 -104.5 87.502s-37 81.5 -37 131.5c0 31.333 5.5 63.166 16.5 95.499s28.5 68.833 52.5 109.5l156 260h263l-134 -222c48 -2 90.333 -13.333 127 -34s65 -48.834 85 -84.501s30 -76.167 30 -121.5c0 -50.667 -12.333 -95 -37 -133
s-59.5 -67.5 -104.5 -88.5s-97.167 -31.5 -156.5 -31.5s-111.5 10.333 -156.5 31zM271.5 186.001c14.333 -14 32.5 -21 54.5 -21s40.167 7 54.5 21s21.5 31.667 21.5 53s-7.16699 39 -21.5 53s-32.5 21 -54.5 21s-40.167 -7 -54.5 -21s-21.5 -31.667 -21.5 -53
s7.16699 -39 21.5 -53z" />
    <glyph glyph-name="seven" unicode="7" horiz-adv-x="596" 
d="M305 501h-275v199h535v-159l-212 -541h-245z" />
    <glyph glyph-name="eight" unicode="8" horiz-adv-x="649" 
d="M164.5 10c-45 16.667 -79.6699 40.667 -104.003 72s-36.5 68 -36.5 110c0 36.667 8.83301 69.667 26.5 99s42.834 52.333 75.501 69c-26 16.667 -46.167 38.167 -60.5 64.5s-21.5 55.833 -21.5 88.5c0 40.667 11.5 76.167 34.5 106.5s55.5 53.833 97.5 70.5
s91.333 25 148 25s106.167 -8.16699 148.5 -24.5s75 -39.833 98 -70.5s34.5 -66.334 34.5 -107.001c0 -32.667 -7.16699 -62.167 -21.5 -88.5s-34.5 -47.833 -60.5 -64.5c32 -17.333 57 -40.666 75 -69.999s27 -62 27 -98c0 -42.667 -12.167 -79.5 -36.5 -110.5
s-59.166 -54.833 -104.499 -71.5s-98.666 -25 -159.999 -25s-114.5 8.33301 -159.5 25zM265.497 162.5c14.333 -12.333 33.833 -18.5 58.5 -18.5c25.333 0 45.166 6.16699 59.499 18.5s21.5 29.166 21.5 50.499c0 20.667 -7.16699 37.167 -21.5 49.5
s-34.166 18.5 -59.499 18.5c-24.667 0 -44.167 -6.16699 -58.5 -18.5s-21.5 -28.833 -21.5 -49.5c0 -21.333 7.16699 -38.166 21.5 -50.499zM267.997 447.5c14 -11.667 32.666 -17.5 55.999 -17.5c24 0 43 5.83301 57 17.5s21 27.5 21 47.5s-7.16699 35.833 -21.5 47.5
s-33.166 17.5 -56.499 17.5s-42 -5.83301 -56 -17.5s-21 -27.5 -21 -47.5s7 -35.833 21 -47.5z" />
    <glyph glyph-name="nine" unicode="9" horiz-adv-x="657" 
d="M487.5 684c45 -20.667 79.833 -49.835 104.5 -87.502s37 -81.5 37 -131.5c0 -31.333 -5.5 -63.166 -16.5 -95.499s-28.5 -68.833 -52.5 -109.5l-156 -260h-263l134 222c-48 2 -90.333 13.333 -127 34s-65 48.834 -85 84.501s-30 76.167 -30 121.5
c0 50.667 12.333 95 37 133s59.5 67.5 104.5 88.5s97.167 31.5 156.5 31.5s111.5 -10.333 156.5 -31zM276.5 407.999c14.333 -14 32.5 -21 54.5 -21s40.167 7 54.5 21s21.5 31.667 21.5 53s-7.16699 39 -21.5 53s-32.5 21 -54.5 21s-40.167 -7 -54.5 -21
s-21.5 -31.667 -21.5 -53s7.16699 -39 21.5 -53z" />
    <glyph glyph-name="colon" unicode=":" horiz-adv-x="286" 
d="M56.5 19c-22.333 21.333 -33.5 48.666 -33.5 81.999c0 34 11.167 61.667 33.5 83s51.166 32 86.499 32s64 -10.667 86 -32s33 -49 33 -83c0 -33.333 -11.167 -60.666 -33.5 -81.999s-50.833 -32 -85.5 -32c-35.333 0 -64.166 10.667 -86.499 32zM56.5 356
c-22.333 21.333 -33.5 48.666 -33.5 81.999c0 34 11.167 61.667 33.5 83s51.166 32 86.499 32s64 -10.667 86 -32s33 -49 33 -83c0 -33.333 -11.167 -60.666 -33.5 -81.999s-50.833 -32 -85.5 -32c-35.333 0 -64.166 10.667 -86.499 32z" />
    <glyph glyph-name="semicolon" unicode=";" horiz-adv-x="301" 
d="M126.5 -52c12.333 11.333 19.834 27 22.501 47h-9c-34.667 0 -62.834 10.333 -84.501 31s-32.5 47.334 -32.5 80.001c0 33.333 11.333 60.666 34 81.999s51.667 32 87 32c41.333 0 73.833 -15.167 97.5 -45.5s35.5 -68.5 35.5 -114.5c0 -39.333 -8 -76.5 -24 -111.5
s-39.333 -63.833 -70 -86.5s-67 -35 -109 -37v99c22.667 4.66699 40.167 12.667 52.5 24zM60.501 356c-22.333 21.333 -33.5 48.666 -33.5 81.999c0 34 11.167 61.667 33.5 83s51.166 32 86.499 32s64 -10.667 86 -32s33 -49 33 -83
c0 -33.333 -11.167 -60.666 -33.5 -81.999s-50.833 -32 -85.5 -32c-35.333 0 -64.166 10.667 -86.499 32z" />
    <glyph glyph-name="less" unicode="&#x3c;" horiz-adv-x="610" 
d="M66 239v176l478 191v-231l-100 -26l-81 -20v-4l81 -20l100 -27v-231z" />
    <glyph glyph-name="equal" unicode="=" horiz-adv-x="617" 
d="M66 561h484v-181h-484v181zM66 308h484v-180h-484v180z" />
    <glyph glyph-name="greater" unicode="&#x3e;" horiz-adv-x="610" 
d="M66 278l100 27l81 20v4l-81 20l-100 26v231l478 -191v-176l-478 -192v231z" />
    <glyph glyph-name="question" unicode="?" horiz-adv-x="581" 
d="M196 394c16 22 43.9961 40.666 83.9961 55.999c22.667 8.66699 38.834 17.334 48.501 26.001s14.5 19.334 14.5 32.001c0 14 -5 24.833 -15 32.5s-24.333 11.5 -43 11.5c-41.333 0 -62.333 -20 -63 -60h-200c2.66699 70 27.834 124.667 75.501 164s112.5 59 194.5 59
c52.667 0 98.834 -8.5 138.501 -25.5s70.334 -41 92.001 -72s32.5 -67.167 32.5 -108.5c0 -36 -9 -66.833 -27 -92.5s-45.667 -46.834 -83 -63.501c-22.667 -10 -39.167 -20.667 -49.5 -32s-15.5 -24.333 -15.5 -39v-18h-208v37c0 40 8 71 24 93zM190.496 182.999
c22.333 21.333 50.833 32 85.5 32c35.333 0 64.166 -10.667 86.499 -32s33.5 -48.666 33.5 -81.999s-11.167 -60.666 -33.5 -81.999s-51.166 -32 -86.499 -32c-34.667 0 -63.167 10.667 -85.5 32s-33.5 48.666 -33.5 81.999s11.167 60.666 33.5 81.999z" />
    <glyph glyph-name="at" unicode="@" horiz-adv-x="1055" 
d="M260 -164c-74.667 38 -132.169 92.166 -172.502 162.499s-60.5 152.833 -60.5 247.5c0 92.667 20.833 175 62.5 247s100.334 127.833 176.001 167.5s162.5 59.5 260.5 59.5c94.667 0 180.167 -19.167 256.5 -57.5s136.333 -91.166 180 -158.499
s65.5 -142.666 65.5 -225.999c0 -76 -19.167 -136 -57.5 -180s-90.833 -66 -157.5 -66c-70 0 -118.667 24.667 -146 74c-18 -24 -41.667 -42.667 -71 -56s-61 -20 -95 -20c-40.667 0 -77 9.5 -109 28.5s-57.167 45.167 -75.5 78.5s-27.5 71.333 -27.5 114
c0 42 9.16699 79.833 27.5 113.5s43.5 60 75.5 79s68.333 28.5 109 28.5c26.667 0 51.834 -4.33301 75.501 -13s44.167 -20.667 61.5 -36l10 33h111v-220c0 -20 4.16699 -35.167 12.5 -45.5s20.166 -15.5 35.499 -15.5c19.333 0 33.5 7.83301 42.5 23.5s13.5 39.5 13.5 71.5
c0 58 -13.833 109 -41.5 153s-67 78.167 -118 102.5s-109.833 36.5 -176.5 36.5s-125 -12.833 -175 -38.5s-88.667 -62.334 -116 -110.001s-41 -103.167 -41 -166.5c0 -99.333 29.5 -175.833 88.5 -229.5s142.833 -80.5 251.5 -80.5c79.333 0 153.333 14.333 222 43v-160
c-75.333 -27.333 -153.666 -41 -234.999 -41c-100 0 -187.333 19 -262 57zM470.998 192.499c14.667 -15 34 -22.499 58 -22.499c23.333 0 42.5 7.5 57.5 22.5s22.5 34.5 22.5 58.5c0 23.333 -7.5 42.666 -22.5 57.999s-34.167 23 -57.5 23c-24 0 -43.333 -7.5 -58 -22.5
s-22 -34.5 -22 -58.5s7.33301 -43.5 22 -58.5z" />
    <glyph glyph-name="A" unicode="A" horiz-adv-x="779" 
d="M263 700h252l261 -700h-254l-31 87h-205l-31 -87h-252zM453 247l-62 192h-4l-61 -192h127z" />
    <glyph glyph-name="B" unicode="B" horiz-adv-x="723" 
d="M63 700h383c72 0 128.833 -16.667 170.5 -50s62.5 -79 62.5 -137c0 -34.667 -7.5 -65.667 -22.5 -93s-36.5 -49 -64.5 -65c32.667 -14 58.667 -35.5 78 -64.5s29 -62.167 29 -99.5s-9.83301 -70.5 -29.5 -99.5s-47.5 -51.5 -83.5 -67.5s-77 -24 -123 -24h-400v700z
M394 165c20 0 35.5 4.83301 46.5 14.5s16.5 23.167 16.5 40.5c0 18 -5.5 31.833 -16.5 41.5s-26.5 14.5 -46.5 14.5h-98v-111h98zM381 429c19.333 0 34.333 4.66895 45 14.002s16 22.666 16 39.999s-5.33301 30.666 -16 39.999s-25.667 14 -45 14h-85v-108h85z" />
    <glyph glyph-name="C" unicode="C" horiz-adv-x="800" 
d="M204 31c-56 30.667 -99.5 73.6689 -130.5 129.002s-46.5 118.666 -46.5 189.999s15.5 134.666 46.5 189.999s74.5 98.333 130.5 129s120 46 192 46c66.667 0 126.5 -12.333 179.5 -37s96.333 -60.167 130 -106.5s55.834 -100.833 66.501 -163.5h-237
c-9.33301 26.667 -25.5 47.834 -48.5 63.501s-49.5 23.5 -79.5 23.5c-40.667 0 -73.5 -13.333 -98.5 -40s-37.5 -61.667 -37.5 -105c0 -42.667 12.5 -77.5 37.5 -104.5s57.167 -40.5 96.5 -40.5c31.333 0 58.666 8 81.999 24s40 38 50 66h238
c-8 -62 -29.167 -116.333 -63.5 -163s-78.5 -82.834 -132.5 -108.501s-114.333 -38.5 -181 -38.5c-73.333 0 -138 15.333 -194 46z" />
    <glyph glyph-name="D" unicode="D" horiz-adv-x="788" 
d="M63 700h315c76.667 0 143.834 -14.333 201.501 -43s102.334 -69.5 134.001 -122.5s47.5 -114.5 47.5 -184.5s-15.833 -131.5 -47.5 -184.5s-76.334 -93.833 -134.001 -122.5s-124.834 -43 -201.501 -43h-315v700zM371 213c45.333 0 81 12.167 107 36.5
s39 57.833 39 100.5s-13 76.167 -39 100.5s-61.667 36.5 -107 36.5h-69v-274h69z" />
    <glyph glyph-name="E" unicode="E" horiz-adv-x="616" 
d="M63 700h504v-179h-269v-81h243v-174h-243v-84h279v-182h-514v700z" />
    <glyph glyph-name="F" unicode="F" horiz-adv-x="579" 
d="M63 700h482v-208h-242v-108h217v-199h-217v-185h-240v700z" />
    <glyph glyph-name="G" unicode="G" horiz-adv-x="809" 
d="M208 31c-57.333 30.667 -101.837 73.6709 -133.504 129.004s-47.5 118.666 -47.5 189.999s15.833 134.666 47.5 189.999s76 98.333 133 129s122.167 46 195.5 46c60.667 0 116.334 -10.5 167.001 -31.5s93.5 -51 128.5 -90s59.167 -84.5 72.5 -136.5h-245
c-12 17.333 -28.5 30.833 -49.5 40.5s-44.5 14.5 -70.5 14.5c-46 0 -83 -14.833 -111 -44.5s-42 -68.834 -42 -117.501c0 -48 13.833 -87.167 41.5 -117.5s65.834 -45.5 114.501 -45.5c32 0 59.333 6.66699 82 20s39.334 31.666 50.001 54.999h-172v146h412
c2 -18 3 -35.667 3 -53c0 -72 -15.5 -136 -46.5 -192s-75.167 -99.667 -132.5 -131s-123.666 -47 -198.999 -47c-74.667 0 -140.667 15.333 -198 46z" />
    <glyph glyph-name="H" unicode="H" horiz-adv-x="774" 
d="M469 246h-164v-246h-242v700h242v-234h164v234h242v-700h-242v246z" />
    <glyph glyph-name="I" unicode="I" horiz-adv-x="367" 
d="M63 700h242v-700h-242v700z" />
    <glyph glyph-name="J" unicode="J" horiz-adv-x="523" 
d="M29 220h103c30.667 0 53 7 67 21s21 37 21 69v390h242v-423c0 -89.333 -25.667 -157.833 -77 -205.5s-124.333 -71.5 -219 -71.5h-137v220z" />
    <glyph glyph-name="K" unicode="K" horiz-adv-x="781" 
d="M63 700l242.001 -0.000976562v-235h21c30 0 51.167 4.33301 63.5 13s22.833 26 31.5 52l57 170h260l-101 -270c-14.667 -37.333 -30.334 -67.666 -47.001 -90.999l172 -339h-276l-116 249h-65v-249h-242v700z" />
    <glyph glyph-name="L" unicode="L" horiz-adv-x="596" 
d="M63 700h242v-479h266v-221h-508v700z" />
    <glyph glyph-name="M" unicode="M" horiz-adv-x="954" 
d="M63 700h196l218 -294l219 294h195v-700h-236v161l2 144h-3l-110 -151h-134l-110 152l-3 -1l2 -144v-161h-236v700z" />
    <glyph glyph-name="N" unicode="N" horiz-adv-x="784" 
d="M63 700h196l224 -302h4l-2 89v213h237v-700h-196l-225 305h-3l2 -92v-213h-237v700z" />
    <glyph glyph-name="O" unicode="O" horiz-adv-x="828" 
d="M213 31.5c-58.667 31 -104.334 74.167 -137.001 129.5s-49 118.333 -49 189s16.333 133.667 49 189s78.334 98.5 137.001 129.5s125.667 46.5 201 46.5c76 0 143.333 -15.5 202 -46.5s104.334 -74.167 137.001 -129.5s49 -118.333 49 -189s-16.333 -133.667 -49 -189
s-78.334 -98.5 -137.001 -129.5s-126 -46.5 -202 -46.5c-75.333 0 -142.333 15.5 -201 46.5zM311 245.5c26.667 -27 61 -40.5 103 -40.5s76.5 13.5 103.5 40.5s40.5 61.833 40.5 104.5s-13.5 77.5 -40.5 104.5s-61.5 40.5 -103.5 40.5s-76.333 -13.5 -103 -40.5
s-40 -61.833 -40 -104.5s13.333 -77.5 40 -104.5z" />
    <glyph glyph-name="P" unicode="P" horiz-adv-x="707" 
d="M63 700l325 0.000976562c60.667 0 113.5 -11 158.5 -33s79.667 -53.333 104 -94s36.5 -88.334 36.5 -143.001s-12.167 -102.167 -36.5 -142.5s-58.833 -71.5 -103.5 -93.5s-97 -33 -157 -33h-85v-161h-242v700zM356 350.001c28.667 0 50.667 6.83105 66 20.498
s23 32.834 23 57.501s-7.66699 43.834 -23 57.501s-37.333 20.5 -66 20.5h-56v-156h56z" />
    <glyph glyph-name="Q" unicode="Q" horiz-adv-x="828" 
d="M510 -156c-35.333 21.333 -62.3359 54.001 -81.0029 98.001l-18 43c-74.667 0 -141.167 15.667 -199.5 47s-103.666 74.666 -135.999 129.999s-48.5 118 -48.5 188c0 70.667 16.333 133.667 49 189s78.334 98.5 137.001 129.5s125.667 46.5 201 46.5
c76 0 143.333 -15.5 202 -46.5s104.334 -74.167 137.001 -129.5s49 -118.333 49 -189s-16.333 -133.667 -49 -189s-78 -98.333 -136 -129l6 -15c8 -18 17.167 -29.833 27.5 -35.5s27.166 -8.5 50.499 -8.5h53v-161h-111c-53.333 0 -97.666 10.667 -132.999 32z
M310.997 245.501c26.667 -27 61 -40.5 103 -40.5s76.5 13.5 103.5 40.5s40.5 61.833 40.5 104.5s-13.5 77.5 -40.5 104.5s-61.5 40.5 -103.5 40.5s-76.333 -13.5 -103 -40.5s-40 -61.833 -40 -104.5s13.333 -77.5 40 -104.5z" />
    <glyph glyph-name="R" unicode="R" horiz-adv-x="739" 
d="M63 700l346 0.00195312c58.667 0 109.5 -10.333 152.5 -31s76 -50.334 99 -89.001s34.5 -84.334 34.5 -137.001c0 -46 -8.83301 -86.833 -26.5 -122.5s-43.167 -64.5 -76.5 -86.5l117 -234h-266l-83 186h-57v-186h-240v700zM370 364.002
c26.667 0 47.167 6.49902 61.5 19.499s21.5 31.5 21.5 55.5c0 24.667 -7.16699 43.334 -21.5 56.001s-34.833 19 -61.5 19h-71v-150h71z" />
    <glyph glyph-name="S" unicode="S" horiz-adv-x="654" 
d="M106.5 49.5c-53 43 -79.4971 103.166 -79.4971 180.499h231c0 -22.667 6 -40 18 -52s29.333 -18 52 -18c19.333 0 34.333 3.83301 45 11.5s16 18.5 16 32.5c0 17.333 -9.16699 31.5 -27.5 42.5s-47.5 19.833 -87.5 26.5c-82.667 14 -143.667 39 -183 75
s-59 84.667 -59 146c0 68.667 25.167 122.667 75.5 162s119.5 59 207.5 59c60 0 112.167 -9.66699 156.5 -29s78.666 -47.166 102.999 -83.499s36.833 -78.833 37.5 -127.5h-226c0 22 -5.83301 38.833 -17.5 50.5s-28.167 17.5 -49.5 17.5c-18.667 0 -33.334 -4 -44.001 -12
s-16 -18.667 -16 -32c0 -16 8.5 -29 25.5 -39s46.5 -19 88.5 -27c87.333 -16.667 151.166 -42.667 191.499 -78s60.5 -83 60.5 -143c0 -71.333 -26 -127 -78 -167s-124.667 -60 -218 -60c-95.333 0 -169.5 21.5 -222.5 64.5z" />
    <glyph glyph-name="T" unicode="T" horiz-adv-x="703" 
d="M230 481h-203v219h648v-219h-203v-481h-242v481z" />
    <glyph glyph-name="U" unicode="U" horiz-adv-x="759" 
d="M207.5 21.5c-48.333 24.333 -85.332 59.5 -110.999 105.5s-38.5 100.667 -38.5 164v409h241v-396c0 -64.667 26.667 -97 80 -97s80 32.333 80 97v396h242v-409c0 -63.333 -12.833 -118 -38.5 -164s-62.834 -81.167 -111.501 -105.5s-106 -36.5 -172 -36.5
s-123.167 12.167 -171.5 36.5z" />
    <glyph glyph-name="V" unicode="V" horiz-adv-x="760" 
d="M3 700h258l67 -217l50 -168h4l51 168l67 217h257l-251 -700h-252z" />
    <glyph glyph-name="W" unicode="W" horiz-adv-x="1147" 
d="M3 700h256l40 -152l55 -189h4l55 189l41 152h239l41 -152l56 -193h4l56 193l40 152h254l-216 -700h-252l-44 154l-57 193h-3l-57 -193l-43 -154h-253z" />
    <glyph glyph-name="X" unicode="X" horiz-adv-x="801" 
d="M237 357l-207 343h266l48 -89l55 -97h3l54 97l49 89h265l-207 -342l221 -358h-278l-56 101l-48 88h-3l-105 -189h-276z" />
    <glyph glyph-name="Y" unicode="Y" horiz-adv-x="745" 
d="M252 233l-249 467h268l57 -130l43 -106h3l42 106l57 130h269l-248 -463v-237h-242v233z" />
    <glyph glyph-name="Z" unicode="Z" horiz-adv-x="639" 
d="M32 172l262 318l-1 3l-87 -1h-164v208h559v-172l-261 -318l1 -3l97 1h169v-208h-575v172z" />
    <glyph glyph-name="bracketleft" unicode="[" horiz-adv-x="466" 
d="M63 753h368v-196h-146v-514h146v-196h-368v906z" />
    <glyph glyph-name="backslash" unicode="\" horiz-adv-x="617" 
d="M65 764h218l269 -828h-218z" />
    <glyph glyph-name="bracketright" unicode="]" horiz-adv-x="466" 
d="M403 -153h-368v196h146v514h-146v196h368v-906z" />
    <glyph glyph-name="asciicircum" unicode="^" horiz-adv-x="603" 
d="M211 700h182l180 -389h-214l-36 90l-20 58h-3l-21 -58l-36 -90h-212z" />
    <glyph glyph-name="underscore" unicode="_" horiz-adv-x="476" 
d="M9 -42h458v-130h-458v130z" />
    <glyph glyph-name="grave" unicode="`" horiz-adv-x="334" 
d="M50 763h178l56 -166h-150z" />
    <glyph glyph-name="a" unicode="a" horiz-adv-x="654" 
d="M88 32c-36 30 -53.999 70.667 -53.999 122c0 49.333 16.333 88.833 49 118.5s76.667 44.5 132 44.5h170v32c0 13.333 -5.5 24.5 -16.5 33.5s-24.833 13.5 -41.5 13.5c-15.333 0 -28.333 -4 -39 -12s-16.667 -18.667 -18 -32h-210c8 64 34.833 112.5 80.5 145.5
s108.167 49.5 187.5 49.5c90 0 159 -21 207 -63s72 -103 72 -183v-301h-163l-23 58c-22.667 -23.333 -49.834 -41 -81.501 -53s-66.5 -18 -104.5 -18c-62 0 -111 15 -147 45zM267.001 139.5c10 -7.66699 23.667 -11.498 41 -11.498c24 0 43.333 7 58 21s22 32.667 22 56v7
h-80c-17.333 0 -31 -3.83301 -41 -11.5s-15 -17.834 -15 -30.501s5 -22.834 15 -30.501z" />
    <glyph glyph-name="b" unicode="b" horiz-adv-x="717" 
d="M240 53l-21 -53.0029h-162v740h228v-227c40 22.667 85.667 34 137 34c53.333 0 100.333 -11.833 141 -35.5s72.334 -56.667 95.001 -99s34 -91.166 34 -146.499s-11.333 -104.166 -34 -146.499s-54.334 -75.166 -95.001 -98.499s-87.667 -35 -141 -35
c-73.333 0 -134 22.333 -182 67zM305 196.497c17.333 -17.667 40.333 -26.5 69 -26.5s51.834 8.83301 69.501 26.5s26.5 40.834 26.5 69.501s-8.83301 52 -26.5 70s-40.834 27 -69.501 27s-51.667 -8.83301 -69 -26.5s-26 -41.167 -26 -70.5
c0 -28.667 8.66699 -51.834 26 -69.501z" />
    <glyph glyph-name="c" unicode="c" horiz-adv-x="667" 
d="M172.5 20.5c-47 23.667 -83.4951 56.8311 -109.495 99.498s-39 91.334 -39 146.001s13.167 103.334 39.5 146.001s63 75.834 110 99.501s100.5 35.5 160.5 35.5c55.333 0 105.166 -9.83301 149.499 -29.5s80.166 -47.5 107.499 -83.5s44 -78 50 -126h-211
c-8.66699 18 -20.834 31.667 -36.501 41s-33.834 14 -54.501 14c-28 0 -50.5 -8.83301 -67.5 -26.5s-25.5 -41.167 -25.5 -70.5c0 -28.667 8.5 -51.834 25.5 -69.501s39.5 -26.5 67.5 -26.5c22 0 41.167 5.5 57.5 16.5s28.166 26.167 35.499 45.5h212
c-6 -50 -22.833 -93.667 -50.5 -131s-63.667 -66 -108 -86s-94.833 -30 -151.5 -30c-60.667 0 -114.5 11.833 -161.5 35.5z" />
    <glyph glyph-name="d" unicode="d" horiz-adv-x="717" 
d="M153.5 21c-41 23.333 -72.833 56.168 -95.5 98.501s-34 91.166 -34 146.499s11.333 104.166 34 146.499s54.5 75.333 95.5 99s87.833 35.5 140.5 35.5c52 0 98 -11.333 138 -34v227h228v-740h-163l-20 52c-23.333 -21.333 -50.5 -37.666 -81.5 -48.999
s-64.833 -17 -101.5 -17c-52.667 0 -99.5 11.667 -140.5 35zM272.5 196.502c17.667 -17.667 40.834 -26.5 69.501 -26.5s51.834 8.83301 69.501 26.5s26.5 40.834 26.5 69.501s-8.83301 52 -26.5 70s-40.834 27 -69.501 27s-51.834 -9 -69.501 -27s-26.5 -41.333 -26.5 -70
s8.83301 -51.834 26.5 -69.501z" />
    <glyph glyph-name="e" unicode="e" horiz-adv-x="667" 
d="M172 20.5c-46.667 23.667 -83.001 56.8311 -109.001 99.498s-39 91.334 -39 146.001s13.167 103.334 39.5 146.001s62.833 75.834 109.5 99.501s100.334 35.5 161.001 35.5c66 0 122.833 -13.5 170.5 -40.5s83.5 -65.5 107.5 -115.5s34.333 -108 31 -174h-398
c6 -24 17.333 -42 34 -54s36.667 -18 60 -18c16.667 0 32.167 2.83301 46.5 8.5s25.833 13.5 34.5 23.5h214c-22 -60.667 -59.5 -107.834 -112.5 -141.501s-116.167 -50.5 -189.5 -50.5c-60 0 -113.333 11.833 -160 35.5zM428.999 321.997
c-6.66699 21.333 -17.668 37.833 -33.001 49.5s-34.666 17.5 -57.999 17.5c-22.667 0 -42 -5.66699 -58 -17s-27.333 -28 -34 -50h183z" />
    <glyph glyph-name="f" unicode="f" horiz-adv-x="483" 
d="M168 720c35.333 34.667 87.333 52 156 52h149v-161h-83c-38 0 -57 -19 -57 -57v-21h135v-176h-125v-357h-228v357h-99v176h99v34c0 67.333 17.667 118.333 53 153z" />
    <glyph glyph-name="g" unicode="g" horiz-adv-x="705" 
d="M133 -181c-52.667 37.333 -80.665 89.332 -83.998 155.999h217c2.66699 -14.667 10.5 -26 23.5 -34s30.5 -12 52.5 -12c27.333 0 47.5 6.83301 60.5 20.5s19.5 34.834 19.5 63.501v41c-41.333 -24.667 -89.333 -37 -144 -37c-49.333 0 -93.333 11.167 -132 33.5
s-68.667 53.5 -90 93.5s-32 86 -32 138s10.667 98 32 138s51.333 71.167 90 93.5s82.667 33.5 132 33.5c37.333 0 71.833 -6 103.5 -18s59.167 -29 82.5 -51l21 55h163v-505c0 -86 -26.833 -151.667 -80.5 -197s-127.834 -68 -222.501 -68
c-88.667 0 -159.334 18.667 -212.001 56zM271.502 215.999c16.333 -16.667 37.833 -25 64.5 -25c26 0 47.167 8.33301 63.5 25s24.5 38.334 24.5 65.001s-8.16699 48.334 -24.5 65.001s-37.5 25 -63.5 25c-26.667 0 -48.167 -8.33301 -64.5 -25s-24.5 -38.334 -24.5 -65.001
s8.16699 -48.334 24.5 -65.001z" />
    <glyph glyph-name="h" unicode="h" horiz-adv-x="688" 
d="M57 740l228 -0.00195312v-234c38.667 27.333 84.667 41 138 41c66.667 0 119.5 -20.5 158.5 -61.5s58.5 -96.833 58.5 -167.5v-318h-228v289c0 24.667 -5.33301 43.334 -16 56.001s-26 19 -46 19c-20.667 0 -36.667 -6.66699 -48 -20s-17 -32.666 -17 -57.999v-286h-228
v740z" />
    <glyph glyph-name="i" unicode="i" horiz-adv-x="342" 
d="M57 533h228v-533h-228v533zM76 809.5c24 23 55.667 34.5 95 34.5c38.667 0 70 -11.5 94 -34.5s36 -53.167 36 -90.5s-12 -67.666 -36 -90.999s-55.333 -35 -94 -35c-39.333 0 -71 11.667 -95 35s-36 53.666 -36 90.999s12 67.5 36 90.5z" />
    <glyph glyph-name="j" unicode="j" horiz-adv-x="345" 
d="M-56 -58h50c44.667 0 67 23 67 69v522h228v-527c0 -172 -85.333 -258 -256 -258h-89v194zM77 809.5c24 23 55.667 34.5 95 34.5c38.667 0 70 -11.5 94 -34.5s36 -53.167 36 -90.5s-12 -67.666 -36 -90.999s-55.333 -35 -94 -35c-39.333 0 -71 11.667 -95 35
s-36 53.666 -36 90.999s12 67.5 36 90.5z" />
    <glyph glyph-name="k" unicode="k" horiz-adv-x="687" 
d="M57 740l227.999 -0.000976562v-371h12c23.333 0 40.333 3.33301 51 10s18.667 19.334 24 38.001l36 116h239l-73 -205c-11.333 -30 -24.666 -55 -39.999 -75l137 -253h-258l-86 177h-42v-177h-228v740z" />
    <glyph glyph-name="l" unicode="l" horiz-adv-x="342" 
d="M57 740h228v-740h-228v740z" />
    <glyph glyph-name="m" unicode="m" horiz-adv-x="1030" 
d="M57 533h162.001l21 -54c20.667 22 45.167 38.833 73.5 50.5s59.5 17.5 93.5 17.5c36 0 68.667 -6.66699 98 -20s53.333 -32.666 72 -57.999c21.333 25.333 47.5 44.666 78.5 57.999s66.167 20 105.5 20c44 0 82.667 -9.33301 116 -28s59.166 -45.167 77.499 -79.5
s27.5 -74.5 27.5 -120.5v-319h-228v291c0 22.667 -5.5 40.5 -16.5 53.5s-26.167 19.5 -45.5 19.5s-34.5 -6.5 -45.5 -19.5s-16.5 -31.167 -16.5 -54.5v-290h-221v291c0 22.667 -5.5 40.5 -16.5 53.5s-26.167 19.5 -45.5 19.5s-34.5 -6.5 -45.5 -19.5
s-16.5 -31.167 -16.5 -54.5v-290h-228v533z" />
    <glyph glyph-name="n" unicode="n" horiz-adv-x="688" 
d="M57 533l162 -0.00195312l22 -56c21.333 22.667 47 40 77 52s63 18 99 18c68.667 0 123 -20.5 163 -61.5s60 -97.167 60 -168.5v-317h-228v289c0 24.667 -5.33301 43.334 -16 56.001s-26 19 -46 19c-20.667 0 -36.667 -6.66699 -48 -20s-17 -32.666 -17 -57.999v-286h-228
v533z" />
    <glyph glyph-name="o" unicode="o" horiz-adv-x="684" 
d="M176 20c-48 23.333 -85.333 56.166 -112 98.499s-40 91.5 -40 147.5s13.333 105.167 40 147.5s64 75.166 112 98.499s103.333 35 166 35c63.333 0 119 -11.667 167 -35s85.167 -56.166 111.5 -98.499s39.5 -91.5 39.5 -147.5s-13.167 -105.167 -39.5 -147.5
s-63.5 -75.166 -111.5 -98.499s-103.667 -35 -167 -35c-62.667 0 -118 11.667 -166 35zM273 196.5c18 -17.667 41 -26.5 69 -26.5s51 8.83301 69 26.5s27 40.834 27 69.501s-9 52 -27 70s-41 27 -69 27s-51 -9 -69 -27s-27 -41.333 -27 -70s9 -51.834 27 -69.501z" />
    <glyph glyph-name="p" unicode="p" horiz-adv-x="717" 
d="M285 20v-220.003h-228v733h162l21 -53c48 44.667 108.667 67 182 67c53.333 0 100.333 -11.833 141 -35.5s72.334 -56.667 95.001 -99s34 -91.166 34 -146.499s-11.333 -104.166 -34 -146.499s-54.334 -75.166 -95.001 -98.499s-87.667 -35 -141 -35
c-51.333 0 -97 11.333 -137 34zM305 196.497c17.333 -17.667 40.333 -26.5 69 -26.5s51.834 8.83301 69.501 26.5s26.5 40.834 26.5 69.501s-8.83301 52 -26.5 70s-40.834 27 -69.501 27s-51.667 -8.83301 -69 -26.5s-26 -41.167 -26 -70.5
c0 -28.667 8.66699 -51.834 26 -69.501z" />
    <glyph glyph-name="q" unicode="q" horiz-adv-x="717" 
d="M153.5 21c-41 23.333 -72.833 56.1689 -95.5 98.502s-34 91.166 -34 146.499s11.333 104.166 34 146.499s54.5 75.333 95.5 99s87.833 35.5 140.5 35.5c36.667 0 70.5 -5.66699 101.5 -17s58.167 -28 81.5 -50l20 53h163v-733h-228v220c-40 -22.667 -86 -34 -138 -34
c-52.667 0 -99.5 11.667 -140.5 35zM272.5 196.503c17.667 -17.667 40.834 -26.5 69.501 -26.5s51.834 8.83301 69.501 26.5s26.5 40.834 26.5 69.501s-8.83301 52 -26.5 70s-40.834 27 -69.501 27s-51.834 -9 -69.501 -27s-26.5 -41.333 -26.5 -70
s8.83301 -51.834 26.5 -69.501z" />
    <glyph glyph-name="r" unicode="r" horiz-adv-x="492" 
d="M57 533l162 0.000976562l25 -65c17.333 22.667 38.5 39.167 63.5 49.5s54.833 15.5 89.5 15.5h68v-203h-70c-38.667 0 -66.667 -9.33301 -84 -28s-26 -47.334 -26 -86.001v-216h-228v533z" />
    <glyph glyph-name="s" unicode="s" horiz-adv-x="572" 
d="M94.5 36c-47 34 -70.499 80.332 -70.499 138.999h220c0 -13.333 4.16699 -24.333 12.5 -33s19.166 -13 32.499 -13c11.333 0 20.333 2.83301 27 8.5s10 13.167 10 22.5c0 12 -7.33301 21.833 -22 29.5s-39 13.834 -73 18.501c-69.333 10 -120.5 28.667 -153.5 56
s-49.5 64.666 -49.5 111.999c0 55.333 21.833 97.666 65.5 126.999s106.834 44 189.501 44c79.333 0 140.666 -15.667 183.999 -47s66.666 -77.333 69.999 -138h-212c-0.666992 14 -5 24.667 -13 32s-19 11 -33 11c-11.333 0 -20.166 -2.66699 -26.499 -8
s-9.5 -12.666 -9.5 -21.999c0 -12 7 -21.333 21 -28s40.333 -13 79 -19c68 -10 118.833 -29 152.5 -57s50.5 -65.333 50.5 -112c0 -55.333 -22.667 -98.166 -68 -128.499s-109.333 -45.5 -192 -45.5c-80.667 0 -144.5 17 -191.5 51z" />
    <glyph glyph-name="t" unicode="t" horiz-adv-x="499" 
d="M168.5 53.5c-39.667 35.667 -59.498 88.833 -59.498 159.5v144h-95v176h47c21.333 0 37.666 2 48.999 6s19.833 11.167 25.5 21.5s10.167 25.5 13.5 45.5l11 67h177v-140h122v-175h-122v-99c0 -25.333 6.16699 -43.833 18.5 -55.5s31.833 -17.5 58.5 -17.5h51v-186h-119
c-78.667 -0 -137.834 17.833 -177.501 53.5z" />
    <glyph glyph-name="u" unicode="u" horiz-adv-x="686" 
d="M107.5 47c-39.667 41.333 -59.499 97.6689 -59.499 169.002v317h228v-289c0 -24.667 5.33301 -43.334 16 -56.001s26 -19 46 -19s35.667 6.66699 47 20s17 32.666 17 57.999v286h228v-533h-163l-22 56c-20.667 -22.667 -46 -40.167 -76 -52.5s-63 -18.5 -99 -18.5
c-68.667 0 -122.834 20.667 -162.501 62z" />
    <glyph glyph-name="v" unicode="v" horiz-adv-x="660" 
d="M3 533h246l48 -171l32 -120h3l32 120l48 171h245l-207 -533h-240z" />
    <glyph glyph-name="w" unicode="w" horiz-adv-x="988" 
d="M3 533h235l38 -133l42 -133h3l42 133l38 133h186l38 -133l41 -133h4l42 133l39 133h234l-188 -533h-221l-80 255h-4l-80 -255h-220z" />
    <glyph glyph-name="x" unicode="x" horiz-adv-x="672" 
d="M187 271l-164 262h248l33 -64l30 -61h4l30 61l33 64h246l-162 -262l171 -271h-253l-33 64l-32 65h-4l-32 -65l-33 -64h-253z" />
    <glyph glyph-name="y" unicode="y" horiz-adv-x="660" 
d="M77 -24h74.999c20.667 0 36.334 3.16699 47.001 9.5s19 16.833 25 31.5l-221 516h248l48 -147l37 -116h3l32 116l43 147h243l-228 -578c-16 -42.667 -34.333 -75.667 -55 -99s-46.667 -39.833 -78 -49.5s-72.333 -14.5 -123 -14.5h-96v184z" />
    <glyph glyph-name="z" unicode="z" horiz-adv-x="549" 
d="M29 145l204 215l-1 3l-56 -2h-140v172h479v-143l-204 -217l1 -3l64 2h144v-172h-491v145z" />
    <glyph glyph-name="braceleft" unicode="{" horiz-adv-x="522" 
d="M187 -109c-29.333 29.333 -44 71.666 -44 126.999v127c0 38 -19 57 -57 57h-25v196h25c38 0 57 19 57 57v127c0 55.333 14.667 97.666 44 126.999s71.666 44 126.999 44h171v-196h-63c-19.333 0 -33.666 -4.66699 -42.999 -14s-14 -23.666 -14 -42.999v-85
c0 -58 -23 -96.333 -69 -115v-2c46 -17.333 69 -55.666 69 -114.999v-83c0 -20 4.66699 -34.5 14 -43.5s23.666 -13.5 42.999 -13.5h63v-196h-171c-55.333 0 -97.666 14.667 -126.999 44z" />
    <glyph glyph-name="bar" unicode="|" horiz-adv-x="357" 
d="M75 800h207v-936h-207v936z" />
    <glyph glyph-name="braceright" unicode="}" horiz-adv-x="522" 
d="M335 709c29.333 -29.333 44 -71.666 44 -126.999v-127c0 -38 19 -57 57 -57h25v-196h-25c-38 0 -57 -19 -57 -57v-127c0 -55.333 -14.667 -97.666 -44 -126.999s-71.666 -44 -126.999 -44h-171v196h63c19.333 0 33.666 4.66699 42.999 14s14 23.666 14 42.999v85
c0 58 23 96.333 69 115v2c-46 17.333 -69 55.666 -69 114.999v83c0 20 -4.66699 34.5 -14 43.5s-23.666 13.5 -42.999 13.5h-63v196h171c55.333 0 97.666 -14.667 126.999 -44z" />
    <glyph glyph-name="asciitilde" unicode="~" horiz-adv-x="673" 
d="M385.5 226c-17 6.66699 -36.167 16.334 -57.5 29.001c-12 7.33301 -21.833 12.833 -29.5 16.5s-15.167 5.5 -22.5 5.5c-10.667 0 -18.667 -4.33301 -24 -13s-8 -22.334 -8 -41.001h-178c0 148 52.333 222 157 222c25.333 0 47 -3.5 65 -10.5s37 -16.833 57 -29.5
c2 -1.33301 7 -4.16602 15 -8.49902s15 -7.5 21 -9.5s11.333 -3 16 -3c10.667 0 18.667 4.16699 24 12.5s8 22.166 8 41.499h178c0 -148 -53 -222 -159 -222c-24.667 0 -45.5 3.33301 -62.5 10z" />
    <glyph glyph-name="uni00A0" unicode="&#xa0;" horiz-adv-x="223" 
 />
    <glyph glyph-name="exclamdown" unicode="&#xa1;" horiz-adv-x="318" 
d="M276 -211h-234l12 439h210zM72.5 470c22.333 21.333 51.166 32 86.499 32c34.667 0 63.167 -10.667 85.5 -32s33.5 -48.666 33.5 -81.999s-11.167 -60.666 -33.5 -81.999s-50.833 -32 -85.5 -32c-35.333 0 -64.166 10.667 -86.499 32s-33.5 48.666 -33.5 81.999
s11.167 60.666 33.5 81.999z" />
    <glyph glyph-name="cent" unicode="&#xa2;" horiz-adv-x="667" 
d="M244 -5c-67.333 15.333 -120.83 47.335 -160.497 96.002s-59.5 107 -59.5 175s20 126.333 60 175s93.667 80.667 161 96v103h169v-101c63.333 -12.667 115 -39.167 155 -79.5s64 -90.833 72 -151.5h-211c-8.66699 18 -20.834 31.667 -36.501 41s-33.834 14 -54.501 14
c-28 0 -50.5 -8.83301 -67.5 -26.5s-25.5 -41.167 -25.5 -70.5c0 -28.667 8.5 -51.834 25.5 -69.501s39.5 -26.5 67.5 -26.5c22 0 41.167 5.5 57.5 16.5s28.166 26.167 35.499 45.5h212c-8 -62.667 -32 -114.834 -72 -156.501s-92 -69.167 -156 -82.5v-106h-172v108z" />
    <glyph glyph-name="sterling" unicode="&#xa3;" horiz-adv-x="653" 
d="M171 650c46 43.333 108.335 65.001 187.002 65.001s141.834 -21.5 189.501 -64.5s72.167 -103.5 73.5 -181.5h-179c-0.666992 20.667 -7.33398 37.167 -20.001 49.5s-29.334 18.5 -50.001 18.5c-22.667 0 -40.334 -7 -53.001 -21s-19 -33.333 -19 -58v-44h233v-154h-233
v-80h332v-180h-599v180h69v77h-69v164h69v48c0 77.333 23 137.666 69 180.999z" />
    <glyph glyph-name="currency" unicode="&#xa4;" horiz-adv-x="707" 
d="M218 73l-75.999 -76.001l-100 100l78 78c-14 30 -21 62.333 -21 97s7 66.334 21 95.001l-78 78l100 100l76 -75c40 22 86 33 138 33c49.333 0 94.333 -10.667 135 -32l75 74l100 -100l-77 -77c14 -28.667 21 -60.667 21 -96c0 -34 -7.33301 -66.333 -22 -97l78 -78
l-100 -100l-76 75c-40.667 -21.333 -85.334 -32 -134.001 -32c-51.333 0 -97.333 11 -138 33zM296.501 214.499c15 -15.667 34.5 -23.5 58.5 -23.5c23.333 0 42.5 7.83301 57.5 23.5s22.5 34.834 22.5 57.501s-7.5 41.667 -22.5 57s-34.167 23 -57.5 23
c-24 0 -43.5 -7.66699 -58.5 -23s-22.5 -34.333 -22.5 -57s7.5 -41.834 22.5 -57.501z" />
    <glyph glyph-name="yen" unicode="&#xa5;" horiz-adv-x="745" 
d="M252 78h-150v116h150v38h-150v116h98l-197 352h269l59 -133l40 -103h3l41 103l59 133h268l-197 -352h99v-116h-150v-38h150v-116h-150v-78h-242v78z" />
    <glyph glyph-name="brokenbar" unicode="&#xa6;" horiz-adv-x="357" 
d="M75 740h207v-388h-207v388zM75 255h207v-391h-207v391z" />
    <glyph glyph-name="section" unicode="&#xa7;" horiz-adv-x="564" 
d="M94 32c-44.667 31.333 -67.001 74.332 -67.001 128.999h213c-0.666992 -12.667 3.5 -22.667 12.5 -30s20.167 -11 33.5 -11c12 0 21.333 2.5 28 7.5s10 11.833 10 20.5c0 22 -29 37.333 -87 46c-69.333 10 -120.333 27.667 -153 53s-49 59.666 -49 102.999
c0 20 4.16699 39.5 12.5 58.5s19.833 35.5 34.5 49.5c-17.333 13.333 -29.5 27.666 -36.5 42.999s-10.5 32.666 -10.5 51.999c0 30.667 9 58.334 27 83.001s45.167 44.334 81.5 59.001s80.833 22 133.5 22c76 0 135.333 -14.167 178 -42.5s65.667 -70.833 69 -127.5h-207
c-0.666992 9.33301 -4.5 17.5 -11.5 24.5s-16.833 10.5 -29.5 10.5c-11.333 0 -20.333 -2.66699 -27 -8s-10 -12 -10 -20c0 -7.33301 2.16699 -13.333 6.5 -18s13.333 -9 27 -13s33.834 -8.33301 60.501 -13c68 -10.667 118.5 -30.5 151.5 -59.5s49.5 -63.833 49.5 -104.5
c0 -21.333 -3.66699 -40.166 -11 -56.499s-18.666 -33.166 -33.999 -50.499c31.333 -24.667 47 -56 47 -94c0 -50.667 -22.333 -90 -67 -118s-106.334 -42 -185.001 -42c-82 0 -145.333 15.667 -190 47zM246.999 337.999c10 -6 28.333 -12.667 55 -20l26 -7
c6.66699 7.33301 10 16 10 26c0 12 -5.83301 21.5 -17.5 28.5s-31.5 13.833 -59.5 20.5l-18 5c-7.33301 -7.33301 -11 -16.333 -11 -27c0 -11.333 5 -20 15 -26z" />
    <glyph glyph-name="dieresis" unicode="&#xa8;" horiz-adv-x="522" 
d="M312 622.5c-17.333 17 -26 39.167 -26 66.5s8.66699 49.5 26 66.5s39.666 25.5 66.999 25.5s49.666 -8.5 66.999 -25.5s26 -39.167 26 -66.5s-8.66699 -49.5 -26 -66.5s-39.666 -25.5 -66.999 -25.5s-49.666 8.5 -66.999 25.5zM76 755.5
c17.333 17 39.666 25.5 66.999 25.5s49.5 -8.5 66.5 -25.5s25.5 -39.167 25.5 -66.5s-8.5 -49.5 -25.5 -66.5s-39.167 -25.5 -66.5 -25.5s-49.666 8.5 -66.999 25.5s-26 39.167 -26 66.5s8.66699 49.5 26 66.5z" />
    <glyph glyph-name="copyright" unicode="&#xa9;" horiz-adv-x="865" 
d="M222 34c-61.333 32.667 -109.166 78.167 -143.499 136.5s-51.5 124.833 -51.5 199.5s17.167 141.167 51.5 199.5s82.166 103.833 143.499 136.5s131.666 49 210.999 49s149.666 -16.333 210.999 -49s109.166 -78.167 143.499 -136.5s51.5 -124.833 51.5 -199.5
s-17.167 -141.167 -51.5 -199.5s-82.166 -103.833 -143.499 -136.5s-131.666 -49 -210.999 -49s-149.666 16.333 -210.999 49zM191.5 233.5c23 -39.667 55.335 -70.334 97.002 -92.001s89.834 -32.5 144.501 -32.5s102.667 10.833 144 32.5s73.5 52.334 96.5 92.001
s34.5 85.167 34.5 136.5s-11.333 96.833 -34 136.5s-54.834 70.334 -96.501 92.001s-89.834 32.5 -144.501 32.5s-102.834 -10.833 -144.501 -32.5s-74 -52.334 -97 -92.001s-34.5 -85.167 -34.5 -136.5s11.5 -96.833 34.5 -136.5zM246.002 474.5
c18 30.333 43.333 54.002 76 71.002s70 25.5 112 25.5c58 0 106.333 -15.333 145 -46s61 -71.667 67 -123h-145c-14.667 24.667 -35.667 37 -63 37c-18.667 0 -33.834 -6.16699 -45.501 -18.5s-17.5 -28.833 -17.5 -49.5s5.83301 -37.334 17.5 -50.001
s26.834 -19 45.501 -19c14.667 0 27.667 3.83301 39 11.5s20 18.5 26 32.5h146c-6.66699 -53.333 -29.5 -96 -68.5 -128s-87.833 -48 -146.5 -48c-42 0 -79.333 8.5 -112 25.5s-58 40.667 -76 71s-27 65.166 -27 104.499c0 38.667 9 73.167 27 103.5z" />
    <glyph glyph-name="ordfeminine" unicode="&#xaa;" horiz-adv-x="440" 
d="M65.5 373c-23.667 19.333 -35.499 45.334 -35.499 78.001c0 30.667 11 55.834 33 75.501s51.667 29.5 89 29.5h97v15c0 11.333 -2.83301 20.5 -8.5 27.5s-13.5 10.5 -23.5 10.5c-9.33301 0 -17 -2.66699 -23 -8s-9.33301 -12.333 -10 -21h-139
c5.33301 39.333 23.166 70.166 53.499 92.499s70.5 33.5 120.5 33.5c57.333 0 101.333 -13.833 132 -41.5s46 -66.834 46 -117.501v-197h-110l-13 35c-28.667 -27.333 -66.667 -41 -114 -41c-39.333 0 -70.833 9.66699 -94.5 29zM184.001 445.501
c6 -3.66699 13.001 -5.50098 21.001 -5.50098c14 0 25.167 3.83301 33.5 11.5s12.5 18.834 12.5 33.501h-46c-8.66699 0 -15.834 -2 -21.501 -6s-8.5 -9.66699 -8.5 -17s3 -12.833 9 -16.5z" />
    <glyph glyph-name="guillemotleft" unicode="&#xab;" horiz-adv-x="874" 
d="M63 278l147 234h265l-147 -234l148 -234h-265zM426 278l147 234h265l-147 -234l148 -234h-265z" />
    <glyph glyph-name="logicalnot" unicode="&#xac;" horiz-adv-x="614" 
d="M345 240h-279v189h481v-310h-202v121z" />
    <glyph glyph-name="uni00AD" unicode="&#xad;" horiz-adv-x="446" 
d="M50 326h346v-150h-346v150z" />
    <glyph glyph-name="registered" unicode="&#xae;" horiz-adv-x="619" 
d="M162.5 263.5c-43 24.333 -76.5 57.5 -100.5 99.5s-36 88.333 -36 139s12 97 36 139s57.5 75.333 100.5 100s92.167 37 147.5 37c54.667 0 103.5 -12.333 146.5 -37s76.5 -58 100.5 -100s36 -88.333 36 -139s-12 -97 -36 -139s-57.5 -75.167 -100.5 -99.5
s-91.833 -36.5 -146.5 -36.5c-55.333 0 -104.5 12.167 -147.5 36.5zM179.5 375c32.333 -32.667 75.833 -49 130.5 -49c54 0 97.333 16.333 130 49s49 75 49 127s-16.333 94.5 -49 127.5s-76 49.5 -130 49.5c-54.667 0 -98.167 -16.5 -130.5 -49.5s-48.5 -75.5 -48.5 -127.5
s16.167 -94.333 48.5 -127zM210 629l117.001 0.00195312c31.333 0 55.666 -7.83301 72.999 -23.5s26 -36.834 26 -63.501c0 -30.667 -11.333 -54.334 -34 -71.001l39 -86h-99l-25 68h-10v-68h-87v244zM311.001 521.002c16 0 24 7 24 21c0 6 -2 10.833 -6 14.5
s-10 5.5 -18 5.5h-16v-41h16z" />
    <glyph glyph-name="macron" unicode="&#xaf;" horiz-adv-x="442" 
d="M50 731h342v-121h-342v121z" />
    <glyph glyph-name="degree" unicode="&#xb0;" horiz-adv-x="371" 
d="M64.5 491c-30.333 27.333 -45.5 63 -45.5 107s15.167 79.667 45.5 107s70.5 41 120.5 41c50.667 0 91.167 -13.667 121.5 -41s45.5 -63 45.5 -107s-15.167 -79.667 -45.5 -107s-70.833 -41 -121.5 -41c-50 0 -90.167 13.667 -120.5 41zM147.5 560.5
c9.66699 -9.66699 22.167 -14.5 37.5 -14.5s27.833 4.83301 37.5 14.5s14.5 22.167 14.5 37.5s-4.83301 27.833 -14.5 37.5s-22.167 14.5 -37.5 14.5s-27.833 -4.83301 -37.5 -14.5s-14.5 -22.167 -14.5 -37.5s4.83301 -27.833 14.5 -37.5z" />
    <glyph glyph-name="plusminus" unicode="&#xb1;" horiz-adv-x="577" 
d="M66 539h127v120h190v-120h127v-168h-127v-119h-190v119h-127v168zM66 202h444v-168l-444 -2v170z" />
    <glyph glyph-name="uni00B2" unicode="&#xb2;" horiz-adv-x="357" 
d="M28 562l144 101c10 7.33301 15 16 15 26c0 6 -1.83301 11 -5.5 15s-8.5 6 -14.5 6c-14.667 0 -22 -9 -22 -27h-117c2 44 15.167 77.5 39.5 100.5s59.5 34.5 105.5 34.5c42.667 0 76.5 -10.333 101.5 -31s37.5 -48.667 37.5 -84c0 -20 -4.66699 -37.5 -14 -52.5
s-24 -29.833 -44 -44.5l-38 -29l1 -3l49 3h51v-115h-289v100z" />
    <glyph glyph-name="uni00B3" unicode="&#xb3;" horiz-adv-x="353" 
d="M63.5 488c-26.333 21.333 -40.168 52.333 -41.501 93h127c0.666992 -14.667 8.33398 -22 23.001 -22c6.66699 0 12 1.83301 16 5.5s6 8.83398 6 15.501s-2.16699 12 -6.5 16s-9.83301 6 -16.5 6h-65v69l44 38v2l-38 -1h-76v102h270v-89l-57 -48
c22.667 -7.33301 40.667 -20.333 54 -39s20 -40.334 20 -65.001c0 -35.333 -13 -63.333 -39 -84s-61.333 -31 -106 -31c-50 0 -88.167 10.667 -114.5 32z" />
    <glyph glyph-name="acute" unicode="&#xb4;" horiz-adv-x="334" 
d="M106 763h178l-84 -166h-150z" />
    <glyph glyph-name="uni00B5" unicode="&#xb5;" horiz-adv-x="697" 
d="M57 533h227.999v-290c0 -24 5.5 -42.333 16.5 -55s26.5 -19 46.5 -19s35.667 6.33301 47 19s17 31 17 55v290h228v-533h-163l-15 39c-12.667 -16.667 -28.667 -29.167 -48 -37.5s-40 -12.5 -62 -12.5c-29.333 0 -55.666 6.33301 -78.999 19v-208h-216v733z" />
    <glyph glyph-name="paragraph" unicode="&#xb6;" horiz-adv-x="764" 
d="M215 242c-64.667 10.667 -113.333 37.5 -146 80.5s-49 92.167 -49 147.5c0 40.667 9 78.5 27 113.5s46 63.167 84 84.5s85 32 141 32h147v-844h-204v386zM497.001 700h204v-844h-204v844z" />
    <glyph glyph-name="periodcentered" unicode="&#xb7;" horiz-adv-x="286" 
d="M56.5 219c-22.333 21.333 -33.5 48.666 -33.5 81.999c0 34 11.167 61.667 33.5 83s51.166 32 86.499 32s64 -10.667 86 -32s33 -49 33 -83c0 -33.333 -11.167 -60.666 -33.5 -81.999s-50.833 -32 -85.5 -32c-35.333 0 -64.166 10.667 -86.499 32z" />
    <glyph glyph-name="cedilla" unicode="&#xb8;" horiz-adv-x="339" 
d="M50 -161l88 0.000976562c18 0 27 6.66699 27 20c0 14 -9 21 -27 21h-46l-26 35l34 109h109l-20 -62c32 -4.66699 56.667 -17.334 74 -38.001s26 -46 26 -76c0 -34.667 -11.167 -62.667 -33.5 -84s-53.833 -32 -94.5 -32h-111v107z" />
    <glyph glyph-name="uni00B9" unicode="&#xb9;" horiz-adv-x="281" 
d="M88 648h-71.001v112h39c16 0 28.833 2.66699 38.5 8s16.834 15 21.501 29l5 15h108v-350h-141v186z" />
    <glyph glyph-name="ordmasculine" unicode="&#xba;" horiz-adv-x="454" 
d="M78.5 392.5c-37.667 32.333 -56.5 76.5 -56.5 132.5c0 55.333 18.833 99.333 56.5 132s87.167 49 148.5 49s111 -16.333 149 -49s57 -76.667 57 -132c0 -56 -18.833 -100.167 -56.5 -132.5s-87.5 -48.5 -149.5 -48.5c-61.333 0 -110.833 16.167 -148.5 48.5zM184.5 482
c11 -10.667 25.167 -16 42.5 -16c18 0 32.333 5.33301 43 16s16 25 16 43s-5.5 32.333 -16.5 43s-25.167 16 -42.5 16s-31.5 -5.33301 -42.5 -16s-16.5 -25 -16.5 -43s5.5 -32.333 16.5 -43z" />
    <glyph glyph-name="guillemotright" unicode="&#xbb;" horiz-adv-x="874" 
d="M811 278l-147 -234h-265l147 234l-148 234h265zM299 512l148 -234l-147 -234h-265l147 234l-148 234h265z" />
    <glyph glyph-name="onequarter" unicode="&#xbc;" horiz-adv-x="889" 
d="M88 536h-71.001v112h39c16 0 28.833 2.66699 38.5 8s16.834 15 21.501 29l5 15h108v-350h-141v186zM531.999 700h164l-435 -700h-164zM711.999 55h-183v81l96 214h144l-85 -188h44l14 73h94v-69h40v-111h-40v-55h-124v55z" />
    <glyph glyph-name="onehalf" unicode="&#xbd;" horiz-adv-x="870" 
d="M88 536h-71.001v112h39c16 0 28.833 2.66699 38.5 8s16.834 15 21.501 29l5 15h108v-350h-141v186zM531.999 700h164l-435 -700h-164zM540.999 100l144 101c10 7.33301 15 16 15 26c0 6 -1.83301 11 -5.5 15s-8.5 6 -14.5 6c-14.667 0 -22 -9 -22 -27h-117
c2 44 15.167 77.5 39.5 100.5s59.5 34.5 105.5 34.5c42.667 0 76.5 -10.333 101.5 -31s37.5 -48.667 37.5 -84c0 -20 -4.66699 -37.5 -14 -52.5s-24 -29.833 -44 -44.5l-38 -29l1 -3l49 3h51v-115h-289v100z" />
    <glyph glyph-name="threequarters" unicode="&#xbe;" horiz-adv-x="961" 
d="M63.5 376c-26.333 21.333 -40.168 52.333 -41.501 93h127c0.666992 -14.667 8.33398 -22 23.001 -22c6.66699 0 12 1.83301 16 5.5s6 8.83398 6 15.501s-2.16699 12 -6.5 16s-9.83301 6 -16.5 6h-65v69l44 38v2l-38 -1h-76v102h270v-89l-57 -48
c22.667 -7.33301 40.667 -20.333 54 -39s20 -40.334 20 -65.001c0 -35.333 -13 -63.333 -39 -84s-61.333 -31 -106 -31c-50 0 -88.167 10.667 -114.5 32zM603.998 700h164l-435 -700h-164zM783.998 55h-183v81l96 214h144l-85 -188h44l14 73h94v-69h40v-111h-40v-55h-124v55
z" />
    <glyph glyph-name="questiondown" unicode="&#xbf;" horiz-adv-x="581" 
d="M385 96c-16 -22 -43.9961 -40.666 -83.9961 -55.999c-22.667 -8.66699 -38.834 -17.334 -48.501 -26.001s-14.5 -19.334 -14.5 -32.001c0 -14 5 -24.833 15 -32.5s24.333 -11.5 43 -11.5c41.333 0 62.333 20 63 60h200c-2.66699 -70 -27.834 -124.667 -75.501 -164
s-112.5 -59 -194.5 -59c-52.667 0 -98.834 8.5 -138.501 25.5s-70.334 41 -92.001 72s-32.5 67.167 -32.5 108.5c0 36 9 66.833 27 92.5s45.667 46.834 83 63.501c22.667 10 39.167 20.667 49.5 32s15.5 24.333 15.5 39v18h208v-37c0 -40 -8 -71 -24 -93zM218.504 471.001
c22.333 21.333 51.166 32 86.499 32c34.667 0 63.167 -10.667 85.5 -32s33.5 -48.666 33.5 -81.999s-11.167 -60.666 -33.5 -81.999s-50.833 -32 -85.5 -32c-35.333 0 -64.166 10.667 -86.499 32s-33.5 48.666 -33.5 81.999s11.167 60.666 33.5 81.999z" />
    <glyph glyph-name="Agrave" unicode="&#xc0;" horiz-adv-x="779" 
d="M263 700h252l261 -700h-254l-31 87h-205l-31 -87h-252zM406 919l56 -154h-150l-84 154h178zM453 247l-62 192h-4l-61 -192h127z" />
    <glyph glyph-name="Aacute" unicode="&#xc1;" horiz-adv-x="779" 
d="M263 700h252l261 -700h-254l-31 87h-205l-31 -87h-252zM371 919h178l-83 -154h-150zM453 247l-62 192h-4l-61 -192h127z" />
    <glyph glyph-name="Acircumflex" unicode="&#xc2;" horiz-adv-x="779" 
d="M263 700h252l261 -700h-254l-31 87h-205l-31 -87h-252zM308 919h162l125 -154h-159l-47 51l-47 -51h-160zM453 247l-62 192h-4l-61 -192h127z" />
    <glyph glyph-name="Atilde" unicode="&#xc3;" horiz-adv-x="779" 
d="M263 700h252l261 -700h-254l-31 87h-205l-31 -87h-252zM207 800c0 38 9.00195 67.167 27.002 87.5s44 30.5 78 30.5c16.667 0 31 -2.16699 43 -6.5s24 -10.166 36 -17.499c15.333 -9.33301 27.666 -14 36.999 -14c12.667 0 19 7.33301 19 22v13h124v-31
c0 -38.667 -8.83301 -68 -26.5 -88s-43.834 -30 -78.501 -30c-16.667 0 -31 2.16699 -43 6.5s-24 10.166 -36 17.499c-8 4.66699 -14.5 8.16699 -19.5 10.5s-10.5 3.5 -16.5 3.5c-13.333 0 -20 -7.33301 -20 -22v-13h-124v31zM453.002 247l-62 192h-4l-61 -192h127z" />
    <glyph glyph-name="Adieresis" unicode="&#xc4;" horiz-adv-x="779" 
d="M263 700h252l261 -700h-254l-31 87h-205l-31 -87h-252zM199.5 920.5c17.667 17.667 40.5 26.5 68.5 26.5s50.833 -8.83301 68.5 -26.5s26.5 -40.5 26.5 -68.5s-8.83301 -50.667 -26.5 -68s-40.5 -26 -68.5 -26s-50.833 8.66699 -68.5 26s-26.5 40 -26.5 68
s8.83301 50.833 26.5 68.5zM453 247l-62 192h-4l-61 -192h127zM441.5 921c17.667 17.333 40.5 26 68.5 26s50.667 -8.66699 68 -26s26 -40.333 26 -69c0 -28 -8.66699 -50.667 -26 -68s-40 -26 -68 -26s-50.833 8.66699 -68.5 26s-26.5 40 -26.5 68
c0 28.667 8.83301 51.667 26.5 69z" />
    <glyph glyph-name="Aring" unicode="&#xc5;" horiz-adv-x="779" 
d="M263 700h252l261 -700h-254l-31 87h-205l-31 -87h-252zM289 950c25.333 22.667 58.666 34 99.999 34s74.666 -11.333 99.999 -34s38 -52.334 38 -89.001s-12.667 -66.334 -38 -89.001s-58.666 -34 -99.999 -34s-74.666 11.333 -99.999 34s-38 52.334 -38 89.001
s12.667 66.334 38 89.001zM453 247l-62 192h-4l-61 -192h127zM362.5 835c7 -6.66699 15.833 -10 26.5 -10s19.334 3.33301 26.001 10s10 15.334 10 26.001c0 11.333 -3.33301 20.333 -10 27s-15.334 10 -26.001 10s-19.5 -3.33301 -26.5 -10s-10.5 -15.667 -10.5 -27
c0 -10.667 3.5 -19.334 10.5 -26.001z" />
    <glyph glyph-name="AE" unicode="&#xc6;" horiz-adv-x="1013" 
d="M377 700h588v-179h-247v-81h220v-174h-220v-84h256v-182h-482v81h-183l-43 -81h-263zM492 241v227h-3l-115 -227h118z" />
    <glyph glyph-name="Ccedilla" unicode="&#xc7;" horiz-adv-x="800" 
d="M300 -169l93 0.00195312c18 0 27 7.33301 27 22c0 14 -9 21 -27 21h-49l-27 37l25 77c-63.333 7.33301 -118.666 27.166 -165.999 59.499s-84 74.5 -110 126.5s-39 110.667 -39 176c0 71.333 15.5 134.666 46.5 189.999s74.5 98.333 130.5 129s120 46 192 46
c66.667 0 126.5 -12.333 179.5 -37s96.333 -60.167 130 -106.5s55.834 -100.833 66.501 -163.5h-237c-9.33301 26.667 -25.5 47.834 -48.5 63.501s-49.5 23.5 -79.5 23.5c-40.667 0 -73.5 -13.333 -98.5 -40s-37.5 -61.667 -37.5 -105c0 -42.667 12.5 -77.5 37.5 -104.5
s57.167 -40.5 96.5 -40.5c31.333 0 58.666 8 81.999 24s40 38 50 66h238c-11.333 -84.667 -45.833 -154.334 -103.5 -209.001s-130.167 -87.334 -217.5 -98.001l-9 -29c34 -4.66699 60 -17.667 78 -39s27 -47.666 27 -78.999c0 -36 -11.833 -65.167 -35.5 -87.5
s-56.834 -33.5 -99.501 -33.5h-115v111z" />
    <glyph glyph-name="Egrave" unicode="&#xc8;" horiz-adv-x="616" 
d="M63 700h504v-179h-269v-81h243v-174h-243v-84h279v-182h-514v700zM330 919l56 -154h-150l-84 154h178z" />
    <glyph glyph-name="Eacute" unicode="&#xc9;" horiz-adv-x="616" 
d="M63 700h504v-179h-269v-81h243v-174h-243v-84h279v-182h-514v700zM295 919h178l-84 -154h-150z" />
    <glyph glyph-name="Ecircumflex" unicode="&#xca;" horiz-adv-x="616" 
d="M63 700h504v-179h-269v-81h243v-174h-243v-84h279v-182h-514v700zM232 919h162l125 -154h-160l-46 51l-47 -51h-160z" />
    <glyph glyph-name="Edieresis" unicode="&#xcb;" horiz-adv-x="616" 
d="M63 700h504v-179h-269v-81h243v-174h-243v-84h279v-182h-514v700zM123.5 920.5c17.667 17.667 40.5 26.5 68.5 26.5s50.833 -8.83301 68.5 -26.5s26.5 -40.5 26.5 -68.5s-8.83301 -50.667 -26.5 -68s-40.5 -26 -68.5 -26s-50.833 8.66699 -68.5 26s-26.5 40 -26.5 68
s8.83301 50.833 26.5 68.5zM365.5 921c17.667 17.333 40.167 26 67.5 26c28 0 50.833 -8.66699 68.5 -26s26.5 -40.333 26.5 -69c0 -28 -8.83301 -50.667 -26.5 -68s-40.5 -26 -68.5 -26s-50.667 8.66699 -68 26s-26 40 -26 68c0 28.667 8.83301 51.667 26.5 69z" />
    <glyph glyph-name="Igrave" unicode="&#xcc;" horiz-adv-x="367" 
d="M63 700h242v-700h-242v700zM201 919l56 -154h-150l-84 154h178z" />
    <glyph glyph-name="Iacute" unicode="&#xcd;" horiz-adv-x="367" 
d="M63 700h242v-700h-242v700zM166 919h178l-83 -154h-150z" />
    <glyph glyph-name="Icircumflex" unicode="&#xce;" horiz-adv-x="367" 
d="M63 700h242v-700h-242v700zM103 919h162l115 -154h-159l-37 50l-37 -50h-160z" />
    <glyph glyph-name="Idieresis" unicode="&#xcf;" horiz-adv-x="367" 
d="M63 700h242v-700h-242v700zM-5.5 920.5c17.667 17.667 40.5 26.5 68.5 26.5s50.833 -8.83301 68.5 -26.5s26.5 -40.5 26.5 -68.5s-8.83301 -50.667 -26.5 -68s-40.5 -26 -68.5 -26s-50.833 8.66699 -68.5 26s-26.5 40 -26.5 68s8.83301 50.833 26.5 68.5zM236.5 921
c17.667 17.333 40.5 26 68.5 26s50.667 -8.66699 68 -26s26 -40.333 26 -69c0 -28 -8.66699 -50.667 -26 -68s-40 -26 -68 -26s-50.833 8.66699 -68.5 26s-26.5 40 -26.5 68c0 28.667 8.83301 51.667 26.5 69z" />
    <glyph glyph-name="Eth" unicode="&#xd0;" horiz-adv-x="823" 
d="M98 259h-91v179h91v262h315c76.667 0 144 -14.333 202 -43s102.833 -69.5 134.5 -122.5s47.5 -114.5 47.5 -184.5s-15.833 -131.333 -47.5 -184s-76.5 -93.5 -134.5 -122.5s-125.333 -43.5 -202 -43.5h-315v259zM405 203c46 0 83 13 111 39s42 62 42 108s-14 82 -42 108
s-65 39 -111 39h-73v-71h105v-152h-105v-71h73z" />
    <glyph glyph-name="Ntilde" unicode="&#xd1;" horiz-adv-x="784" 
d="M63 700h196l224 -302h4l-2 89v213h237v-700h-196l-225 305h-3l2 -92v-213h-237v700zM209 800c0 38 9.00195 67.167 27.002 87.5s44 30.5 78 30.5c16.667 0 31 -2.16699 43 -6.5s24 -10.166 36 -17.499c15.333 -9.33301 27.666 -14 36.999 -14c12.667 0 19 7.33301 19 22
v13h124v-31c0 -38.667 -8.83301 -68 -26.5 -88s-43.834 -30 -78.501 -30c-16.667 0 -31 2.16699 -43 6.5s-24 10.166 -36 17.499c-8 4.66699 -14.5 8.16699 -19.5 10.5s-10.5 3.5 -16.5 3.5c-13.333 0 -20 -7.33301 -20 -22v-13h-124v31z" />
    <glyph glyph-name="Ograve" unicode="&#xd2;" horiz-adv-x="828" 
d="M213 31.5c-58.667 31 -104.334 74.167 -137.001 129.5s-49 118.333 -49 189s16.333 133.667 49 189s78.334 98.5 137.001 129.5s125.667 46.5 201 46.5c76 0 143.333 -15.5 202 -46.5s104.334 -74.167 137.001 -129.5s49 -118.333 49 -189s-16.333 -133.667 -49 -189
s-78.334 -98.5 -137.001 -129.5s-126 -46.5 -202 -46.5c-75.333 0 -142.333 15.5 -201 46.5zM432 919l55 -154h-150l-83 154h178zM311 245.5c26.667 -27 61 -40.5 103 -40.5s76.5 13.5 103.5 40.5s40.5 61.833 40.5 104.5s-13.5 77.5 -40.5 104.5s-61.5 40.5 -103.5 40.5
s-76.333 -13.5 -103 -40.5s-40 -61.833 -40 -104.5s13.333 -77.5 40 -104.5z" />
    <glyph glyph-name="Oacute" unicode="&#xd3;" horiz-adv-x="828" 
d="M213 31.5c-58.667 31 -104.334 74.167 -137.001 129.5s-49 118.333 -49 189s16.333 133.667 49 189s78.334 98.5 137.001 129.5s125.667 46.5 201 46.5c76 0 143.333 -15.5 202 -46.5s104.334 -74.167 137.001 -129.5s49 -118.333 49 -189s-16.333 -133.667 -49 -189
s-78.334 -98.5 -137.001 -129.5s-126 -46.5 -202 -46.5c-75.333 0 -142.333 15.5 -201 46.5zM311 245.5c26.667 -27 61 -40.5 103 -40.5s76.5 13.5 103.5 40.5s40.5 61.833 40.5 104.5s-13.5 77.5 -40.5 104.5s-61.5 40.5 -103.5 40.5s-76.333 -13.5 -103 -40.5
s-40 -61.833 -40 -104.5s13.333 -77.5 40 -104.5zM397 919h178l-84 -154h-150z" />
    <glyph glyph-name="Ocircumflex" unicode="&#xd4;" horiz-adv-x="828" 
d="M213 31.5c-58.667 31 -104.334 74.167 -137.001 129.5s-49 118.333 -49 189s16.333 133.667 49 189s78.334 98.5 137.001 129.5s125.667 46.5 201 46.5c76 0 143.333 -15.5 202 -46.5s104.334 -74.167 137.001 -129.5s49 -118.333 49 -189s-16.333 -133.667 -49 -189
s-78.334 -98.5 -137.001 -129.5s-126 -46.5 -202 -46.5c-75.333 0 -142.333 15.5 -201 46.5zM333 919h162l126 -154h-160l-47 51l-47 -51h-159zM311 245.5c26.667 -27 61 -40.5 103 -40.5s76.5 13.5 103.5 40.5s40.5 61.833 40.5 104.5s-13.5 77.5 -40.5 104.5
s-61.5 40.5 -103.5 40.5s-76.333 -13.5 -103 -40.5s-40 -61.833 -40 -104.5s13.333 -77.5 40 -104.5z" />
    <glyph glyph-name="Otilde" unicode="&#xd5;" horiz-adv-x="828" 
d="M213 31.5c-58.667 31 -104.334 74.167 -137.001 129.5s-49 118.333 -49 189s16.333 133.667 49 189s78.334 98.5 137.001 129.5s125.667 46.5 201 46.5c76 0 143.333 -15.5 202 -46.5s104.334 -74.167 137.001 -129.5s49 -118.333 49 -189s-16.333 -133.667 -49 -189
s-78.334 -98.5 -137.001 -129.5s-126 -46.5 -202 -46.5c-75.333 0 -142.333 15.5 -201 46.5zM232 800c0 38 9 67.167 27 87.5s44.333 30.5 79 30.5c16.667 0 31 -2.16699 43 -6.5s24 -10.166 36 -17.499c8 -4.66699 14.5 -8.16699 19.5 -10.5s10.5 -3.5 16.5 -3.5
c12.667 0 19 7.33301 19 22v13h125v-31c0 -38.667 -9 -68 -27 -88s-44.333 -30 -79 -30c-16.667 0 -31 2.16699 -43 6.5s-24 10.166 -36 17.499c-8 4.66699 -14.5 8.16699 -19.5 10.5s-10.5 3.5 -16.5 3.5c-12.667 0 -19 -7.33301 -19 -22v-13h-125v31zM311 245.5
c26.667 -27 61 -40.5 103 -40.5s76.5 13.5 103.5 40.5s40.5 61.833 40.5 104.5s-13.5 77.5 -40.5 104.5s-61.5 40.5 -103.5 40.5s-76.333 -13.5 -103 -40.5s-40 -61.833 -40 -104.5s13.333 -77.5 40 -104.5z" />
    <glyph glyph-name="Odieresis" unicode="&#xd6;" horiz-adv-x="828" 
d="M213 31.5c-58.667 31 -104.334 74.167 -137.001 129.5s-49 118.333 -49 189s16.333 133.667 49 189s78.334 98.5 137.001 129.5s125.667 46.5 201 46.5c76 0 143.333 -15.5 202 -46.5s104.334 -74.167 137.001 -129.5s49 -118.333 49 -189s-16.333 -133.667 -49 -189
s-78.334 -98.5 -137.001 -129.5s-126 -46.5 -202 -46.5c-75.333 0 -142.333 15.5 -201 46.5zM225.5 921c17.667 17.333 40.167 26 67.5 26c28 0 50.833 -8.66699 68.5 -26s26.5 -40.333 26.5 -69c0 -28 -8.83301 -50.667 -26.5 -68s-40.5 -26 -68.5 -26
s-50.667 8.66699 -68 26s-26 40 -26 68c0 28.667 8.83301 51.667 26.5 69zM311 245.5c26.667 -27 61 -40.5 103 -40.5s76.5 13.5 103.5 40.5s40.5 61.833 40.5 104.5s-13.5 77.5 -40.5 104.5s-61.5 40.5 -103.5 40.5s-76.333 -13.5 -103 -40.5s-40 -61.833 -40 -104.5
s13.333 -77.5 40 -104.5zM466.5 920.5c17.667 17.667 40.5 26.5 68.5 26.5s50.833 -8.83301 68.5 -26.5s26.5 -40.5 26.5 -68.5s-8.83301 -50.667 -26.5 -68s-40.5 -26 -68.5 -26s-50.833 8.66699 -68.5 26s-26.5 40 -26.5 68s8.83301 50.833 26.5 68.5z" />
    <glyph glyph-name="multiply" unicode="&#xd7;" horiz-adv-x="595" 
d="M298 147l-97 -96l-150 150l96 96l-96 96l152 149l95 -95l95 95l152 -149l-96 -96l96 -96l-151 -150z" />
    <glyph glyph-name="Oslash" unicode="&#xd8;" horiz-adv-x="828" 
d="M139 84c-36 32 -63.667 70.833 -83 116.5s-29 95.5 -29 149.5c0 70.667 16.333 133.667 49 189s78.334 98.5 137.001 129.5s125.667 46.5 201 46.5c40.667 0 78 -4.33301 112 -13l35 52h223l-94 -138c36 -32 63.667 -70.833 83 -116.5s29 -95.5 29 -149.5
c0 -70.667 -16.333 -133.667 -49 -189s-78.334 -98.5 -137.001 -129.5s-126 -46.5 -202 -46.5c-40 0 -77 4.33301 -111 13l-35 -52h-223zM311 245.5c26.667 -27 61 -40.5 103 -40.5s76.5 13.5 103.5 40.5s40.5 61.833 40.5 104.5s-13.5 77.5 -40.5 104.5
s-61.5 40.5 -103.5 40.5s-76.333 -13.5 -103 -40.5s-40 -61.833 -40 -104.5s13.333 -77.5 40 -104.5z" />
    <glyph glyph-name="Ugrave" unicode="&#xd9;" horiz-adv-x="759" 
d="M207.5 21.5c-48.333 24.333 -85.332 59.5 -110.999 105.5s-38.5 100.667 -38.5 164v409h241v-396c0 -64.667 26.667 -97 80 -97s80 32.333 80 97v396h242v-409c0 -63.333 -12.833 -118 -38.5 -164s-62.834 -81.167 -111.501 -105.5s-106 -36.5 -172 -36.5
s-123.167 12.167 -171.5 36.5zM397.001 919l56 -154h-150l-84 154h178z" />
    <glyph glyph-name="Uacute" unicode="&#xda;" horiz-adv-x="759" 
d="M207.5 21.5c-48.333 24.333 -85.332 59.5 -110.999 105.5s-38.5 100.667 -38.5 164v409h241v-396c0 -64.667 26.667 -97 80 -97s80 32.333 80 97v396h242v-409c0 -63.333 -12.833 -118 -38.5 -164s-62.834 -81.167 -111.501 -105.5s-106 -36.5 -172 -36.5
s-123.167 12.167 -171.5 36.5zM362.001 919h178l-84 -154h-150z" />
    <glyph glyph-name="Ucircumflex" unicode="&#xdb;" horiz-adv-x="759" 
d="M207.5 21.5c-48.333 24.333 -85.332 59.5 -110.999 105.5s-38.5 100.667 -38.5 164v409h241v-396c0 -64.667 26.667 -97 80 -97s80 32.333 80 97v396h242v-409c0 -63.333 -12.833 -118 -38.5 -164s-62.834 -81.167 -111.501 -105.5s-106 -36.5 -172 -36.5
s-123.167 12.167 -171.5 36.5zM298.001 919h163l125 -154h-160l-47 51l-46 -51h-160z" />
    <glyph glyph-name="Udieresis" unicode="&#xdc;" horiz-adv-x="759" 
d="M207.5 21.5c-48.333 24.333 -85.332 59.5 -110.999 105.5s-38.5 100.667 -38.5 164v409h241v-396c0 -64.667 26.667 -97 80 -97s80 32.333 80 97v396h242v-409c0 -63.333 -12.833 -118 -38.5 -164s-62.834 -81.167 -111.501 -105.5s-106 -36.5 -172 -36.5
s-123.167 12.167 -171.5 36.5zM190.501 921c17.667 17.333 40.5 26 68.5 26s50.667 -8.66699 68 -26s26 -40.333 26 -69c0 -28 -8.66699 -50.667 -26 -68s-40 -26 -68 -26s-50.833 8.66699 -68.5 26s-26.5 40 -26.5 68c0 28.667 8.83301 51.667 26.5 69zM431.501 920.5
c17.667 17.667 40.5 26.5 68.5 26.5s50.833 -8.83301 68.5 -26.5s26.5 -40.5 26.5 -68.5s-8.83301 -50.667 -26.5 -68s-40.5 -26 -68.5 -26s-50.833 8.66699 -68.5 26s-26.5 40 -26.5 68s8.83301 50.833 26.5 68.5z" />
    <glyph glyph-name="Yacute" unicode="&#xdd;" horiz-adv-x="745" 
d="M252 233l-249 467h268l57 -130l43 -106h3l42 106l57 130h269l-248 -463v-237h-242v233zM354 919h178l-83 -154h-150z" />
    <glyph glyph-name="Thorn" unicode="&#xde;" horiz-adv-x="707" 
d="M63 700l242 0.00195312v-78h86c60 0 112.333 -11 157 -33s79 -53.333 103 -94s36 -88.667 36 -144c0 -54.667 -12 -102.334 -36 -143.001s-58.333 -71.834 -103 -93.501s-97 -32.5 -157 -32.5h-86v-82h-242v700zM356 273.002c28 0 49.833 6.83203 65.5 20.499
s23.5 32.834 23.5 57.501s-7.83301 44 -23.5 58s-37.5 21 -65.5 21h-56v-157h56z" />
    <glyph glyph-name="germandbls" unicode="&#xdf;" horiz-adv-x="724" 
d="M137.5 685.5c53.667 46.333 130.5 69.5 230.5 69.5c58 0 108.5 -8.5 151.5 -25.5s76 -41.167 99 -72.5s34.5 -68.333 34.5 -111c0 -30 -6 -57.5 -18 -82.5s-29 -45.833 -51 -62.5c36 -16.667 64.333 -41.5 85 -74.5s31 -70.833 31 -113.5c0 -42 -10 -79.167 -30 -111.5
s-48.167 -57.333 -84.5 -75s-78.166 -26.5 -125.499 -26.5h-122v174h63c22.667 0 40.167 5.16699 52.5 15.5s18.5 25.166 18.5 44.499c0 18.667 -6.16699 33.167 -18.5 43.5s-29.833 15.5 -52.5 15.5h-61v165h23c22 0 39.333 5.33301 52 16s19 25 19 43
c0 18.667 -6.33301 33.334 -19 44.001s-30.334 16 -53.001 16c-51.333 0 -77 -28.667 -77 -86v-491h-228v486c0 86.667 26.833 153.167 80.5 199.5z" />
    <glyph glyph-name="agrave" unicode="&#xe0;" horiz-adv-x="654" 
d="M88 32c-36 30 -53.999 70.667 -53.999 122c0 49.333 16.333 88.833 49 118.5s76.667 44.5 132 44.5h170v32c0 13.333 -5.5 24.5 -16.5 33.5s-24.833 13.5 -41.5 13.5c-15.333 0 -28.333 -4 -39 -12s-16.667 -18.667 -18 -32h-210c8 64 34.833 112.5 80.5 145.5
s108.167 49.5 187.5 49.5c90 0 159 -21 207 -63s72 -103 72 -183v-301h-163l-23 58c-22.667 -23.333 -49.834 -41 -81.501 -53s-66.5 -18 -104.5 -18c-62 0 -111 15 -147 45zM353.001 763l55 -166h-150l-84 166h179zM267.001 139.5c10 -7.66699 23.667 -11.498 41 -11.498
c24 0 43.333 7 58 21s22 32.667 22 56v7h-80c-17.333 0 -31 -3.83301 -41 -11.5s-15 -17.834 -15 -30.501s5 -22.834 15 -30.501z" />
    <glyph glyph-name="aacute" unicode="&#xe1;" horiz-adv-x="654" 
d="M88 32c-36 30 -53.999 70.667 -53.999 122c0 49.333 16.333 88.833 49 118.5s76.667 44.5 132 44.5h170v32c0 13.333 -5.5 24.5 -16.5 33.5s-24.833 13.5 -41.5 13.5c-15.333 0 -28.333 -4 -39 -12s-16.667 -18.667 -18 -32h-210c8 64 34.833 112.5 80.5 145.5
s108.167 49.5 187.5 49.5c90 0 159 -21 207 -63s72 -103 72 -183v-301h-163l-23 58c-22.667 -23.333 -49.834 -41 -81.501 -53s-66.5 -18 -104.5 -18c-62 0 -111 15 -147 45zM302.001 763h179l-84 -166h-150zM267.001 139.5c10 -7.66699 23.667 -11.498 41 -11.498
c24 0 43.333 7 58 21s22 32.667 22 56v7h-80c-17.333 0 -31 -3.83301 -41 -11.5s-15 -17.834 -15 -30.501s5 -22.834 15 -30.501z" />
    <glyph glyph-name="acircumflex" unicode="&#xe2;" horiz-adv-x="654" 
d="M88 32c-36 30 -53.999 70.667 -53.999 122c0 49.333 16.333 88.833 49 118.5s76.667 44.5 132 44.5h170v32c0 13.333 -5.5 24.5 -16.5 33.5s-24.833 13.5 -41.5 13.5c-15.333 0 -28.333 -4 -39 -12s-16.667 -18.667 -18 -32h-210c8 64 34.833 112.5 80.5 145.5
s108.167 49.5 187.5 49.5c90 0 159 -21 207 -63s72 -103 72 -183v-301h-163l-23 58c-22.667 -23.333 -49.834 -41 -81.501 -53s-66.5 -18 -104.5 -18c-62 0 -111 15 -147 45zM246.001 763h163l125 -166h-160l-46 58l-47 -58h-160zM267.001 139.5
c10 -7.66699 23.667 -11.498 41 -11.498c24 0 43.333 7 58 21s22 32.667 22 56v7h-80c-17.333 0 -31 -3.83301 -41 -11.5s-15 -17.834 -15 -30.501s5 -22.834 15 -30.501z" />
    <glyph glyph-name="atilde" unicode="&#xe3;" horiz-adv-x="654" 
d="M88 32c-36 30 -53.999 70.667 -53.999 122c0 49.333 16.333 88.833 49 118.5s76.667 44.5 132 44.5h170v32c0 13.333 -5.5 24.5 -16.5 33.5s-24.833 13.5 -41.5 13.5c-15.333 0 -28.333 -4 -39 -12s-16.667 -18.667 -18 -32h-210c8 64 34.833 112.5 80.5 145.5
s108.167 49.5 187.5 49.5c90 0 159 -21 207 -63s72 -103 72 -183v-301h-163l-23 58c-22.667 -23.333 -49.834 -41 -81.501 -53s-66.5 -18 -104.5 -18c-62 0 -111 15 -147 45zM145.001 631c0 38.667 9 68 27 88s44 30 78 30c18 0 32.667 -2.16699 44 -6.5
s23.333 -10.166 36 -17.499c14 -9.33301 26 -14 36 -14c12.667 0 19 7.33301 19 22v13h124v-31c0 -38 -9 -67.167 -27 -87.5s-44 -30.5 -78 -30.5c-18 0 -32.667 2.16699 -44 6.5s-23.333 10.166 -36 17.499c-14 9.33301 -25.667 14 -35 14c-13.333 0 -20 -7.33301 -20 -22
v-13h-124v31zM267.001 139.5c10 -7.66699 23.667 -11.498 41 -11.498c24 0 43.333 7 58 21s22 32.667 22 56v7h-80c-17.333 0 -31 -3.83301 -41 -11.5s-15 -17.834 -15 -30.501s5 -22.834 15 -30.501z" />
    <glyph glyph-name="adieresis" unicode="&#xe4;" horiz-adv-x="654" 
d="M88 32c-36 30 -53.999 70.667 -53.999 122c0 49.333 16.333 88.833 49 118.5s76.667 44.5 132 44.5h170v32c0 13.333 -5.5 24.5 -16.5 33.5s-24.833 13.5 -41.5 13.5c-15.333 0 -28.333 -4 -39 -12s-16.667 -18.667 -18 -32h-210c8 64 34.833 112.5 80.5 145.5
s108.167 49.5 187.5 49.5c90 0 159 -21 207 -63s72 -103 72 -183v-301h-163l-23 58c-22.667 -23.333 -49.834 -41 -81.501 -53s-66.5 -18 -104.5 -18c-62 0 -111 15 -147 45zM143.001 755.5c17.333 17 39.333 25.5 66 25.5c27.333 0 49.666 -8.5 66.999 -25.5
s26 -39.167 26 -66.5s-8.66699 -49.5 -26 -66.5s-39.666 -25.5 -66.999 -25.5c-26.667 0 -48.667 8.5 -66 25.5s-26 39.167 -26 66.5s8.66699 49.5 26 66.5zM267.001 139.5c10 -7.66699 23.667 -11.498 41 -11.498c24 0 43.333 7 58 21s22 32.667 22 56v7h-80
c-17.333 0 -31 -3.83301 -41 -11.5s-15 -17.834 -15 -30.501s5 -22.834 15 -30.501zM379.001 755.502c17.333 17 39.666 25.5 66.999 25.5c26.667 0 48.667 -8.5 66 -25.5s26 -39.167 26 -66.5s-8.66699 -49.5 -26 -66.5s-39.333 -25.5 -66 -25.5
c-27.333 0 -49.666 8.5 -66.999 25.5s-26 39.167 -26 66.5s8.66699 49.5 26 66.5z" />
    <glyph glyph-name="aring" unicode="&#xe5;" horiz-adv-x="654" 
d="M88 32c-36 30 -53.999 70.667 -53.999 122c0 49.333 16.333 88.833 49 118.5s76.667 44.5 132 44.5h170v32c0 13.333 -5.5 24.5 -16.5 33.5s-24.833 13.5 -41.5 13.5c-15.333 0 -28.333 -4 -39 -12s-16.667 -18.667 -18 -32h-210c8 64 34.833 112.5 80.5 145.5
s108.167 49.5 187.5 49.5c90 0 159 -21 207 -63s72 -103 72 -183v-301h-163l-23 58c-22.667 -23.333 -49.834 -41 -81.501 -53s-66.5 -18 -104.5 -18c-62 0 -111 15 -147 45zM229.001 788c24.667 22 57.667 33 99 33c40.667 0 73.334 -11 98.001 -33s37 -51.333 37 -88
s-12.333 -66 -37 -88s-57.334 -33 -98.001 -33c-41.333 0 -74.333 11 -99 33s-37 51.333 -37 88s12.333 66 37 88zM267.001 139.5c10 -7.66699 23.667 -11.498 41 -11.498c24 0 43.333 7 58 21s22 32.667 22 56v7h-80c-17.333 0 -31 -3.83301 -41 -11.5
s-15 -17.834 -15 -30.501s5 -22.834 15 -30.501zM302.001 674.002c6.66699 -6.66699 15.334 -10 26.001 -10s19.167 3.33301 25.5 10s9.5 15.334 9.5 26.001s-3.16699 19.334 -9.5 26.001s-14.833 10 -25.5 10s-19.334 -3.33301 -26.001 -10s-10 -15.334 -10 -26.001
s3.33301 -19.334 10 -26.001z" />
    <glyph glyph-name="ae" unicode="&#xe6;" horiz-adv-x="1028" 
d="M598 7c-36 14.667 -66.3301 35.332 -90.9971 61.999c-25.333 -27.333 -57.5 -48.166 -96.5 -62.499s-83.833 -21.5 -134.5 -21.5c-76.667 0 -136.167 14.833 -178.5 44.5s-63.5 71.167 -63.5 124.5c0 50 17.167 89.833 51.5 119.5s80.5 44.5 138.5 44.5h163v24
c0 16.667 -5.33301 30 -16 40s-25.334 15 -44.001 15c-16 0 -29.333 -4 -40 -12s-17.334 -19 -20.001 -33h-207c7.33301 62.667 33.166 110.834 77.499 144.501s104.166 50.5 179.499 50.5c90 0 156.667 -24.667 200 -74c25.333 24 55.166 42.333 89.499 55
s71.833 19 112.5 19c61.333 0 114 -13.5 158 -40.5s76.833 -65.333 98.5 -115s30.834 -107.834 27.501 -174.501h-393c5.33301 -23.333 16 -41.333 32 -54s35.667 -19 59 -19c15.333 0 29.833 2.83301 43.5 8.5s24.834 13.5 33.501 23.5h216
c-21.333 -61.333 -56 -108.5 -104 -141.5s-106 -49.5 -174 -49.5c-42.667 0 -82 7.33301 -118 22zM268.503 138.998c10.333 -7.33301 24.5 -11.002 42.5 -11.002c24.667 0 44.167 7.33301 58.5 22s21.5 34.334 21.5 59.001v4h-80c-18 0 -32.167 -3.83301 -42.5 -11.5
s-15.5 -18.167 -15.5 -31.5s5.16699 -23.666 15.5 -30.999zM789.003 321.996c-7.33301 21.333 -18.5 37.666 -33.5 48.999s-33.5 17 -55.5 17s-40.667 -5.66699 -56 -17s-26 -27.666 -32 -48.999h177z" />
    <glyph glyph-name="ccedilla" unicode="&#xe7;" horiz-adv-x="667" 
d="M235 -161l88.0088 0.000976562c17.333 0 26 6.66699 26 20c0 14 -8.66699 21 -26 21h-47l-26 35l24 74c-50 7.33301 -93.833 23.666 -131.5 48.999s-66.834 57.5 -87.501 96.5s-31 82.833 -31 131.5c0 54.667 13.167 103.334 39.5 146.001s63 75.834 110 99.501
s100.5 35.5 160.5 35.5c55.333 0 105.166 -9.83301 149.499 -29.5s80.166 -47.5 107.499 -83.5s44 -78 50 -126h-211c-8.66699 18 -20.834 31.667 -36.501 41s-33.834 14 -54.501 14c-28 0 -50.5 -8.83301 -67.5 -26.5s-25.5 -41.167 -25.5 -70.5
c0 -28.667 8.5 -51.834 25.5 -69.501s39.5 -26.5 67.5 -26.5c22 0 41.167 5.5 57.5 16.5s28.166 26.167 35.499 45.5h212c-8.66699 -68 -36.334 -123.667 -83.001 -167s-106.334 -69 -179.001 -77l-8 -26c32 -4.66699 56.667 -17.334 74 -38.001s26 -46 26 -76
c0 -34.667 -11.333 -62.667 -34 -84s-54.334 -32 -95.001 -32h-110v107z" />
    <glyph glyph-name="egrave" unicode="&#xe8;" horiz-adv-x="667" 
d="M172 20.5c-46.667 23.667 -83.001 56.8311 -109.001 99.498s-39 91.334 -39 146.001s13.167 103.334 39.5 146.001s62.833 75.834 109.5 99.501s100.334 35.5 161.001 35.5c66 0 122.833 -13.5 170.5 -40.5s83.5 -65.5 107.5 -115.5s34.333 -108 31 -174h-398
c6 -24 17.333 -42 34 -54s36.667 -18 60 -18c16.667 0 32.167 2.83301 46.5 8.5s25.833 13.5 34.5 23.5h214c-22 -60.667 -59.5 -107.834 -112.5 -141.501s-116.167 -50.5 -189.5 -50.5c-60 0 -113.333 11.833 -160 35.5zM358.999 762.997l56 -166h-150l-84 166h178z
M428.999 321.997c-6.66699 21.333 -17.668 37.833 -33.001 49.5s-34.666 17.5 -57.999 17.5c-22.667 0 -42 -5.66699 -58 -17s-27.333 -28 -34 -50h183z" />
    <glyph glyph-name="eacute" unicode="&#xe9;" horiz-adv-x="667" 
d="M172 20.5c-46.667 23.667 -83.001 56.8311 -109.001 99.498s-39 91.334 -39 146.001s13.167 103.334 39.5 146.001s62.833 75.834 109.5 99.501s100.334 35.5 161.001 35.5c66 0 122.833 -13.5 170.5 -40.5s83.5 -65.5 107.5 -115.5s34.333 -108 31 -174h-398
c6 -24 17.333 -42 34 -54s36.667 -18 60 -18c16.667 0 32.167 2.83301 46.5 8.5s25.833 13.5 34.5 23.5h214c-22 -60.667 -59.5 -107.834 -112.5 -141.501s-116.167 -50.5 -189.5 -50.5c-60 0 -113.333 11.833 -160 35.5zM428.999 321.997
c-6.66699 21.333 -17.668 37.833 -33.001 49.5s-34.666 17.5 -57.999 17.5c-22.667 0 -42 -5.66699 -58 -17s-27.333 -28 -34 -50h183zM308.998 762.997h178l-83 -166h-150z" />
    <glyph glyph-name="ecircumflex" unicode="&#xea;" horiz-adv-x="667" 
d="M172 20.5c-46.667 23.667 -83.001 56.8311 -109.001 99.498s-39 91.334 -39 146.001s13.167 103.334 39.5 146.001s62.833 75.834 109.5 99.501s100.334 35.5 161.001 35.5c66 0 122.833 -13.5 170.5 -40.5s83.5 -65.5 107.5 -115.5s34.333 -108 31 -174h-398
c6 -24 17.333 -42 34 -54s36.667 -18 60 -18c16.667 0 32.167 2.83301 46.5 8.5s25.833 13.5 34.5 23.5h214c-22 -60.667 -59.5 -107.834 -112.5 -141.501s-116.167 -50.5 -189.5 -50.5c-60 0 -113.333 11.833 -160 35.5zM252.999 762.997h162l126 -166h-160l-47 58l-46 -58
h-160zM428.999 321.997c-6.66699 21.333 -17.668 37.833 -33.001 49.5s-34.666 17.5 -57.999 17.5c-22.667 0 -42 -5.66699 -58 -17s-27.333 -28 -34 -50h183z" />
    <glyph glyph-name="edieresis" unicode="&#xeb;" horiz-adv-x="667" 
d="M172 20.5c-46.667 23.667 -83.001 56.8311 -109.001 99.498s-39 91.334 -39 146.001s13.167 103.334 39.5 146.001s62.833 75.834 109.5 99.501s100.334 35.5 161.001 35.5c66 0 122.833 -13.5 170.5 -40.5s83.5 -65.5 107.5 -115.5s34.333 -108 31 -174h-398
c6 -24 17.333 -42 34 -54s36.667 -18 60 -18c16.667 0 32.167 2.83301 46.5 8.5s25.833 13.5 34.5 23.5h214c-22 -60.667 -59.5 -107.834 -112.5 -141.501s-116.167 -50.5 -189.5 -50.5c-60 0 -113.333 11.833 -160 35.5zM149.499 755.497c17 17 39.167 25.5 66.5 25.5
s49.666 -8.5 66.999 -25.5s26 -39.167 26 -66.5s-8.66699 -49.5 -26 -66.5s-39.666 -25.5 -66.999 -25.5s-49.5 8.5 -66.5 25.5s-25.5 39.167 -25.5 66.5s8.5 49.5 25.5 66.5zM428.999 321.997c-6.66699 21.333 -17.668 37.833 -33.001 49.5s-34.666 17.5 -57.999 17.5
c-22.667 0 -42 -5.66699 -58 -17s-27.333 -28 -34 -50h183zM385.998 755.497c17.333 17 39.666 25.5 66.999 25.5c26.667 0 48.667 -8.5 66 -25.5s26 -39.167 26 -66.5s-8.66699 -49.5 -26 -66.5s-39.333 -25.5 -66 -25.5c-27.333 0 -49.666 8.5 -66.999 25.5
s-26 39.167 -26 66.5s8.66699 49.5 26 66.5z" />
    <glyph glyph-name="igrave" unicode="&#xec;" horiz-adv-x="342" 
d="M57 533h228v-533h-228v533zM208 763l43 -166h-150l-72 166h179z" />
    <glyph glyph-name="iacute" unicode="&#xed;" horiz-adv-x="342" 
d="M57 533h228v-533h-228v533zM134 763h178l-72 -166h-150z" />
    <glyph glyph-name="icircumflex" unicode="&#xee;" horiz-adv-x="342" 
d="M57 533h228v-533h-228v533zM91 759h161l130 -161h-172l-39 56l-39 -56h-171z" />
    <glyph glyph-name="idieresis" unicode="&#xef;" horiz-adv-x="342" 
d="M57 533h228v-533h-228v533zM-6 756c16.667 16.667 38.667 25 66 25c26.667 0 48.334 -8.33301 65.001 -25s25 -39 25 -67c0 -27.333 -8.33301 -49.5 -25 -66.5s-38.334 -25.5 -65.001 -25.5c-27.333 0 -49.333 8.5 -66 25.5s-25 39.167 -25 66.5
c0 28 8.33301 50.333 25 67zM218.5 756c16.333 16.667 38.168 25 65.501 25s49.333 -8.33301 66 -25s25 -39 25 -67c0 -27.333 -8.33301 -49.5 -25 -66.5s-38.667 -25.5 -66 -25.5c-26.667 0 -48.334 8.5 -65.001 25.5s-25 39.167 -25 66.5c0 28 8.16699 50.333 24.5 67z
" />
    <glyph glyph-name="eth" unicode="&#xf0;" horiz-adv-x="704" 
d="M173.5 18.5c-47.667 22.333 -84.502 53.834 -110.502 94.501s-39 87.667 -39 141c0 48.667 11 92 33 130s52.833 67.5 92.5 88.5s85.167 31.5 136.5 31.5c34.667 0 67.834 -4.33301 99.501 -13s59.5 -21.667 83.5 -39c-33.333 118 -151.666 179.667 -354.999 185v180
c121.333 -8 224.666 -32.667 309.999 -74l236 99v-155l-103 -42c73.333 -79.333 110 -184.333 110 -315c0 -70.667 -12.667 -131.834 -38 -183.501s-62.666 -91.5 -111.999 -119.5s-108.666 -42 -177.999 -42c-62.667 0 -117.834 11.167 -165.501 33.5zM271.498 195.001
c17.667 -17.333 40.167 -26 67.5 -26c28 0 50.667 8.5 68 25.5s26 39.167 26 66.5c0 26.667 -8.66699 48.5 -26 65.5s-40 25.5 -68 25.5c-27.333 0 -49.833 -8.5 -67.5 -25.5s-26.5 -38.833 -26.5 -65.5s8.83301 -48.667 26.5 -66z" />
    <glyph glyph-name="ntilde" unicode="&#xf1;" horiz-adv-x="688" 
d="M57 533l162 -0.00195312l22 -56c21.333 22.667 47 40 77 52s63 18 99 18c68.667 0 123 -20.5 163 -61.5s60 -97.167 60 -168.5v-317h-228v289c0 24.667 -5.33301 43.334 -16 56.001s-26 19 -46 19c-20.667 0 -36.667 -6.66699 -48 -20s-17 -32.666 -17 -57.999v-286h-228
v533zM181 630.998c0 38.667 8.83203 68 26.499 88s43.834 30 78.501 30c18 0 32.667 -2.16699 44 -6.5s23.333 -10.166 36 -17.499c14 -9.33301 25.667 -14 35 -14c13.333 0 20 7.33301 20 22v13h124v-31c0 -38 -9 -67.167 -27 -87.5s-44 -30.5 -78 -30.5
c-18 0 -32.667 2.16699 -44 6.5s-23.333 10.166 -36 17.499c-14 9.33301 -26 14 -36 14c-12.667 0 -19 -7.33301 -19 -22v-13h-124v31z" />
    <glyph glyph-name="ograve" unicode="&#xf2;" horiz-adv-x="684" 
d="M176 20c-48 23.333 -85.333 56.166 -112 98.499s-40 91.5 -40 147.5s13.333 105.167 40 147.5s64 75.166 112 98.499s103.333 35 166 35c63.333 0 119 -11.667 167 -35s85.167 -56.166 111.5 -98.499s39.5 -91.5 39.5 -147.5s-13.167 -105.167 -39.5 -147.5
s-63.5 -75.166 -111.5 -98.499s-103.667 -35 -167 -35c-62.667 0 -118 11.667 -166 35zM367 763l56 -166h-150l-84 166h178zM273 196.5c18 -17.667 41 -26.5 69 -26.5s51 8.83301 69 26.5s27 40.834 27 69.501s-9 52 -27 70s-41 27 -69 27s-51 -9 -69 -27
s-27 -41.333 -27 -70s9 -51.834 27 -69.501z" />
    <glyph glyph-name="oacute" unicode="&#xf3;" horiz-adv-x="684" 
d="M176 20c-48 23.333 -85.333 56.166 -112 98.499s-40 91.5 -40 147.5s13.333 105.167 40 147.5s64 75.166 112 98.499s103.333 35 166 35c63.333 0 119 -11.667 167 -35s85.167 -56.166 111.5 -98.499s39.5 -91.5 39.5 -147.5s-13.167 -105.167 -39.5 -147.5
s-63.5 -75.166 -111.5 -98.499s-103.667 -35 -167 -35c-62.667 0 -118 11.667 -166 35zM273 196.5c18 -17.667 41 -26.5 69 -26.5s51 8.83301 69 26.5s27 40.834 27 69.501s-9 52 -27 70s-41 27 -69 27s-51 -9 -69 -27s-27 -41.333 -27 -70s9 -51.834 27 -69.501zM317 763
h178l-84 -166h-150z" />
    <glyph glyph-name="ocircumflex" unicode="&#xf4;" horiz-adv-x="684" 
d="M176 20c-48 23.333 -85.333 56.166 -112 98.499s-40 91.5 -40 147.5s13.333 105.167 40 147.5s64 75.166 112 98.499s103.333 35 166 35c63.333 0 119 -11.667 167 -35s85.167 -56.166 111.5 -98.499s39.5 -91.5 39.5 -147.5s-13.167 -105.167 -39.5 -147.5
s-63.5 -75.166 -111.5 -98.499s-103.667 -35 -167 -35c-62.667 0 -118 11.667 -166 35zM261 763h162l125 -166h-159l-47 58l-47 -58h-159zM273 196.5c18 -17.667 41 -26.5 69 -26.5s51 8.83301 69 26.5s27 40.834 27 69.501s-9 52 -27 70s-41 27 -69 27s-51 -9 -69 -27
s-27 -41.333 -27 -70s9 -51.834 27 -69.501z" />
    <glyph glyph-name="otilde" unicode="&#xf5;" horiz-adv-x="684" 
d="M176 20c-48 23.333 -85.333 56.166 -112 98.499s-40 91.5 -40 147.5s13.333 105.167 40 147.5s64 75.166 112 98.499s103.333 35 166 35c63.333 0 119 -11.667 167 -35s85.167 -56.166 111.5 -98.499s39.5 -91.5 39.5 -147.5s-13.167 -105.167 -39.5 -147.5
s-63.5 -75.166 -111.5 -98.499s-103.667 -35 -167 -35c-62.667 0 -118 11.667 -166 35zM159 631c0 38.667 8.99902 67.999 26.999 87.999s44.333 30 79 30c18 0 32.667 -2.16699 44 -6.5s23.333 -10.166 36 -17.499c14 -9.33301 25.667 -14 35 -14
c12.667 0 19 7.33301 19 22v13h125v-31c0 -38 -9 -67.167 -27 -87.5s-44.333 -30.5 -79 -30.5c-17.333 0 -31.666 2 -42.999 6s-23.333 10 -36 18c-8 4.66699 -14.5 8.16699 -19.5 10.5s-10.5 3.5 -16.5 3.5c-12.667 0 -19 -7.33301 -19 -22v-13h-125v31zM272.999 196.499
c18 -17.667 41 -26.5 69 -26.5s51 8.83301 69 26.5s27 40.834 27 69.501s-9 52 -27 70s-41 27 -69 27s-51 -9 -69 -27s-27 -41.333 -27 -70s9 -51.834 27 -69.501z" />
    <glyph glyph-name="odieresis" unicode="&#xf6;" horiz-adv-x="684" 
d="M176 20c-48 23.333 -85.333 56.166 -112 98.499s-40 91.5 -40 147.5s13.333 105.167 40 147.5s64 75.166 112 98.499s103.333 35 166 35c63.333 0 119 -11.667 167 -35s85.167 -56.166 111.5 -98.499s39.5 -91.5 39.5 -147.5s-13.167 -105.167 -39.5 -147.5
s-63.5 -75.166 -111.5 -98.499s-103.667 -35 -167 -35c-62.667 0 -118 11.667 -166 35zM157 755.5c17.333 17 39.666 25.5 66.999 25.5s49.666 -8.5 66.999 -25.5s26 -39.167 26 -66.5s-8.66699 -49.5 -26 -66.5s-39.666 -25.5 -66.999 -25.5s-49.666 8.5 -66.999 25.5
s-26 39.167 -26 66.5s8.66699 49.5 26 66.5zM273 196.5c18 -17.667 41 -26.5 69 -26.5s51 8.83301 69 26.5s27 40.834 27 69.501s-9 52 -27 70s-41 27 -69 27s-51 -9 -69 -27s-27 -41.333 -27 -70s9 -51.834 27 -69.501zM393.5 755.5c17 17 39.167 25.5 66.5 25.5
s49.666 -8.5 66.999 -25.5s26 -39.167 26 -66.5s-8.66699 -49.5 -26 -66.5s-39.666 -25.5 -66.999 -25.5s-49.5 8.5 -66.5 25.5s-25.5 39.167 -25.5 66.5s8.5 49.5 25.5 66.5z" />
    <glyph glyph-name="divide" unicode="&#xf7;" horiz-adv-x="594" 
d="M221 53.5c-18.667 17.667 -28 41.167 -28 70.5c0 28.667 9.33301 52 28 70s43.334 27 74.001 27c30 0 54.333 -9 73 -27s28 -41.333 28 -70s-9.33301 -52 -28 -70s-43 -27 -73 -27c-30.667 0 -55.334 8.83301 -74.001 26.5zM66 405h461v-150h-461v150zM221.5 605.5
c19 18.333 43.501 27.5 73.501 27.5s54.333 -9.16699 73 -27.5s28 -41.833 28 -70.5s-9.33301 -52 -28 -70s-43 -27 -73 -27c-30.667 0 -55.334 9 -74.001 27s-28 41.333 -28 70s9.5 52.167 28.5 70.5z" />
    <glyph glyph-name="oslash" unicode="&#xf8;" horiz-adv-x="684" 
d="M115 59c-29.333 24.667 -51.833 54.667 -67.5 90s-23.5 74.333 -23.5 117c0 56 13.333 105.167 40 147.5s64 75.166 112 98.499s103.333 35 166 35c35.333 0 66.666 -3.33301 93.999 -10l39 57h177l-83 -121c29.333 -24.667 51.833 -54.667 67.5 -90
s23.5 -74.333 23.5 -117c0 -56 -13.333 -105.167 -40 -147.5s-64 -75.166 -112 -98.499s-103.333 -35 -166 -35c-35.333 0 -66.666 3.33301 -93.999 10l-38 -57h-177zM273 196.5c18 -17.667 41 -26.5 69 -26.5s51 8.83301 69 26.5s27 40.834 27 69.501s-9 52 -27 70
s-41 27 -69 27s-51 -9 -69 -27s-27 -41.333 -27 -70s9 -51.834 27 -69.501z" />
    <glyph glyph-name="ugrave" unicode="&#xf9;" horiz-adv-x="686" 
d="M107.5 47c-39.667 41.333 -59.499 97.6689 -59.499 169.002v317h228v-289c0 -24.667 5.33301 -43.334 16 -56.001s26 -19 46 -19s35.667 6.66699 47 20s17 32.666 17 57.999v286h228v-533h-163l-22 56c-20.667 -22.667 -46 -40.167 -76 -52.5s-63 -18.5 -99 -18.5
c-68.667 0 -122.834 20.667 -162.501 62zM364.001 763.003l56 -166h-150l-84 166h178z" />
    <glyph glyph-name="uacute" unicode="&#xfa;" horiz-adv-x="686" 
d="M107.5 47c-39.667 41.333 -59.499 97.6689 -59.499 169.002v317h228v-289c0 -24.667 5.33301 -43.334 16 -56.001s26 -19 46 -19s35.667 6.66699 47 20s17 32.666 17 57.999v286h228v-533h-163l-22 56c-20.667 -22.667 -46 -40.167 -76 -52.5s-63 -18.5 -99 -18.5
c-68.667 0 -122.834 20.667 -162.501 62zM314.001 763.003h178l-84 -166h-150z" />
    <glyph glyph-name="ucircumflex" unicode="&#xfb;" horiz-adv-x="686" 
d="M107.5 47c-39.667 41.333 -59.499 97.6689 -59.499 169.002v317h228v-289c0 -24.667 5.33301 -43.334 16 -56.001s26 -19 46 -19s35.667 6.66699 47 20s17 32.666 17 57.999v286h228v-533h-163l-22 56c-20.667 -22.667 -46 -40.167 -76 -52.5s-63 -18.5 -99 -18.5
c-68.667 0 -122.834 20.667 -162.501 62zM258.001 763.003h162l125 -166h-159l-47 58l-47 -58h-159z" />
    <glyph glyph-name="udieresis" unicode="&#xfc;" horiz-adv-x="686" 
d="M107.5 47c-39.667 41.333 -59.499 97.6689 -59.499 169.002v317h228v-289c0 -24.667 5.33301 -43.334 16 -56.001s26 -19 46 -19s35.667 6.66699 47 20s17 32.666 17 57.999v286h228v-533h-163l-22 56c-20.667 -22.667 -46 -40.167 -76 -52.5s-63 -18.5 -99 -18.5
c-68.667 0 -122.834 20.667 -162.501 62zM154.001 755.503c17.333 17 39.666 25.5 66.999 25.5s49.666 -8.5 66.999 -25.5s26 -39.167 26 -66.5s-8.66699 -49.5 -26 -66.5s-39.666 -25.5 -66.999 -25.5s-49.666 8.5 -66.999 25.5s-26 39.167 -26 66.5s8.66699 49.5 26 66.5z
M390.501 755.503c17 17 39.167 25.5 66.5 25.5s49.666 -8.5 66.999 -25.5s26 -39.167 26 -66.5s-8.66699 -49.5 -26 -66.5s-39.666 -25.5 -66.999 -25.5s-49.5 8.5 -66.5 25.5s-25.5 39.167 -25.5 66.5s8.5 49.5 25.5 66.5z" />
    <glyph glyph-name="yacute" unicode="&#xfd;" horiz-adv-x="660" 
d="M77 -24h74.999c20.667 0 36.334 3.16699 47.001 9.5s19 16.833 25 31.5l-221 516h248l48 -147l37 -116h3l32 116l43 147h243l-228 -578c-16 -42.667 -34.333 -75.667 -55 -99s-46.667 -39.833 -78 -49.5s-72.333 -14.5 -123 -14.5h-96v184zM306.999 763h178l-83 -166
h-150z" />
    <glyph glyph-name="thorn" unicode="&#xfe;" horiz-adv-x="717" 
d="M285 20v-220.003h-228v940h228v-227c40 22.667 85.667 34 137 34c53.333 0 100.333 -11.833 141 -35.5s72.334 -56.667 95.001 -99s34 -91.166 34 -146.499s-11.333 -104.166 -34 -146.499s-54.334 -75.166 -95.001 -98.499s-87.667 -35 -141 -35
c-51.333 0 -97 11.333 -137 34zM305 196.497c17.333 -17.667 40.333 -26.5 69 -26.5s51.834 8.83301 69.501 26.5s26.5 40.834 26.5 69.501s-8.83301 52 -26.5 70s-40.834 27 -69.501 27s-51.667 -8.83301 -69 -26.5s-26 -41.167 -26 -70.5
c0 -28.667 8.66699 -51.834 26 -69.501z" />
    <glyph glyph-name="ydieresis" unicode="&#xff;" horiz-adv-x="660" 
d="M77 -24h74.999c20.667 0 36.334 3.16699 47.001 9.5s19 16.833 25 31.5l-221 516h248l48 -147l37 -116h3l32 116l43 147h243l-228 -578c-16 -42.667 -34.333 -75.667 -55 -99s-46.667 -39.833 -78 -49.5s-72.333 -14.5 -123 -14.5h-96v184zM147.499 755.5
c17 17 39.167 25.5 66.5 25.5s49.666 -8.5 66.999 -25.5s26 -39.167 26 -66.5s-8.66699 -49.5 -26 -66.5s-39.666 -25.5 -66.999 -25.5s-49.5 8.5 -66.5 25.5s-25.5 39.167 -25.5 66.5s8.5 49.5 25.5 66.5zM383.999 755.5c17.333 17 39.333 25.5 66 25.5
c27.333 0 49.666 -8.5 66.999 -25.5s26 -39.167 26 -66.5s-8.66699 -49.5 -26 -66.5s-39.666 -25.5 -66.999 -25.5c-26.667 0 -48.667 8.5 -66 25.5s-26 39.167 -26 66.5s8.66699 49.5 26 66.5z" />
    <glyph glyph-name="Amacron" unicode="&#x100;" horiz-adv-x="779" 
d="M263 700h252l261 -700h-254l-31 87h-205l-31 -87h-252zM208 900h362v-121h-362v121zM453 247l-62 192h-4l-61 -192h127z" />
    <glyph glyph-name="amacron" unicode="&#x101;" horiz-adv-x="654" 
d="M88 32c-36 30 -53.999 70.667 -53.999 122c0 49.333 16.333 88.833 49 118.5s76.667 44.5 132 44.5h170v32c0 13.333 -5.5 24.5 -16.5 33.5s-24.833 13.5 -41.5 13.5c-15.333 0 -28.333 -4 -39 -12s-16.667 -18.667 -18 -32h-210c8 64 34.833 112.5 80.5 145.5
s108.167 49.5 187.5 49.5c90 0 159 -21 207 -63s72 -103 72 -183v-301h-163l-23 58c-22.667 -23.333 -49.834 -41 -81.501 -53s-66.5 -18 -104.5 -18c-62 0 -111 15 -147 45zM157.001 731h341v-121h-341v121zM267.001 139.5c10 -7.66699 23.667 -11.498 41 -11.498
c24 0 43.333 7 58 21s22 32.667 22 56v7h-80c-17.333 0 -31 -3.83301 -41 -11.5s-15 -17.834 -15 -30.501s5 -22.834 15 -30.501z" />
    <glyph glyph-name="Abreve" unicode="&#x102;" horiz-adv-x="779" 
d="M263 700h252l261 -700h-254l-31 87h-205l-31 -87h-252zM226 919h126v-9c0 -11.333 3.16699 -20.166 9.5 -26.499s15.5 -9.5 27.5 -9.5s21.167 3.16699 27.5 9.5s9.5 15.166 9.5 26.499v9h125v-16c0 -46 -13.5 -81.333 -40.5 -106s-67.5 -37 -121.5 -37
c-52 0 -92.167 12.5 -120.5 37.5s-42.5 60.167 -42.5 105.5v16zM453 247l-62 192h-4l-61 -192h127z" />
    <glyph glyph-name="abreve" unicode="&#x103;" horiz-adv-x="654" 
d="M88 32c-36 30 -53.999 70.667 -53.999 122c0 49.333 16.333 88.833 49 118.5s76.667 44.5 132 44.5h170v32c0 13.333 -5.5 24.5 -16.5 33.5s-24.833 13.5 -41.5 13.5c-15.333 0 -28.333 -4 -39 -12s-16.667 -18.667 -18 -32h-210c8 64 34.833 112.5 80.5 145.5
s108.167 49.5 187.5 49.5c90 0 159 -21 207 -63s72 -103 72 -183v-301h-163l-23 58c-22.667 -23.333 -49.834 -41 -81.501 -53s-66.5 -18 -104.5 -18c-62 0 -111 15 -147 45zM156.001 763h127.002v-15c0 -28 14.667 -42 44 -42c13.333 0 24 3.5 32 10.5s12 17.5 12 31.5v15
h127v-24c0 -48 -14.833 -84.5 -44.5 -109.5s-71.834 -37.5 -126.501 -37.5s-96.834 12.5 -126.501 37.5s-44.5 61.5 -44.5 109.5v24zM267.003 139.5c10 -7.66699 23.667 -11.498 41 -11.498c24 0 43.333 7 58 21s22 32.667 22 56v7h-80c-17.333 0 -31 -3.83301 -41 -11.5
s-15 -17.834 -15 -30.501s5 -22.834 15 -30.501z" />
    <glyph glyph-name="Aogonek" unicode="&#x104;" horiz-adv-x="779" 
d="M263 700h252l261 -700c-17.333 -10.667 -31 -22.5 -41 -35.5s-15 -25.833 -15 -38.5c0 -20 11.667 -30 35 -30h21v-113h-83c-41.333 0 -73.833 8.83301 -97.5 26.5s-35.5 42.167 -35.5 73.5c0 42 21.667 81 65 117h-103l-31 87h-205l-31 -87h-252zM453 247l-62 192h-4
l-61 -192h127z" />
    <glyph glyph-name="aogonek" unicode="&#x105;" horiz-adv-x="654" 
d="M88 32c-36 30 -53.998 70.667 -53.998 122c0 49.333 16.333 88.833 49 118.5s76.667 44.5 132 44.5h170v32c0 13.333 -5.5 24.5 -16.5 33.5s-24.833 13.5 -41.5 13.5c-15.333 0 -28.333 -4 -39 -12s-16.667 -18.667 -18 -32h-210c8 64 34.833 112.5 80.5 145.5
s108.167 49.5 187.5 49.5c90 0 159 -21 207 -63s72 -103 72 -183v-301c-16.667 -10 -29.834 -21.333 -39.501 -34s-14.5 -25 -14.5 -37c0 -19.333 11.333 -29 34 -29h20v-109h-80c-40 0 -71.167 8.5 -93.5 25.5s-33.5 40.5 -33.5 70.5c0 40 20.667 77.667 62 113h-18l-23 58
c-22.667 -23.333 -49.834 -41 -81.501 -53s-66.5 -18 -104.5 -18c-62 0 -111 15 -147 45zM267.002 139.5c10 -7.66699 23.667 -11.498 41 -11.498c24 0 43.333 7 58 21s22 32.667 22 56v7h-80c-17.333 0 -31 -3.83301 -41 -11.5s-15 -17.834 -15 -30.501
s5 -22.834 15 -30.501z" />
    <glyph glyph-name="Cacute" unicode="&#x106;" horiz-adv-x="800" 
d="M204 31c-56 30.667 -99.5 73.6689 -130.5 129.002s-46.5 118.666 -46.5 189.999s15.5 134.666 46.5 189.999s74.5 98.333 130.5 129s120 46 192 46c66.667 0 126.5 -12.333 179.5 -37s96.333 -60.167 130 -106.5s55.834 -100.833 66.501 -163.5h-237
c-9.33301 26.667 -25.5 47.834 -48.5 63.501s-49.5 23.5 -79.5 23.5c-40.667 0 -73.5 -13.333 -98.5 -40s-37.5 -61.667 -37.5 -105c0 -42.667 12.5 -77.5 37.5 -104.5s57.167 -40.5 96.5 -40.5c31.333 0 58.666 8 81.999 24s40 38 50 66h238
c-8 -62 -29.167 -116.333 -63.5 -163s-78.5 -82.834 -132.5 -108.501s-114.333 -38.5 -181 -38.5c-73.333 0 -138 15.333 -194 46zM383 919.002h178l-84 -154h-150z" />
    <glyph glyph-name="cacute" unicode="&#x107;" horiz-adv-x="667" 
d="M172.5 20.5c-47 23.667 -83.4951 56.8311 -109.495 99.498s-39 91.334 -39 146.001s13.167 103.334 39.5 146.001s63 75.834 110 99.501s100.5 35.5 160.5 35.5c55.333 0 105.166 -9.83301 149.499 -29.5s80.166 -47.5 107.499 -83.5s44 -78 50 -126h-211
c-8.66699 18 -20.834 31.667 -36.501 41s-33.834 14 -54.501 14c-28 0 -50.5 -8.83301 -67.5 -26.5s-25.5 -41.167 -25.5 -70.5c0 -28.667 8.5 -51.834 25.5 -69.501s39.5 -26.5 67.5 -26.5c22 0 41.167 5.5 57.5 16.5s28.166 26.167 35.499 45.5h212
c-6 -50 -22.833 -93.667 -50.5 -131s-63.667 -66 -108 -86s-94.833 -30 -151.5 -30c-60.667 0 -114.5 11.833 -161.5 35.5zM309.005 762.997h178l-83 -166h-150z" />
    <glyph glyph-name="Ccircumflex" unicode="&#x108;" horiz-adv-x="800" 
d="M204 31c-56 30.667 -99.5 73.6689 -130.5 129.002s-46.5 118.666 -46.5 189.999s15.5 134.666 46.5 189.999s74.5 98.333 130.5 129s120 46 192 46c66.667 0 126.5 -12.333 179.5 -37s96.333 -60.167 130 -106.5s55.834 -100.833 66.501 -163.5h-237
c-9.33301 26.667 -25.5 47.834 -48.5 63.501s-49.5 23.5 -79.5 23.5c-40.667 0 -73.5 -13.333 -98.5 -40s-37.5 -61.667 -37.5 -105c0 -42.667 12.5 -77.5 37.5 -104.5s57.167 -40.5 96.5 -40.5c31.333 0 58.666 8 81.999 24s40 38 50 66h238
c-8 -62 -29.167 -116.333 -63.5 -163s-78.5 -82.834 -132.5 -108.501s-114.333 -38.5 -181 -38.5c-73.333 0 -138 15.333 -194 46zM319 919.002h163l125 -154h-160l-47 51l-46 -51h-160z" />
    <glyph glyph-name="ccircumflex" unicode="&#x109;" horiz-adv-x="667" 
d="M172.5 20.5c-47 23.667 -83.4951 56.8311 -109.495 99.498s-39 91.334 -39 146.001s13.167 103.334 39.5 146.001s63 75.834 110 99.501s100.5 35.5 160.5 35.5c55.333 0 105.166 -9.83301 149.499 -29.5s80.166 -47.5 107.499 -83.5s44 -78 50 -126h-211
c-8.66699 18 -20.834 31.667 -36.501 41s-33.834 14 -54.501 14c-28 0 -50.5 -8.83301 -67.5 -26.5s-25.5 -41.167 -25.5 -70.5c0 -28.667 8.5 -51.834 25.5 -69.501s39.5 -26.5 67.5 -26.5c22 0 41.167 5.5 57.5 16.5s28.166 26.167 35.499 45.5h212
c-6 -50 -22.833 -93.667 -50.5 -131s-63.667 -66 -108 -86s-94.833 -30 -151.5 -30c-60.667 0 -114.5 11.833 -161.5 35.5zM253.005 762.997h162l126 -166h-160l-47 58l-46 -58h-160z" />
    <glyph glyph-name="Cdotaccent" unicode="&#x10a;" horiz-adv-x="800" 
d="M204 31c-56 30.667 -99.5 73.6689 -130.5 129.002s-46.5 118.666 -46.5 189.999s15.5 134.666 46.5 189.999s74.5 98.333 130.5 129s120 46 192 46c66.667 0 126.5 -12.333 179.5 -37s96.333 -60.167 130 -106.5s55.834 -100.833 66.501 -163.5h-237
c-9.33301 26.667 -25.5 47.834 -48.5 63.501s-49.5 23.5 -79.5 23.5c-40.667 0 -73.5 -13.333 -98.5 -40s-37.5 -61.667 -37.5 -105c0 -42.667 12.5 -77.5 37.5 -104.5s57.167 -40.5 96.5 -40.5c31.333 0 58.666 8 81.999 24s40 38 50 66h238
c-8 -62 -29.167 -116.333 -63.5 -163s-78.5 -82.834 -132.5 -108.501s-114.333 -38.5 -181 -38.5c-73.333 0 -138 15.333 -194 46zM318.5 940.502c21 20.333 48.167 30.5 81.5 30.5c34 0 61.5 -10.167 82.5 -30.5s31.5 -46.5 31.5 -78.5s-10.5 -58 -31.5 -78
s-48.5 -30 -82.5 -30c-33.333 0 -60.5 10 -81.5 30s-31.5 46 -31.5 78s10.5 58.167 31.5 78.5z" />
    <glyph glyph-name="cdotaccent" unicode="&#x10b;" horiz-adv-x="667" 
d="M172.5 20.5c-47 23.667 -83.4951 56.8311 -109.495 99.498s-39 91.334 -39 146.001s13.167 103.334 39.5 146.001s63 75.834 110 99.501s100.5 35.5 160.5 35.5c55.333 0 105.166 -9.83301 149.499 -29.5s80.166 -47.5 107.499 -83.5s44 -78 50 -126h-211
c-8.66699 18 -20.834 31.667 -36.501 41s-33.834 14 -54.501 14c-28 0 -50.5 -8.83301 -67.5 -26.5s-25.5 -41.167 -25.5 -70.5c0 -28.667 8.5 -51.834 25.5 -69.501s39.5 -26.5 67.5 -26.5c22 0 41.167 5.5 57.5 16.5s28.166 26.167 35.499 45.5h212
c-6 -50 -22.833 -93.667 -50.5 -131s-63.667 -66 -108 -86s-94.833 -30 -151.5 -30c-60.667 0 -114.5 11.833 -161.5 35.5zM255.005 775.497c20 19 46.333 28.5 79 28.5s59 -9.5 79 -28.5s30 -44.167 30 -75.5s-10 -56.5 -30 -75.5s-46.333 -28.5 -79 -28.5
s-59 9.5 -79 28.5s-30 44.167 -30 75.5s10 56.5 30 75.5z" />
    <glyph glyph-name="Ccaron" unicode="&#x10c;" horiz-adv-x="800" 
d="M204 31c-56 30.667 -99.5 73.6689 -130.5 129.002s-46.5 118.666 -46.5 189.999s15.5 134.666 46.5 189.999s74.5 98.333 130.5 129s120 46 192 46c66.667 0 126.5 -12.333 179.5 -37s96.333 -60.167 130 -106.5s55.834 -100.833 66.501 -163.5h-237
c-9.33301 26.667 -25.5 47.834 -48.5 63.501s-49.5 23.5 -79.5 23.5c-40.667 0 -73.5 -13.333 -98.5 -40s-37.5 -61.667 -37.5 -105c0 -42.667 12.5 -77.5 37.5 -104.5s57.167 -40.5 96.5 -40.5c31.333 0 58.666 8 81.999 24s40 38 50 66h238
c-8 -62 -29.167 -116.333 -63.5 -163s-78.5 -82.834 -132.5 -108.501s-114.333 -38.5 -181 -38.5c-73.333 0 -138 15.333 -194 46zM354 919.002l47 -51l46 51h160l-125 -154h-162l-126 154h160z" />
    <glyph glyph-name="ccaron" unicode="&#x10d;" horiz-adv-x="667" 
d="M172.5 20.5c-47 23.667 -83.4951 56.8311 -109.495 99.498s-39 91.334 -39 146.001s13.167 103.334 39.5 146.001s63 75.834 110 99.501s100.5 35.5 160.5 35.5c55.333 0 105.166 -9.83301 149.499 -29.5s80.166 -47.5 107.499 -83.5s44 -78 50 -126h-211
c-8.66699 18 -20.834 31.667 -36.501 41s-33.834 14 -54.501 14c-28 0 -50.5 -8.83301 -67.5 -26.5s-25.5 -41.167 -25.5 -70.5c0 -28.667 8.5 -51.834 25.5 -69.501s39.5 -26.5 67.5 -26.5c22 0 41.167 5.5 57.5 16.5s28.166 26.167 35.499 45.5h212
c-6 -50 -22.833 -93.667 -50.5 -131s-63.667 -66 -108 -86s-94.833 -30 -151.5 -30c-60.667 0 -114.5 11.833 -161.5 35.5zM288.005 761.997l47 -58l46 58h160l-125 -166h-162l-126 166h160z" />
    <glyph glyph-name="Dcaron" unicode="&#x10e;" horiz-adv-x="788" 
d="M63 700h315c76.667 0 143.834 -14.333 201.501 -43s102.334 -69.5 134.001 -122.5s47.5 -114.5 47.5 -184.5s-15.833 -131.5 -47.5 -184.5s-76.334 -93.833 -134.001 -122.5s-124.834 -43 -201.501 -43h-315v700zM294 919l47 -51l46 51h160l-125 -154h-162l-126 154h160z
M371 213c45.333 0 81 12.167 107 36.5s39 57.833 39 100.5s-13 76.167 -39 100.5s-61.667 36.5 -107 36.5h-69v-274h69z" />
    <glyph glyph-name="dcaron" unicode="&#x10f;" horiz-adv-x="848" 
d="M153.5 21c-41 23.333 -72.833 56.168 -95.5 98.501s-34 91.166 -34 146.499s11.333 104.166 34 146.499s54.5 75.333 95.5 99s87.833 35.5 140.5 35.5c52 0 98 -11.333 138 -34v227h228v-740h-163l-20 52c-23.333 -21.333 -50.5 -37.666 -81.5 -48.999
s-64.833 -17 -101.5 -17c-52.667 0 -99.5 11.667 -140.5 35zM272.5 196.502c17.667 -17.667 40.834 -26.5 69.501 -26.5s51.834 8.83301 69.501 26.5s26.5 40.834 26.5 69.501s-8.83301 52 -26.5 70s-40.834 27 -69.501 27s-51.834 -9 -69.501 -27s-26.5 -41.333 -26.5 -70
s8.83301 -51.834 26.5 -69.501zM729 740.002h181l-47 -215h-151z" />
    <glyph glyph-name="Dcroat" unicode="&#x110;" horiz-adv-x="823" 
d="M98 259h-91v179h91v262h315c76.667 0 144 -14.333 202 -43s102.833 -69.5 134.5 -122.5s47.5 -114.5 47.5 -184.5s-15.833 -131.333 -47.5 -184s-76.5 -93.5 -134.5 -122.5s-125.333 -43.5 -202 -43.5h-315v259zM405 203c46 0 83 13 111 39s42 62 42 108s-14 82 -42 108
s-65 39 -111 39h-73v-71h105v-152h-105v-71h73z" />
    <glyph glyph-name="dcroat" unicode="&#x111;" horiz-adv-x="742" 
d="M153.5 20.5c-41 23 -72.833 55.333 -95.5 97s-34 89.167 -34 142.5s11.333 100.833 34 142.5s54.5 74.167 95.5 97.5s87.5 35 139.5 35c51.333 0 97 -11.333 137 -34v66h-128v123h128v50h228v-50h80v-129h-80v-561h-163l-21 51c-23.333 -20.667 -50.333 -36.667 -81 -48
s-64 -17 -100 -17c-52 0 -98.5 11.5 -139.5 34.5zM272 192c17.333 -17.333 40 -26 68 -26c27.333 0 49.666 8.66699 66.999 26s26 40.333 26 69c0 28 -8.66699 50.833 -26 68.5s-39.666 26.5 -66.999 26.5c-28 0 -50.667 -8.83301 -68 -26.5s-26 -40.5 -26 -68.5
c0 -28.667 8.66699 -51.667 26 -69z" />
    <glyph glyph-name="Emacron" unicode="&#x112;" horiz-adv-x="616" 
d="M63 700h504v-179h-269v-81h243v-174h-243v-84h279v-182h-514v700zM132 900h362v-121h-362v121z" />
    <glyph glyph-name="emacron" unicode="&#x113;" horiz-adv-x="667" 
d="M172 20.5c-46.667 23.667 -83.001 56.8311 -109.001 99.498s-39 91.334 -39 146.001s13.167 103.334 39.5 146.001s62.833 75.834 109.5 99.501s100.334 35.5 161.001 35.5c66 0 122.833 -13.5 170.5 -40.5s83.5 -65.5 107.5 -115.5s34.333 -108 31 -174h-398
c6 -24 17.333 -42 34 -54s36.667 -18 60 -18c16.667 0 32.167 2.83301 46.5 8.5s25.833 13.5 34.5 23.5h214c-22 -60.667 -59.5 -107.834 -112.5 -141.501s-116.167 -50.5 -189.5 -50.5c-60 0 -113.333 11.833 -160 35.5zM163.999 730.997h341v-121h-341v121z
M428.999 321.997c-6.66699 21.333 -17.668 37.833 -33.001 49.5s-34.666 17.5 -57.999 17.5c-22.667 0 -42 -5.66699 -58 -17s-27.333 -28 -34 -50h183z" />
    <glyph glyph-name="Ebreve" unicode="&#x114;" horiz-adv-x="616" 
d="M63 700h504v-179h-269v-81h243v-174h-243v-84h279v-182h-514v700zM150 919h126v-9c0 -11.333 3.16699 -20.166 9.5 -26.499s15.5 -9.5 27.5 -9.5c11.333 0 20.333 3.16699 27 9.5s10 15.166 10 26.499v9h125v-16c0 -46 -13.5 -81.333 -40.5 -106s-67.5 -37 -121.5 -37
c-52 0 -92.167 12.5 -120.5 37.5s-42.5 60.167 -42.5 105.5v16z" />
    <glyph glyph-name="ebreve" unicode="&#x115;" horiz-adv-x="667" 
d="M172 20.5c-46.667 23.667 -83.001 56.8311 -109.001 99.498s-39 91.334 -39 146.001s13.167 103.334 39.5 146.001s62.833 75.834 109.5 99.501s100.334 35.5 161.001 35.5c66 0 122.833 -13.5 170.5 -40.5s83.5 -65.5 107.5 -115.5s34.333 -108 31 -174h-398
c6 -24 17.333 -42 34 -54s36.667 -18 60 -18c16.667 0 32.167 2.83301 46.5 8.5s25.833 13.5 34.5 23.5h214c-22 -60.667 -59.5 -107.834 -112.5 -141.501s-116.167 -50.5 -189.5 -50.5c-60 0 -113.333 11.833 -160 35.5zM162.999 762.997h126.001v-15
c0 -14 4 -24.5 12 -31.5s19 -10.5 33 -10.5c13.333 0 24 3.5 32 10.5s12 17.5 12 31.5v15h126v-24c0 -48 -14.667 -84.5 -44 -109.5s-71.333 -37.5 -126 -37.5s-96.834 12.5 -126.501 37.5s-44.5 61.5 -44.5 109.5v24zM429 321.997
c-6.66699 21.333 -17.668 37.833 -33.001 49.5s-34.666 17.5 -57.999 17.5c-22.667 0 -42 -5.66699 -58 -17s-27.333 -28 -34 -50h183z" />
    <glyph glyph-name="Edotaccent" unicode="&#x116;" horiz-adv-x="616" 
d="M63 700h504v-179h-269v-81h243v-174h-243v-84h279v-182h-514v700zM230.5 940.5c21 20.333 48.5 30.5 82.5 30.5c33.333 0 60.5 -10.167 81.5 -30.5s31.5 -46.5 31.5 -78.5s-10.5 -58 -31.5 -78s-48.167 -30 -81.5 -30c-34 0 -61.5 10 -82.5 30s-31.5 46 -31.5 78
s10.5 58.167 31.5 78.5z" />
    <glyph glyph-name="edotaccent" unicode="&#x117;" horiz-adv-x="667" 
d="M172 20.5c-46.667 23.667 -83.001 56.8311 -109.001 99.498s-39 91.334 -39 146.001s13.167 103.334 39.5 146.001s62.833 75.834 109.5 99.501s100.334 35.5 161.001 35.5c66 0 122.833 -13.5 170.5 -40.5s83.5 -65.5 107.5 -115.5s34.333 -108 31 -174h-398
c6 -24 17.333 -42 34 -54s36.667 -18 60 -18c16.667 0 32.167 2.83301 46.5 8.5s25.833 13.5 34.5 23.5h214c-22 -60.667 -59.5 -107.834 -112.5 -141.501s-116.167 -50.5 -189.5 -50.5c-60 0 -113.333 11.833 -160 35.5zM254.999 775.497c20 19 46.333 28.5 79 28.5
s59 -9.5 79 -28.5s30 -44.167 30 -75.5s-10 -56.5 -30 -75.5s-46.333 -28.5 -79 -28.5s-59 9.5 -79 28.5s-30 44.167 -30 75.5s10 56.5 30 75.5zM428.999 321.997c-6.66699 21.333 -17.668 37.833 -33.001 49.5s-34.666 17.5 -57.999 17.5c-22.667 0 -42 -5.66699 -58 -17
s-27.333 -28 -34 -50h183z" />
    <glyph glyph-name="Eogonek" unicode="&#x118;" horiz-adv-x="616" 
d="M63 700h503.999v-179h-269v-81h243v-174h-243v-84h279v-182c-17.333 -10.667 -31 -22.5 -41 -35.5s-15 -25.833 -15 -38.5c0 -20 11.667 -30 35 -30h21v-113h-83c-41.333 0 -73.666 8.83301 -96.999 26.5s-35 42.167 -35 73.5c0 41.333 21.333 80.333 64 117h-363v700z
" />
    <glyph glyph-name="eogonek" unicode="&#x119;" horiz-adv-x="667" 
d="M301.5 -176c-22.333 16.667 -33.498 39.999 -33.498 69.999c0 30.667 13 61 39 91c-56 3.33301 -105.333 17.333 -148 42s-75.834 57.667 -99.501 99s-35.5 88 -35.5 140c0 54.667 13.167 103.334 39.5 146.001s62.833 75.834 109.5 99.501s100.334 35.5 161.001 35.5
c66 0 122.833 -13.5 170.5 -40.5s83.5 -65.333 107.5 -115s34.333 -107.834 31 -174.501h-398c5.33301 -23.333 16.166 -41.166 32.499 -53.499s36.833 -18.5 61.5 -18.5c16.667 0 32.167 2.83301 46.5 8.5s25.833 13.5 34.5 23.5h214c-12.667 -36 -31.5 -68 -56.5 -96
s-54.167 -49.667 -87.5 -65c-22.667 -10.667 -39.834 -22.834 -51.501 -36.501s-17.5 -27.5 -17.5 -41.5c0 -20 11.333 -30 34 -30h20v-109h-80c-40 0 -71.167 8.33301 -93.5 25zM428.002 321.999c-6.66699 21.333 -17.667 37.833 -33 49.5s-34.333 17.5 -57 17.5
c-24 0 -43.833 -6 -59.5 -18s-26.167 -28.333 -31.5 -49h181z" />
    <glyph glyph-name="Ecaron" unicode="&#x11a;" horiz-adv-x="616" 
d="M63 700h504v-179h-269v-81h243v-174h-243v-84h279v-182h-514v700zM266 919l47 -51l46 51h160l-125 -154h-162l-126 154h160z" />
    <glyph glyph-name="ecaron" unicode="&#x11b;" horiz-adv-x="667" 
d="M172 20.5c-46.667 23.667 -83.001 56.8311 -109.001 99.498s-39 91.334 -39 146.001s13.167 103.334 39.5 146.001s62.833 75.834 109.5 99.501s100.334 35.5 161.001 35.5c66 0 122.833 -13.5 170.5 -40.5s83.5 -65.5 107.5 -115.5s34.333 -108 31 -174h-398
c6 -24 17.333 -42 34 -54s36.667 -18 60 -18c16.667 0 32.167 2.83301 46.5 8.5s25.833 13.5 34.5 23.5h214c-22 -60.667 -59.5 -107.834 -112.5 -141.501s-116.167 -50.5 -189.5 -50.5c-60 0 -113.333 11.833 -160 35.5zM287.999 761.997l47 -58l46 58h160l-125 -166h-162
l-126 166h160zM428.999 321.997c-6.66699 21.333 -17.668 37.833 -33.001 49.5s-34.666 17.5 -57.999 17.5c-22.667 0 -42 -5.66699 -58 -17s-27.333 -28 -34 -50h183z" />
    <glyph glyph-name="Gcircumflex" unicode="&#x11c;" horiz-adv-x="809" 
d="M208 31c-57.333 30.667 -101.837 73.6709 -133.504 129.004s-47.5 118.666 -47.5 189.999s15.833 134.666 47.5 189.999s76 98.333 133 129s122.167 46 195.5 46c60.667 0 116.334 -10.5 167.001 -31.5s93.5 -51 128.5 -90s59.167 -84.5 72.5 -136.5h-245
c-12 17.333 -28.5 30.833 -49.5 40.5s-44.5 14.5 -70.5 14.5c-46 0 -83 -14.833 -111 -44.5s-42 -68.834 -42 -117.501c0 -48 13.833 -87.167 41.5 -117.5s65.834 -45.5 114.501 -45.5c32 0 59.333 6.66699 82 20s39.334 31.666 50.001 54.999h-172v146h412
c2 -18 3 -35.667 3 -53c0 -72 -15.5 -136 -46.5 -192s-75.167 -99.667 -132.5 -131s-123.666 -47 -198.999 -47c-74.667 0 -140.667 15.333 -198 46zM322.996 919.004h162l125 -154h-159l-47 51l-47 -51h-159z" />
    <glyph glyph-name="gcircumflex" unicode="&#x11d;" horiz-adv-x="705" 
d="M133 -181c-52.667 37.333 -80.665 89.332 -83.998 155.999h217c2.66699 -14.667 10.5 -26 23.5 -34s30.5 -12 52.5 -12c27.333 0 47.5 6.83301 60.5 20.5s19.5 34.834 19.5 63.501v41c-41.333 -24.667 -89.333 -37 -144 -37c-49.333 0 -93.333 11.167 -132 33.5
s-68.667 53.5 -90 93.5s-32 86 -32 138s10.667 98 32 138s51.333 71.167 90 93.5s82.667 33.5 132 33.5c37.333 0 71.833 -6 103.5 -18s59.167 -29 82.5 -51l21 55h163v-505c0 -86 -26.833 -151.667 -80.5 -197s-127.834 -68 -222.501 -68
c-88.667 0 -159.334 18.667 -212.001 56zM265.002 762.999h162l126 -166h-160l-47 58l-47 -58h-159zM271.502 215.999c16.333 -16.667 37.833 -25 64.5 -25c26 0 47.167 8.33301 63.5 25s24.5 38.334 24.5 65.001s-8.16699 48.334 -24.5 65.001s-37.5 25 -63.5 25
c-26.667 0 -48.167 -8.33301 -64.5 -25s-24.5 -38.334 -24.5 -65.001s8.16699 -48.334 24.5 -65.001z" />
    <glyph glyph-name="Gbreve" unicode="&#x11e;" horiz-adv-x="809" 
d="M208 31c-57.333 30.667 -101.837 73.6709 -133.504 129.004s-47.5 118.666 -47.5 189.999s15.833 134.666 47.5 189.999s76 98.333 133 129s122.167 46 195.5 46c60.667 0 116.334 -10.5 167.001 -31.5s93.5 -51 128.5 -90s59.167 -84.5 72.5 -136.5h-245
c-12 17.333 -28.5 30.833 -49.5 40.5s-44.5 14.5 -70.5 14.5c-46 0 -83 -14.833 -111 -44.5s-42 -68.834 -42 -117.501c0 -48 13.833 -87.167 41.5 -117.5s65.834 -45.5 114.501 -45.5c32 0 59.333 6.66699 82 20s39.334 31.666 50.001 54.999h-172v146h412
c2 -18 3 -35.667 3 -53c0 -72 -15.5 -136 -46.5 -192s-75.167 -99.667 -132.5 -131s-123.666 -47 -198.999 -47c-74.667 0 -140.667 15.333 -198 46zM241.996 919.004h125v-9c0 -11.333 3.16699 -20.166 9.5 -26.499s15.5 -9.5 27.5 -9.5s21.167 3.16699 27.5 9.5
s9.5 15.166 9.5 26.499v9h125v-16c0 -46 -13.5 -81.333 -40.5 -106s-67.5 -37 -121.5 -37c-52 0 -92 12.5 -120 37.5s-42 60.167 -42 105.5v16z" />
    <glyph glyph-name="gbreve" unicode="&#x11f;" horiz-adv-x="705" 
d="M133 -181c-52.667 37.333 -80.665 89.332 -83.998 155.999h217c2.66699 -14.667 10.5 -26 23.5 -34s30.5 -12 52.5 -12c27.333 0 47.5 6.83301 60.5 20.5s19.5 34.834 19.5 63.501v41c-41.333 -24.667 -89.333 -37 -144 -37c-49.333 0 -93.333 11.167 -132 33.5
s-68.667 53.5 -90 93.5s-32 86 -32 138s10.667 98 32 138s51.333 71.167 90 93.5s82.667 33.5 132 33.5c37.333 0 71.833 -6 103.5 -18s59.167 -29 82.5 -51l21 55h163v-505c0 -86 -26.833 -151.667 -80.5 -197s-127.834 -68 -222.501 -68
c-88.667 0 -159.334 18.667 -212.001 56zM175.002 762.999h126.001v-15c0 -14 4 -24.5 12 -31.5s19 -10.5 33 -10.5c13.333 0 24 3.5 32 10.5s12 17.5 12 31.5v15h126v-24c0 -48 -14.667 -84.5 -44 -109.5s-71.333 -37.5 -126 -37.5s-96.834 12.5 -126.501 37.5
s-44.5 61.5 -44.5 109.5v24zM271.503 215.999c16.333 -16.667 37.833 -25 64.5 -25c26 0 47.167 8.33301 63.5 25s24.5 38.334 24.5 65.001s-8.16699 48.334 -24.5 65.001s-37.5 25 -63.5 25c-26.667 0 -48.167 -8.33301 -64.5 -25s-24.5 -38.334 -24.5 -65.001
s8.16699 -48.334 24.5 -65.001z" />
    <glyph glyph-name="Gdotaccent" unicode="&#x120;" horiz-adv-x="809" 
d="M208 31c-57.333 30.667 -101.837 73.6709 -133.504 129.004s-47.5 118.666 -47.5 189.999s15.833 134.666 47.5 189.999s76 98.333 133 129s122.167 46 195.5 46c60.667 0 116.334 -10.5 167.001 -31.5s93.5 -51 128.5 -90s59.167 -84.5 72.5 -136.5h-245
c-12 17.333 -28.5 30.833 -49.5 40.5s-44.5 14.5 -70.5 14.5c-46 0 -83 -14.833 -111 -44.5s-42 -68.834 -42 -117.501c0 -48 13.833 -87.167 41.5 -117.5s65.834 -45.5 114.501 -45.5c32 0 59.333 6.66699 82 20s39.334 31.666 50.001 54.999h-172v146h412
c2 -18 3 -35.667 3 -53c0 -72 -15.5 -136 -46.5 -192s-75.167 -99.667 -132.5 -131s-123.666 -47 -198.999 -47c-74.667 0 -140.667 15.333 -198 46zM322.496 940.504c21 20.333 48.167 30.5 81.5 30.5s60.5 -10.167 81.5 -30.5s31.5 -46.5 31.5 -78.5s-10.5 -58 -31.5 -78
s-48.167 -30 -81.5 -30s-60.5 10 -81.5 30s-31.5 46 -31.5 78s10.5 58.167 31.5 78.5z" />
    <glyph glyph-name="gdotaccent" unicode="&#x121;" horiz-adv-x="705" 
d="M133 -181c-52.667 37.333 -80.665 89.332 -83.998 155.999h217c2.66699 -14.667 10.5 -26 23.5 -34s30.5 -12 52.5 -12c27.333 0 47.5 6.83301 60.5 20.5s19.5 34.834 19.5 63.501v41c-41.333 -24.667 -89.333 -37 -144 -37c-49.333 0 -93.333 11.167 -132 33.5
s-68.667 53.5 -90 93.5s-32 86 -32 138s10.667 98 32 138s51.333 71.167 90 93.5s82.667 33.5 132 33.5c37.333 0 71.833 -6 103.5 -18s59.167 -29 82.5 -51l21 55h163v-505c0 -86 -26.833 -151.667 -80.5 -197s-127.834 -68 -222.501 -68
c-88.667 0 -159.334 18.667 -212.001 56zM267.002 775.499c20 19 46.333 28.5 79 28.5s59 -9.5 79 -28.5s30 -44.167 30 -75.5s-10 -56.5 -30 -75.5s-46.333 -28.5 -79 -28.5s-59 9.5 -79 28.5s-30 44.167 -30 75.5s10 56.5 30 75.5zM271.502 215.999
c16.333 -16.667 37.833 -25 64.5 -25c26 0 47.167 8.33301 63.5 25s24.5 38.334 24.5 65.001s-8.16699 48.334 -24.5 65.001s-37.5 25 -63.5 25c-26.667 0 -48.167 -8.33301 -64.5 -25s-24.5 -38.334 -24.5 -65.001s8.16699 -48.334 24.5 -65.001z" />
    <glyph glyph-name="uni0122" unicode="&#x122;" horiz-adv-x="809" 
d="M208 31c-57.333 30.667 -101.837 73.6709 -133.504 129.004s-47.5 118.666 -47.5 189.999s15.833 134.666 47.5 189.999s76 98.333 133 129s122.167 46 195.5 46c60.667 0 116.334 -10.5 167.001 -31.5s93.5 -51 128.5 -90s59.167 -84.5 72.5 -136.5h-245
c-12 17.333 -28.5 30.833 -49.5 40.5s-44.5 14.5 -70.5 14.5c-46 0 -83 -14.833 -111 -44.5s-42 -68.834 -42 -117.501c0 -48 13.833 -87.167 41.5 -117.5s65.834 -45.5 114.501 -45.5c32 0 59.333 6.66699 82 20s39.334 31.666 50.001 54.999h-172v146h412
c2 -18 3 -35.667 3 -53c0 -72 -15.5 -136 -46.5 -192s-75.167 -99.667 -132.5 -131s-123.666 -47 -198.999 -47c-74.667 0 -140.667 15.333 -198 46zM354.496 -83.4961c15 14.333 34.502 21.501 58.502 21.501c28 0 49.833 -10.167 65.5 -30.5s23.5 -45.833 23.5 -76.5
c0 -26 -5.33301 -50.833 -16 -74.5s-26.334 -43 -47.001 -58s-45 -23.167 -73 -24.5v66c15.333 3.33301 27.166 8.66602 35.499 15.999s13.166 18 14.499 32h-6c-23.333 0 -42.166 6.83301 -56.499 20.5s-21.5 31.5 -21.5 53.5s7.5 40.167 22.5 54.5z" />
    <glyph glyph-name="uni0123" unicode="&#x123;" horiz-adv-x="705" 
d="M133 -181c-52.667 37.333 -80.665 89.332 -83.998 155.999h217c2.66699 -14.667 10.5 -26 23.5 -34s30.5 -12 52.5 -12c27.333 0 47.5 6.83301 60.5 20.5s19.5 34.834 19.5 63.501v41c-41.333 -24.667 -89.333 -37 -144 -37c-49.333 0 -93.333 11.167 -132 33.5
s-68.667 53.5 -90 93.5s-32 86 -32 138s10.667 98 32 138s51.333 71.167 90 93.5s82.667 33.5 132 33.5c37.333 0 71.833 -6 103.5 -18s59.167 -29 82.5 -51l21 55h163v-505c0 -86 -26.833 -151.667 -80.5 -197s-127.834 -68 -222.501 -68
c-88.667 0 -159.334 18.667 -212.001 56zM271.502 215.999c16.333 -16.667 37.833 -25 64.5 -25c26 0 47.167 8.33301 63.5 25s24.5 38.334 24.5 65.001s-8.16699 48.334 -24.5 65.001s-37.5 25 -63.5 25c-26.667 0 -48.167 -8.33301 -64.5 -25s-24.5 -38.334 -24.5 -65.001
s8.16699 -48.334 24.5 -65.001zM275.002 776.499c10.667 23.667 26.332 42.999 46.999 57.999s45 23.167 73 24.5v-66c-15.333 -3.33301 -27.166 -8.66602 -35.499 -15.999s-13.5 -18 -15.5 -32h7c22.667 0 41.167 -6.83301 55.5 -20.5s21.5 -31.5 21.5 -53.5
s-7.5 -40.167 -22.5 -54.5s-34.167 -21.5 -57.5 -21.5c-28 0 -49.833 10.167 -65.5 30.5s-23.5 45.833 -23.5 76.5c0 26 5.33301 50.833 16 74.5z" />
    <glyph glyph-name="Hcircumflex" unicode="&#x124;" horiz-adv-x="774" 
d="M469 246h-164v-246h-242v700h242v-234h164v234h242v-700h-242v246zM306 919h162l125 -154h-159l-47 51l-47 -51h-160z" />
    <glyph glyph-name="hcircumflex" unicode="&#x125;" horiz-adv-x="688" 
d="M57 740l228 -0.00195312v-234c38.667 27.333 84.667 41 138 41c66.667 0 119.5 -20.5 158.5 -61.5s58.5 -96.833 58.5 -167.5v-318h-228v289c0 24.667 -5.33301 43.334 -16 56.001s-26 19 -46 19c-20.667 0 -36.667 -6.66699 -48 -20s-17 -32.666 -17 -57.999v-286h-228
v740zM90 958.998h162l125 -154h-159l-47 51l-47 -51h-160z" />
    <glyph glyph-name="Hbar" unicode="&#x126;" horiz-adv-x="858" 
d="M511 227h-164v-227h-242v504h-89v132h89v64h242v-64h164v64h242v-64h89v-132h-89v-504h-242v227zM513 422v86h-168v-86h168z" />
    <glyph glyph-name="hbar" unicode="&#x127;" horiz-adv-x="726" 
d="M95 560l-90 -0.00195312v129h90v51h228v-51h129v-123h-129v-76c38.667 27.333 84.667 41 138 41c66.667 0 119.5 -20.667 158.5 -62s58.5 -97 58.5 -167v-302h-228v274c0 24.667 -5.33301 43.334 -16 56.001s-26 19 -46 19c-20.667 0 -36.667 -6.66699 -48 -20
s-17 -32.666 -17 -57.999v-271h-228v560z" />
    <glyph glyph-name="Itilde" unicode="&#x128;" horiz-adv-x="367" 
d="M63 700h242v-700h-242v700zM2 800c0 38 9 67.167 27 87.5s44.333 30.5 79 30.5c16.667 0 31 -2.16699 43 -6.5s24 -10.166 36 -17.499c8 -4.66699 14.5 -8.16699 19.5 -10.5s10.5 -3.5 16.5 -3.5c12.667 0 19 7.33301 19 22v13h125v-31c0 -38.667 -9 -68 -27 -88
s-44.333 -30 -79 -30c-16.667 0 -31 2.16699 -43 6.5s-24 10.166 -36 17.499c-8 4.66699 -14.5 8.16699 -19.5 10.5s-10.5 3.5 -16.5 3.5c-12.667 0 -19 -7.33301 -19 -22v-13h-125v31z" />
    <glyph glyph-name="itilde" unicode="&#x129;" horiz-adv-x="342" 
d="M57 533h228v-533h-228v533zM1 633c0 36.667 8.33203 64.668 24.999 84.001s41 29 73 29c16 0 29.333 -2 40 -6s22.334 -9.66699 35.001 -17c5.33301 -3.33301 10.666 -6.33301 15.999 -9s10.333 -4 15 -4c6 0 10.167 1.66699 12.5 5s3.5 8.66602 3.5 15.999v12h119v-29
c0 -36.667 -8.33301 -64.667 -25 -84s-41 -29 -73 -29c-16 0 -29.667 2 -41 6s-23 9.66699 -35 17c-5.33301 3.33301 -10.666 6.33301 -15.999 9s-10.333 4 -15 4c-10.667 0 -16 -7 -16 -21v-12h-118v29z" />
    <glyph glyph-name="Imacron" unicode="&#x12a;" horiz-adv-x="367" 
d="M63 700h242v-700h-242v700zM11 900h345v-121h-345v121z" />
    <glyph glyph-name="imacron" unicode="&#x12b;" horiz-adv-x="342" 
d="M57 533h228v-533h-228v533zM12 731h318v-121h-318v121z" />
    <glyph glyph-name="Ibreve" unicode="&#x12c;" horiz-adv-x="367" 
d="M63 700h242v-700h-242v700zM21 919h126v-9c0 -11.333 3.16699 -20.166 9.5 -26.499s15.5 -9.5 27.5 -9.5s21.167 3.16699 27.5 9.5s9.5 15.166 9.5 26.499v9h125v-16c0 -46 -13.5 -81.333 -40.5 -106s-67.5 -37 -121.5 -37c-52 0 -92.167 12.5 -120.5 37.5
s-42.5 60.167 -42.5 105.5v16z" />
    <glyph glyph-name="ibreve" unicode="&#x12d;" horiz-adv-x="342" 
d="M57 533h228v-533h-228v533zM15 763h122v-17c0 -26.667 11 -40 33 -40s33 13.333 33 40v17h123v-26c0 -47.333 -13.5 -83.333 -40.5 -108s-65.5 -37 -115.5 -37s-88.333 12.333 -115 37s-40 60.667 -40 108v26z" />
    <glyph glyph-name="Iogonek" unicode="&#x12e;" horiz-adv-x="367" 
d="M63 700h242.001v-700c-16.667 -10 -29.834 -21.333 -39.501 -34s-14.5 -25 -14.5 -37c0 -19.333 11.333 -29 34 -29h20v-109h-80c-40 0 -71.167 8.5 -93.5 25.5s-33.5 40.5 -33.5 70.5c0 40 20.667 77.667 62 113h-97v700z" />
    <glyph glyph-name="iogonek" unicode="&#x12f;" horiz-adv-x="342" 
d="M57 533h228.001v-533c-16.667 -10 -29.834 -21.333 -39.501 -34s-14.5 -25 -14.5 -37c0 -19.333 11.333 -29 34 -29h20v-109h-80c-40 0 -71.167 8.5 -93.5 25.5s-33.5 40.5 -33.5 70.5c0 40 20.667 77.667 62 113h-83v533zM76.001 809.5c24 23 55.667 34.5 95 34.5
c38.667 0 70 -11.5 94 -34.5s36 -53.167 36 -90.5s-12 -67.666 -36 -90.999s-55.333 -35 -94 -35c-39.333 0 -71 11.667 -95 35s-36 53.666 -36 90.999s12 67.5 36 90.5z" />
    <glyph glyph-name="Idotaccent" unicode="&#x130;" horiz-adv-x="367" 
d="M63 700h242v-700h-242v700zM101.5 940.5c21 20.333 48.5 30.5 82.5 30.5c33.333 0 60.5 -10.167 81.5 -30.5s31.5 -46.5 31.5 -78.5s-10.5 -58 -31.5 -78s-48.167 -30 -81.5 -30c-34 0 -61.5 10 -82.5 30s-31.5 46 -31.5 78s10.5 58.167 31.5 78.5z" />
    <glyph glyph-name="dotlessi" unicode="&#x131;" horiz-adv-x="342" 
d="M57 533h228v-533h-228v533z" />
    <glyph glyph-name="IJ" unicode="&#x132;" horiz-adv-x="891" 
d="M63 700h242v-700h-242v700zM396 220h103c30.667 0 53 7 67 21s21 37 21 69v390h242v-423c0 -89.333 -25.667 -157.833 -77 -205.5s-124.333 -71.5 -219 -71.5h-137v220z" />
    <glyph glyph-name="ij" unicode="&#x133;" horiz-adv-x="687" 
d="M57 533h228v-533h-228v533zM76 809.5c24 23 55.667 34.5 95 34.5c38.667 0 70 -11.5 94 -34.5s36 -53.167 36 -90.5s-12 -67.666 -36 -90.999s-55.333 -35 -94 -35c-39.333 0 -71 11.667 -95 35s-36 53.666 -36 90.999s12 67.5 36 90.5zM285 -58h51c44 0 66 23 66 69v522
h228v-527c0 -172 -85 -258 -255 -258h-90v194zM418.5 809.5c24.333 23 55.833 34.5 94.5 34.5s70.167 -11.5 94.5 -34.5s36.5 -53.167 36.5 -90.5s-12.167 -67.666 -36.5 -90.999s-55.833 -35 -94.5 -35s-70.167 11.667 -94.5 35s-36.5 53.666 -36.5 90.999
s12.167 67.5 36.5 90.5z" />
    <glyph glyph-name="Jcircumflex" unicode="&#x134;" horiz-adv-x="523" 
d="M29 220h103c30.667 0 53 7 67 21s21 37 21 69v390h242v-423c0 -89.333 -25.667 -157.833 -77 -205.5s-124.333 -71.5 -219 -71.5h-137v220zM260 919h162l115 -154h-159l-37 50l-37 -50h-160z" />
    <glyph glyph-name="jcircumflex" unicode="&#x135;" horiz-adv-x="345" 
d="M-56 -58h50c44.667 0 67 23 67 69v522h228v-527c0 -172 -85.333 -258 -256 -258h-89v194zM94 759h162l130 -161h-172l-39 56l-39 -56h-172z" />
    <glyph glyph-name="uni0136" unicode="&#x136;" horiz-adv-x="781" 
d="M63 700l242.001 -0.000976562v-235h21c30 0 51.167 4.33301 63.5 13s22.833 26 31.5 52l57 170h260l-101 -270c-14.667 -37.333 -30.334 -67.666 -47.001 -90.999l172 -339h-276l-116 249h-65v-249h-242v700zM340.001 -83.501
c14.667 14.333 34.0029 21.501 58.0029 21.501c28 0 49.833 -10.167 65.5 -30.5s23.5 -45.833 23.5 -76.5c0 -26 -5.33301 -50.833 -16 -74.5s-26.334 -43 -47.001 -58s-45 -23.167 -73 -24.5v66c15.333 3.33301 27.166 8.66602 35.499 15.999s13.166 18 14.499 32h-6
c-22.667 0 -41.167 6.83301 -55.5 20.5s-21.5 31.5 -21.5 53.5s7.33301 40.167 22 54.5z" />
    <glyph glyph-name="uni0137" unicode="&#x137;" horiz-adv-x="687" 
d="M57 740l227.999 -0.000976562v-371h12c23.333 0 40.333 3.33301 51 10s18.667 19.334 24 38.001l36 116h239l-73 -205c-11.333 -30 -24.666 -55 -39.999 -75l137 -253h-258l-86 177h-42v-177h-228v740zM289.499 -83.501c15 14.333 34.1689 21.501 57.502 21.501
c28 0 49.833 -10.167 65.5 -30.5s23.5 -45.833 23.5 -76.5c0 -26 -5.33301 -50.833 -16 -74.5s-26.334 -43 -47.001 -58s-45 -23.167 -73 -24.5v66c15.333 3.33301 27.166 8.66602 35.499 15.999s13.5 18 15.5 32h-7c-22.667 0 -41.167 6.83301 -55.5 20.5
s-21.5 31.5 -21.5 53.5s7.5 40.167 22.5 54.5z" />
    <glyph glyph-name="kgreenlandic" unicode="&#x138;" horiz-adv-x="687" 
d="M57 533l227.999 -0.000976562v-164h12c23.333 0 40.333 3.33301 51 10s18.667 19.334 24 38.001l36 116h239l-73 -205c-11.333 -30 -24.666 -55 -39.999 -75l137 -253h-258l-86 177h-42v-177h-228v533z" />
    <glyph glyph-name="Lacute" unicode="&#x139;" horiz-adv-x="596" 
d="M63 700h242v-479h266v-221h-508v700zM166 919h178l-83 -154h-150z" />
    <glyph glyph-name="lacute" unicode="&#x13a;" horiz-adv-x="342" 
d="M57 740h228v-740h-228v740zM153 959h178l-83 -154h-150z" />
    <glyph glyph-name="uni013B" unicode="&#x13b;" horiz-adv-x="596" 
d="M63 700h242v-479h266v-221h-508v700zM260.5 -83.5c15 14.333 34.502 21.501 58.502 21.501c28 0 49.833 -10.167 65.5 -30.5s23.5 -45.833 23.5 -76.5c0 -26 -5.33301 -50.833 -16 -74.5s-26.334 -43 -47.001 -58s-45 -23.167 -73 -24.5v66
c15.333 3.33301 27.166 8.66602 35.499 15.999s13.166 18 14.499 32h-6c-23.333 0 -42.166 6.83301 -56.499 20.5s-21.5 31.5 -21.5 53.5s7.5 40.167 22.5 54.5z" />
    <glyph glyph-name="uni013C" unicode="&#x13c;" horiz-adv-x="342" 
d="M57 740h228v-740h-228v740zM114 -83.5c14.667 14.333 34.002 21.501 58.002 21.501c28 0 49.833 -10.167 65.5 -30.5s23.5 -45.833 23.5 -76.5c0 -26 -5.33301 -50.833 -16 -74.5s-26.334 -43 -47.001 -58s-45 -23.167 -73 -24.5v66
c15.333 3.33301 27.166 8.66602 35.499 15.999s13.5 18 15.5 32h-7c-22.667 0 -41.167 6.83301 -55.5 20.5s-21.5 31.5 -21.5 53.5s7.33301 40.167 22 54.5z" />
    <glyph glyph-name="Lcaron" unicode="&#x13d;" horiz-adv-x="614" 
d="M63 700h242v-479h266v-221h-508v700zM428 700h174l-46 -219h-157z" />
    <glyph glyph-name="lcaron" unicode="&#x13e;" horiz-adv-x="473" 
d="M57 740h228v-740h-228v740zM354 740h181l-47 -215h-151z" />
    <glyph glyph-name="Ldot" unicode="&#x13f;" horiz-adv-x="609" 
d="M63 700h242v-479h266v-221h-508v700zM374 470.5c22 21 50 31.5 84 31.5s61.833 -10.5 83.5 -31.5s32.5 -47.833 32.5 -80.5s-10.833 -59.334 -32.5 -80.001s-49.5 -31 -83.5 -31s-62 10.333 -84 31s-33 47.334 -33 80.001s11 59.5 33 80.5z" />
    <glyph glyph-name="ldot" unicode="&#x140;" horiz-adv-x="569" 
d="M57 740h228v-740h-228v740zM353.5 409.5c23 21.667 52.167 32.5 87.5 32.5c36 0 65.333 -10.833 88 -32.5s34 -49.834 34 -84.501s-11.333 -62.834 -34 -84.501s-52 -32.5 -88 -32.5c-35.333 0 -64.5 10.833 -87.5 32.5s-34.5 49.834 -34.5 84.501
s11.5 62.834 34.5 84.501z" />
    <glyph glyph-name="Lslash" unicode="&#x141;" horiz-adv-x="637" 
d="M104 233l-95 -40v186l95 40v281h242v-181l153 64v-186l-153 -64v-115h266v-218h-508v233z" />
    <glyph glyph-name="lslash" unicode="&#x142;" horiz-adv-x="415" 
d="M94 226l-87 -31v190l87 31v324h228v-243l86 30v-190l-86 -30v-307h-228v226z" />
    <glyph glyph-name="Nacute" unicode="&#x143;" horiz-adv-x="784" 
d="M63 700h196l224 -302h4l-2 89v213h237v-700h-196l-225 305h-3l2 -92v-213h-237v700zM373 919h178l-83 -154h-150z" />
    <glyph glyph-name="nacute" unicode="&#x144;" horiz-adv-x="688" 
d="M57 533l162 -0.00195312l22 -56c21.333 22.667 47 40 77 52s63 18 99 18c68.667 0 123 -20.5 163 -61.5s60 -97.167 60 -168.5v-317h-228v289c0 24.667 -5.33301 43.334 -16 56.001s-26 19 -46 19c-20.667 0 -36.667 -6.66699 -48 -20s-17 -32.666 -17 -57.999v-286h-228
v533zM338 762.998h178l-83 -166h-150z" />
    <glyph glyph-name="uni0145" unicode="&#x145;" horiz-adv-x="784" 
d="M63 700h196l224 -302h4l-2 89v213h237v-700h-196l-225 305h-3l2 -92v-213h-237v700zM344 -83.5c14.667 14.333 34.002 21.501 58.002 21.501c28 0 49.833 -10.167 65.5 -30.5s23.5 -45.833 23.5 -76.5c0 -26 -5.33301 -50.833 -16 -74.5s-26.334 -43 -47.001 -58
s-45 -23.167 -73 -24.5v66c15.333 3.33301 27.166 8.66602 35.499 15.999s13.5 18 15.5 32h-7c-22.667 0 -41.167 6.83301 -55.5 20.5s-21.5 31.5 -21.5 53.5s7.33301 40.167 22 54.5z" />
    <glyph glyph-name="uni0146" unicode="&#x146;" horiz-adv-x="688" 
d="M57 533l162 -0.00195312l22 -56c21.333 22.667 47 40 77 52s63 18 99 18c68.667 0 123 -20.5 163 -61.5s60 -97.167 60 -168.5v-317h-228v289c0 24.667 -5.33301 43.334 -16 56.001s-26 19 -46 19c-20.667 0 -36.667 -6.66699 -48 -20s-17 -32.666 -17 -57.999v-286h-228
v533zM292 -83.502c14.667 14.333 34.002 21.501 58.002 21.501c28 0 49.833 -10.167 65.5 -30.5s23.5 -45.833 23.5 -76.5c0 -26 -5.33301 -50.833 -16 -74.5s-26.334 -43 -47.001 -58s-45 -23.167 -73 -24.5v66c15.333 3.33301 27.166 8.66602 35.499 15.999
s13.5 18 15.5 32h-7c-22.667 0 -41.167 6.83301 -55.5 20.5s-21.5 31.5 -21.5 53.5s7.33301 40.167 22 54.5z" />
    <glyph glyph-name="Ncaron" unicode="&#x147;" horiz-adv-x="784" 
d="M63 700h196l224 -302h4l-2 89v213h237v-700h-196l-225 305h-3l2 -92v-213h-237v700zM344 919l47 -51l46 51h160l-125 -154h-162l-126 154h160z" />
    <glyph glyph-name="ncaron" unicode="&#x148;" horiz-adv-x="688" 
d="M57 533l162 -0.00195312l22 -56c21.333 22.667 47 40 77 52s63 18 99 18c68.667 0 123 -20.5 163 -61.5s60 -97.167 60 -168.5v-317h-228v289c0 24.667 -5.33301 43.334 -16 56.001s-26 19 -46 19c-20.667 0 -36.667 -6.66699 -48 -20s-17 -32.666 -17 -57.999v-286h-228
v533zM317 761.998l47 -58l46 58h160l-125 -166h-162l-126 166h160z" />
    <glyph glyph-name="napostrophe" unicode="&#x149;" horiz-adv-x="830" 
d="M198 533l163 -0.000976562l22 -56c20.667 22.667 46 40 76 52s63.333 18 100 18c68.667 0 123 -20.667 163 -62s60 -97.333 60 -168v-317h-228v289c0 24 -5.5 42.5 -16.5 55.5s-26.5 19.5 -46.5 19.5c-20.667 0 -36.667 -6.66699 -48 -20s-17 -32.666 -17 -57.999v-286
h-228v533zM24.5 724.499c16.333 15.667 37.502 23.498 63.502 23.498c30.667 0 54.667 -11.167 72 -33.5s26 -50.166 26 -83.499c0 -29.333 -5.83301 -57 -17.5 -83s-28.834 -47.333 -51.501 -64s-49.334 -25.667 -80.001 -27v74c16.667 3.33301 29.5 9 38.5 17
s14.5 19.667 16.5 35h-7c-25.333 0 -45.833 7.5 -61.5 22.5s-23.5 34.5 -23.5 58.5c0 24.667 8.16699 44.834 24.5 60.501z" />
    <glyph glyph-name="Eng" unicode="&#x14a;" horiz-adv-x="784" 
d="M380 -26h46c21.333 0 37 4 47 12s15 22 15 42v24l-187 253h-3l2 -92v-213h-237v700h196l224 -302h4l-2 89v213h237v-682c0 -78 -20 -135.833 -60 -173.5s-103.667 -56.5 -191 -56.5h-91v186z" />
    <glyph glyph-name="eng" unicode="&#x14b;" horiz-adv-x="688" 
d="M326 -50l21 -0.00195312c43.333 0 65 22.667 65 68v271c0 24.667 -5.33301 43.334 -16 56.001s-26 19 -46 19c-20.667 0 -36.667 -6.66699 -48 -20s-17 -32.666 -17 -57.999v-286h-228v533h162l22 -56c20.667 22.667 46 40 76 52s63.333 18 100 18
c68.667 0 123 -20.5 163 -61.5s60 -97.167 60 -168.5v-322c0 -78 -20.167 -135.833 -60.5 -173.5s-101.5 -56.5 -183.5 -56.5h-70v185z" />
    <glyph glyph-name="Omacron" unicode="&#x14c;" horiz-adv-x="828" 
d="M213 31.5c-58.667 31 -104.334 74.167 -137.001 129.5s-49 118.333 -49 189s16.333 133.667 49 189s78.334 98.5 137.001 129.5s125.667 46.5 201 46.5c76 0 143.333 -15.5 202 -46.5s104.334 -74.167 137.001 -129.5s49 -118.333 49 -189s-16.333 -133.667 -49 -189
s-78.334 -98.5 -137.001 -129.5s-126 -46.5 -202 -46.5c-75.333 0 -142.333 15.5 -201 46.5zM234 900h361v-121h-361v121zM311 245.5c26.667 -27 61 -40.5 103 -40.5s76.5 13.5 103.5 40.5s40.5 61.833 40.5 104.5s-13.5 77.5 -40.5 104.5s-61.5 40.5 -103.5 40.5
s-76.333 -13.5 -103 -40.5s-40 -61.833 -40 -104.5s13.333 -77.5 40 -104.5z" />
    <glyph glyph-name="omacron" unicode="&#x14d;" horiz-adv-x="684" 
d="M176 20c-48 23.333 -85.333 56.166 -112 98.499s-40 91.5 -40 147.5s13.333 105.167 40 147.5s64 75.166 112 98.499s103.333 35 166 35c63.333 0 119 -11.667 167 -35s85.167 -56.166 111.5 -98.499s39.5 -91.5 39.5 -147.5s-13.167 -105.167 -39.5 -147.5
s-63.5 -75.166 -111.5 -98.499s-103.667 -35 -167 -35c-62.667 0 -118 11.667 -166 35zM171 731h342v-121h-342v121zM273 196.5c18 -17.667 41 -26.5 69 -26.5s51 8.83301 69 26.5s27 40.834 27 69.501s-9 52 -27 70s-41 27 -69 27s-51 -9 -69 -27s-27 -41.333 -27 -70
s9 -51.834 27 -69.501z" />
    <glyph glyph-name="Obreve" unicode="&#x14e;" horiz-adv-x="828" 
d="M213 31.5c-58.667 31 -104.334 74.167 -137.001 129.5s-49 118.333 -49 189s16.333 133.667 49 189s78.334 98.5 137.001 129.5s125.667 46.5 201 46.5c76 0 143.333 -15.5 202 -46.5s104.334 -74.167 137.001 -129.5s49 -118.333 49 -189s-16.333 -133.667 -49 -189
s-78.334 -98.5 -137.001 -129.5s-126 -46.5 -202 -46.5c-75.333 0 -142.333 15.5 -201 46.5zM252 919h125v-9c0 -11.333 3.16699 -20.166 9.5 -26.499s15.5 -9.5 27.5 -9.5s21.167 3.16699 27.5 9.5s9.5 15.166 9.5 26.499v9h126v-16c0 -46 -13.667 -81.333 -41 -106
s-68 -37 -122 -37c-52 0 -92 12.5 -120 37.5s-42 60.167 -42 105.5v16zM311 245.5c26.667 -27 61 -40.5 103 -40.5s76.5 13.5 103.5 40.5s40.5 61.833 40.5 104.5s-13.5 77.5 -40.5 104.5s-61.5 40.5 -103.5 40.5s-76.333 -13.5 -103 -40.5s-40 -61.833 -40 -104.5
s13.333 -77.5 40 -104.5z" />
    <glyph glyph-name="obreve" unicode="&#x14f;" horiz-adv-x="684" 
d="M176 20c-48 23.333 -85.333 56.166 -112 98.499s-40 91.5 -40 147.5s13.333 105.167 40 147.5s64 75.166 112 98.499s103.333 35 166 35c63.333 0 119 -11.667 167 -35s85.167 -56.166 111.5 -98.499s39.5 -91.5 39.5 -147.5s-13.167 -105.167 -39.5 -147.5
s-63.5 -75.166 -111.5 -98.499s-103.667 -35 -167 -35c-62.667 0 -118 11.667 -166 35zM171 763h126.001v-15c0 -14 4 -24.5 12 -31.5s18.667 -10.5 32 -10.5c14 0 25 3.5 33 10.5s12 17.5 12 31.5v15h126v-24c0 -48 -14.833 -84.5 -44.5 -109.5
s-71.834 -37.5 -126.501 -37.5s-96.667 12.5 -126 37.5s-44 61.5 -44 109.5v24zM273.001 196.5c18 -17.667 41 -26.5 69 -26.5s51 8.83301 69 26.5s27 40.834 27 69.501s-9 52 -27 70s-41 27 -69 27s-51 -9 -69 -27s-27 -41.333 -27 -70s9 -51.834 27 -69.501z" />
    <glyph glyph-name="Ohungarumlaut" unicode="&#x150;" horiz-adv-x="828" 
d="M213 31.5c-58.667 31 -104.334 74.167 -137.001 129.5s-49 118.333 -49 189s16.333 133.667 49 189s78.334 98.5 137.001 129.5s125.667 46.5 201 46.5c76 0 143.333 -15.5 202 -46.5s104.334 -74.167 137.001 -129.5s49 -118.333 49 -189s-16.333 -133.667 -49 -189
s-78.334 -98.5 -137.001 -129.5s-126 -46.5 -202 -46.5c-75.333 0 -142.333 15.5 -201 46.5zM293 919h165l-79 -154h-141zM311 245.5c26.667 -27 61 -40.5 103 -40.5s76.5 13.5 103.5 40.5s40.5 61.833 40.5 104.5s-13.5 77.5 -40.5 104.5s-61.5 40.5 -103.5 40.5
s-76.333 -13.5 -103 -40.5s-40 -61.833 -40 -104.5s13.333 -77.5 40 -104.5zM514 919h162l-93 -154h-149z" />
    <glyph glyph-name="ohungarumlaut" unicode="&#x151;" horiz-adv-x="684" 
d="M176 20c-48 23.333 -85.333 56.166 -112 98.499s-40 91.5 -40 147.5s13.333 105.167 40 147.5s64 75.166 112 98.499s103.333 35 166 35c63.333 0 119 -11.667 167 -35s85.167 -56.166 111.5 -98.499s39.5 -91.5 39.5 -147.5s-13.167 -105.167 -39.5 -147.5
s-63.5 -75.166 -111.5 -98.499s-103.667 -35 -167 -35c-62.667 0 -118 11.667 -166 35zM225 763h154l-66 -166h-131zM273 196.5c18 -17.667 41 -26.5 69 -26.5s51 8.83301 69 26.5s27 40.834 27 69.501s-9 52 -27 70s-41 27 -69 27s-51 -9 -69 -27s-27 -41.333 -27 -70
s9 -51.834 27 -69.501zM416 763h155l-87 -166h-134z" />
    <glyph glyph-name="OE" unicode="&#x152;" horiz-adv-x="1016" 
d="M211.5 30.5c-57.667 30.333 -102.834 73.168 -135.501 128.501s-49 119 -49 191s16.333 135.667 49 191s77.834 98.166 135.501 128.499s123.167 45.5 196.5 45.5c41.333 0 81 -5 119 -15h441v-179h-252v-81h225v-174h-225v-84h261v-182h-450
c-38 -10 -77.667 -15 -119 -15c-73.333 0 -138.833 15.167 -196.5 45.5zM314 241.002c28.667 -26.667 65 -40 109 -40c26 0 48.667 4.33301 68 13v272c-19.333 8.66699 -42 13 -68 13c-44 0 -80.333 -13.333 -109 -40s-43 -63 -43 -109s14.333 -82.333 43 -109z" />
    <glyph glyph-name="oe" unicode="&#x153;" horiz-adv-x="1056" 
d="M166.5 20c-45 23.333 -80.002 56.332 -105.002 98.999s-37.5 91.667 -37.5 147s12.5 104.333 37.5 147s60 75.667 105 99s96.5 35 154.5 35c44.667 0 85.167 -7 121.5 -21s67.5 -34 93.5 -60c26 26 57 46.167 93 60.5s75.333 21.5 118 21.5
c60.667 0 113.334 -13.667 158.001 -41s78 -66 100 -116s31 -108 27 -174h-395c6 -24 17.333 -42.167 34 -54.5s37.334 -18.5 62.001 -18.5c16.667 0 32 2.83301 46 8.5s25.667 13.834 35 24.501h210c-20.667 -61.333 -55.5 -108.5 -104.5 -141.5s-107.5 -49.5 -175.5 -49.5
c-42 0 -80.667 6.83301 -116 20.5s-65.666 33.5 -90.999 59.5c-26.667 -26 -58.334 -46 -95.001 -60s-77 -21 -121 -21c-58 0 -109.5 11.667 -154.5 35zM272.498 196.499c17.667 -17.667 40.5 -26.5 68.5 -26.5c27.333 0 49.833 8.83301 67.5 26.5s26.5 40.834 26.5 69.501
s-8.83301 52 -26.5 70s-40.167 27 -67.5 27c-28 0 -50.833 -9 -68.5 -27s-26.5 -41.333 -26.5 -70s8.83301 -51.834 26.5 -69.501zM823.998 320.999c-6.66699 22 -17.833 38.833 -33.5 50.5s-35.167 17.5 -58.5 17.5c-24 0 -44 -5.83301 -60 -17.5s-27.333 -28.5 -34 -50.5
h186z" />
    <glyph glyph-name="Racute" unicode="&#x154;" horiz-adv-x="739" 
d="M63 700l346 0.00195312c58.667 0 109.5 -10.333 152.5 -31s76 -50.334 99 -89.001s34.5 -84.334 34.5 -137.001c0 -46 -8.83301 -86.833 -26.5 -122.5s-43.167 -64.5 -76.5 -86.5l117 -234h-266l-83 186h-57v-186h-240v700zM312 919.002h178l-84 -154h-150zM370 364.002
c26.667 0 47.167 6.49902 61.5 19.499s21.5 31.5 21.5 55.5c0 24.667 -7.16699 43.334 -21.5 56.001s-34.833 19 -61.5 19h-71v-150h71z" />
    <glyph glyph-name="racute" unicode="&#x155;" horiz-adv-x="492" 
d="M57 533l162 0.000976562l25 -65c17.333 22.667 38.5 39.167 63.5 49.5s54.833 15.5 89.5 15.5h68v-203h-70c-38.667 0 -66.667 -9.33301 -84 -28s-26 -47.334 -26 -86.001v-216h-228v533zM254 763.001h178l-84 -166h-150z" />
    <glyph glyph-name="uni0156" unicode="&#x156;" horiz-adv-x="739" 
d="M63 700l346 0.00195312c58.667 0 109.5 -10.333 152.5 -31s76 -50.334 99 -89.001s34.5 -84.334 34.5 -137.001c0 -46 -8.83301 -86.833 -26.5 -122.5s-43.167 -64.5 -76.5 -86.5l117 -234h-266l-83 186h-57v-186h-240v700zM321 -83.498
c14.667 14.333 34.0029 21.501 58.0029 21.501c28 0 49.833 -10.167 65.5 -30.5s23.5 -45.833 23.5 -76.5c0 -26 -5.33301 -50.833 -16 -74.5s-26.334 -43 -47.001 -58s-45 -23.167 -73 -24.5v66c15.333 3.33301 27.166 8.66602 35.499 15.999s13.166 18 14.499 32h-6
c-22.667 0 -41.167 6.83301 -55.5 20.5s-21.5 31.5 -21.5 53.5s7.33301 40.167 22 54.5zM370.003 364.003c26.667 0 47.167 6.49902 61.5 19.499s21.5 31.5 21.5 55.5c0 24.667 -7.16699 43.334 -21.5 56.001s-34.833 19 -61.5 19h-71v-150h71z" />
    <glyph glyph-name="uni0157" unicode="&#x157;" horiz-adv-x="492" 
d="M57 533l162 0.000976562l25 -65c17.333 22.667 38.5 39.167 63.5 49.5s54.833 15.5 89.5 15.5h68v-203h-70c-38.667 0 -66.667 -9.33301 -84 -28s-26 -47.334 -26 -86.001v-216h-228v533zM114 -83.499c14.667 14.333 34.002 21.501 58.002 21.501
c28 0 49.833 -10.167 65.5 -30.5s23.5 -45.833 23.5 -76.5c0 -26 -5.33301 -50.833 -16 -74.5s-26.334 -43 -47.001 -58s-45 -23.167 -73 -24.5v66c15.333 3.33301 27.166 8.66602 35.499 15.999s13.5 18 15.5 32h-7c-22.667 0 -41.167 6.83301 -55.5 20.5
s-21.5 31.5 -21.5 53.5s7.33301 40.167 22 54.5z" />
    <glyph glyph-name="Rcaron" unicode="&#x158;" horiz-adv-x="739" 
d="M63 700l346 0.00195312c58.667 0 109.5 -10.333 152.5 -31s76 -50.334 99 -89.001s34.5 -84.334 34.5 -137.001c0 -46 -8.83301 -86.833 -26.5 -122.5s-43.167 -64.5 -76.5 -86.5l117 -234h-266l-83 186h-57v-186h-240v700zM283 919.002l47 -51l46 51h160l-125 -154h-162
l-126 154h160zM370 364.002c26.667 0 47.167 6.49902 61.5 19.499s21.5 31.5 21.5 55.5c0 24.667 -7.16699 43.334 -21.5 56.001s-34.833 19 -61.5 19h-71v-150h71z" />
    <glyph glyph-name="rcaron" unicode="&#x159;" horiz-adv-x="492" 
d="M57 533l162 0.000976562l25 -65c17.333 22.667 38.5 39.167 63.5 49.5s54.833 15.5 89.5 15.5h68v-203h-70c-38.667 0 -66.667 -9.33301 -84 -28s-26 -47.334 -26 -86.001v-216h-228v533zM232 762.001l47 -58l46 58h160l-125 -166h-162l-126 166h160z" />
    <glyph glyph-name="Sacute" unicode="&#x15a;" horiz-adv-x="654" 
d="M106.5 49.5c-53 43 -79.4971 103.166 -79.4971 180.499h231c0 -22.667 6 -40 18 -52s29.333 -18 52 -18c19.333 0 34.333 3.83301 45 11.5s16 18.5 16 32.5c0 17.333 -9.16699 31.5 -27.5 42.5s-47.5 19.833 -87.5 26.5c-82.667 14 -143.667 39 -183 75
s-59 84.667 -59 146c0 68.667 25.167 122.667 75.5 162s119.5 59 207.5 59c60 0 112.167 -9.66699 156.5 -29s78.666 -47.166 102.999 -83.499s36.833 -78.833 37.5 -127.5h-226c0 22 -5.83301 38.833 -17.5 50.5s-28.167 17.5 -49.5 17.5c-18.667 0 -33.334 -4 -44.001 -12
s-16 -18.667 -16 -32c0 -16 8.5 -29 25.5 -39s46.5 -19 88.5 -27c87.333 -16.667 151.166 -42.667 191.499 -78s60.5 -83 60.5 -143c0 -71.333 -26 -127 -78 -167s-124.667 -60 -218 -60c-95.333 0 -169.5 21.5 -222.5 64.5zM298.003 918.999h178l-84 -154h-150z" />
    <glyph glyph-name="sacute" unicode="&#x15b;" horiz-adv-x="572" 
d="M94.5 36c-47 34 -70.499 80.332 -70.499 138.999h220c0 -13.333 4.16699 -24.333 12.5 -33s19.166 -13 32.499 -13c11.333 0 20.333 2.83301 27 8.5s10 13.167 10 22.5c0 12 -7.33301 21.833 -22 29.5s-39 13.834 -73 18.501c-69.333 10 -120.5 28.667 -153.5 56
s-49.5 64.666 -49.5 111.999c0 55.333 21.833 97.666 65.5 126.999s106.834 44 189.501 44c79.333 0 140.666 -15.667 183.999 -47s66.666 -77.333 69.999 -138h-212c-0.666992 14 -5 24.667 -13 32s-19 11 -33 11c-11.333 0 -20.166 -2.66699 -26.499 -8
s-9.5 -12.666 -9.5 -21.999c0 -12 7 -21.333 21 -28s40.333 -13 79 -19c68 -10 118.833 -29 152.5 -57s50.5 -65.333 50.5 -112c0 -55.333 -22.667 -98.166 -68 -128.499s-109.333 -45.5 -192 -45.5c-80.667 0 -144.5 17 -191.5 51zM258.001 762.999h178l-84 -166h-150z" />
    <glyph glyph-name="Scircumflex" unicode="&#x15c;" horiz-adv-x="654" 
d="M106.5 49.5c-53 43 -79.4971 103.166 -79.4971 180.499h231c0 -22.667 6 -40 18 -52s29.333 -18 52 -18c19.333 0 34.333 3.83301 45 11.5s16 18.5 16 32.5c0 17.333 -9.16699 31.5 -27.5 42.5s-47.5 19.833 -87.5 26.5c-82.667 14 -143.667 39 -183 75
s-59 84.667 -59 146c0 68.667 25.167 122.667 75.5 162s119.5 59 207.5 59c60 0 112.167 -9.66699 156.5 -29s78.666 -47.166 102.999 -83.499s36.833 -78.833 37.5 -127.5h-226c0 22 -5.83301 38.833 -17.5 50.5s-28.167 17.5 -49.5 17.5c-18.667 0 -33.334 -4 -44.001 -12
s-16 -18.667 -16 -32c0 -16 8.5 -29 25.5 -39s46.5 -19 88.5 -27c87.333 -16.667 151.166 -42.667 191.499 -78s60.5 -83 60.5 -143c0 -71.333 -26 -127 -78 -167s-124.667 -60 -218 -60c-95.333 0 -169.5 21.5 -222.5 64.5zM234.003 918.999h162l125 -154h-159l-47 51
l-47 -51h-159z" />
    <glyph glyph-name="scircumflex" unicode="&#x15d;" horiz-adv-x="572" 
d="M94.5 36c-47 34 -70.499 80.332 -70.499 138.999h220c0 -13.333 4.16699 -24.333 12.5 -33s19.166 -13 32.499 -13c11.333 0 20.333 2.83301 27 8.5s10 13.167 10 22.5c0 12 -7.33301 21.833 -22 29.5s-39 13.834 -73 18.501c-69.333 10 -120.5 28.667 -153.5 56
s-49.5 64.666 -49.5 111.999c0 55.333 21.833 97.666 65.5 126.999s106.834 44 189.501 44c79.333 0 140.666 -15.667 183.999 -47s66.666 -77.333 69.999 -138h-212c-0.666992 14 -5 24.667 -13 32s-19 11 -33 11c-11.333 0 -20.166 -2.66699 -26.499 -8
s-9.5 -12.666 -9.5 -21.999c0 -12 7 -21.333 21 -28s40.333 -13 79 -19c68 -10 118.833 -29 152.5 -57s50.5 -65.333 50.5 -112c0 -55.333 -22.667 -98.166 -68 -128.499s-109.333 -45.5 -192 -45.5c-80.667 0 -144.5 17 -191.5 51zM202.001 762.999h162l125 -166h-160
l-46 58l-47 -58h-160z" />
    <glyph glyph-name="Scedilla" unicode="&#x15e;" horiz-adv-x="654" 
d="M239 -169l92.0029 0.000976562c18.667 0 28 7.33301 28 22c0 14 -9.33301 21 -28 21h-49l-27 37l24 76c-80 7.33301 -142 32.166 -186 74.499s-66 98.5 -66 168.5h231c0 -22.667 6 -40 18 -52s29.333 -18 52 -18c19.333 0 34.333 3.83301 45 11.5s16 18.5 16 32.5
c0 17.333 -9.16699 31.5 -27.5 42.5s-47.5 19.833 -87.5 26.5c-82.667 14 -143.667 39 -183 75s-59 84.667 -59 146c0 68.667 25.167 122.667 75.5 162s119.5 59 207.5 59c60 0 112.167 -9.66699 156.5 -29s78.666 -47.166 102.999 -83.499s36.833 -78.833 37.5 -127.5h-226
c0 22 -5.83301 38.833 -17.5 50.5s-28.167 17.5 -49.5 17.5c-18.667 0 -33.334 -4 -44.001 -12s-16 -18.667 -16 -32c0 -16 8.5 -29 25.5 -39s46.5 -19 88.5 -27c87.333 -16.667 151.166 -42.667 191.499 -78s60.5 -83 60.5 -143c0 -62.667 -20.167 -113.334 -60.5 -152.001
s-97.5 -62.334 -171.5 -71.001l-10 -30c34 -4.66699 60 -17.667 78 -39s27 -47.666 27 -78.999c0 -36 -11.667 -65.167 -35 -87.5s-56.333 -33.5 -99 -33.5h-115v111z" />
    <glyph glyph-name="scedilla" unicode="&#x15f;" horiz-adv-x="572" 
d="M186 -161h88.0029c18 0 27 6.66699 27 20c0 14 -9 21 -27 21h-46l-26 35l24 74c-63.333 8 -112.833 28.333 -148.5 61s-53.5 74.334 -53.5 125.001h220c0 -13.333 4.16699 -24.333 12.5 -33s19.166 -13 32.499 -13c11.333 0 20.333 2.83301 27 8.5s10 13.167 10 22.5
c0 12 -7.33301 21.833 -22 29.5s-39 13.834 -73 18.501c-69.333 10 -120.5 28.667 -153.5 56s-49.5 64.666 -49.5 111.999c0 55.333 21.833 97.666 65.5 126.999s106.834 44 189.501 44c79.333 0 140.666 -15.667 183.999 -47s66.666 -77.333 69.999 -138h-212
c-0.666992 14 -5 24.667 -13 32s-19 11 -33 11c-11.333 0 -20.166 -2.66699 -26.499 -8s-9.5 -12.666 -9.5 -21.999c0 -12 7 -21.333 21 -28s40.333 -13 79 -19c68 -10 118.833 -29 152.5 -57s50.5 -65.333 50.5 -112c0 -50 -18.333 -89.833 -55 -119.5
s-89.334 -47.167 -158.001 -52.5l-8 -25c32 -4.66699 56.833 -17.334 74.5 -38.001s26.5 -46 26.5 -76c0 -34.667 -11.333 -62.667 -34 -84s-54.334 -32 -95.001 -32h-111v107z" />
    <glyph glyph-name="Scaron" unicode="&#x160;" horiz-adv-x="654" 
d="M106.5 49.5c-53 43 -79.4971 103.166 -79.4971 180.499h231c0 -22.667 6 -40 18 -52s29.333 -18 52 -18c19.333 0 34.333 3.83301 45 11.5s16 18.5 16 32.5c0 17.333 -9.16699 31.5 -27.5 42.5s-47.5 19.833 -87.5 26.5c-82.667 14 -143.667 39 -183 75
s-59 84.667 -59 146c0 68.667 25.167 122.667 75.5 162s119.5 59 207.5 59c60 0 112.167 -9.66699 156.5 -29s78.666 -47.166 102.999 -83.499s36.833 -78.833 37.5 -127.5h-226c0 22 -5.83301 38.833 -17.5 50.5s-28.167 17.5 -49.5 17.5c-18.667 0 -33.334 -4 -44.001 -12
s-16 -18.667 -16 -32c0 -16 8.5 -29 25.5 -39s46.5 -19 88.5 -27c87.333 -16.667 151.166 -42.667 191.499 -78s60.5 -83 60.5 -143c0 -71.333 -26 -127 -78 -167s-124.667 -60 -218 -60c-95.333 0 -169.5 21.5 -222.5 64.5zM268.003 918.999l47 -51l46 51h160l-125 -154
h-162l-126 154h160z" />
    <glyph glyph-name="scaron" unicode="&#x161;" horiz-adv-x="572" 
d="M94.5 36c-47 34 -70.499 80.332 -70.499 138.999h220c0 -13.333 4.16699 -24.333 12.5 -33s19.166 -13 32.499 -13c11.333 0 20.333 2.83301 27 8.5s10 13.167 10 22.5c0 12 -7.33301 21.833 -22 29.5s-39 13.834 -73 18.501c-69.333 10 -120.5 28.667 -153.5 56
s-49.5 64.666 -49.5 111.999c0 55.333 21.833 97.666 65.5 126.999s106.834 44 189.501 44c79.333 0 140.666 -15.667 183.999 -47s66.666 -77.333 69.999 -138h-212c-0.666992 14 -5 24.667 -13 32s-19 11 -33 11c-11.333 0 -20.166 -2.66699 -26.499 -8
s-9.5 -12.666 -9.5 -21.999c0 -12 7 -21.333 21 -28s40.333 -13 79 -19c68 -10 118.833 -29 152.5 -57s50.5 -65.333 50.5 -112c0 -55.333 -22.667 -98.166 -68 -128.499s-109.333 -45.5 -192 -45.5c-80.667 0 -144.5 17 -191.5 51zM236.001 761.999l47 -58l46 58h160
l-125 -166h-162l-126 166h160z" />
    <glyph glyph-name="uni0162" unicode="&#x162;" horiz-adv-x="703" 
d="M230 481l-202.999 -0.000976562v219h648v-219h-203v-481h-63l-13 -41c34 -4.66699 60 -17.667 78 -39s27 -47.666 27 -78.999c0 -36 -11.833 -65.167 -35.5 -87.5s-56.834 -33.5 -99.501 -33.5h-115v111h92c18.667 0 28 7.33301 28 22c0 14 -9.33301 21 -28 21h-48
l-27 37l28 89h-66v481z" />
    <glyph glyph-name="uni0163" unicode="&#x163;" horiz-adv-x="499" 
d="M202 -161l88.002 0.000976562c18 0 27 6.66699 27 20c0 14 -9 21 -27 21h-46l-26 35l30 97c-92.667 26 -139 93 -139 201v144h-95v176h47c21.333 0 37.666 2 48.999 6s19.833 11.167 25.5 21.5s10.167 25.5 13.5 45.5l11 67h177v-140h122v-175h-122v-99
c0 -25.333 6.16699 -43.833 18.5 -55.5s31.833 -17.5 58.5 -17.5h51v-186h-112l-12 -38c32 -4.66699 56.833 -17.334 74.5 -38.001s26.5 -46 26.5 -76c0 -34.667 -11.333 -62.667 -34 -84s-54.334 -32 -95.001 -32h-111v107z" />
    <glyph glyph-name="Tcaron" unicode="&#x164;" horiz-adv-x="703" 
d="M230 481h-203v219h648v-219h-203v-481h-242v481zM305 919l47 -51l46 51h160l-125 -154h-162l-126 154h160z" />
    <glyph glyph-name="tcaron" unicode="&#x165;" horiz-adv-x="508" 
d="M168.5 53.5c-39.667 35.667 -59.498 88.833 -59.498 159.5v144h-95v176h47c21.333 0 37.666 2 48.999 6s19.833 11.167 25.5 21.5s10.167 25.5 13.5 45.5l11 67h177v-140h122v-175h-122v-99c0 -25.333 6.16699 -43.833 18.5 -55.5s31.833 -17.5 58.5 -17.5h51v-186h-119
c-78.667 -0 -137.834 17.833 -177.501 53.5zM390.002 762.999h179l-37 -197h-149z" />
    <glyph glyph-name="Tbar" unicode="&#x166;" horiz-adv-x="707" 
d="M232 185h-121v176h121v126h-203v213h648v-213h-203v-126h122v-176h-122v-185h-242v185z" />
    <glyph glyph-name="tbar" unicode="&#x167;" horiz-adv-x="502" 
d="M171.5 51.5c-39 34.333 -59.5 84.832 -61.5 151.499l-88 -1v130h88v51h-95v150h47c21.333 0 37.666 2 48.999 6s19.833 11.167 25.5 21.5s10.167 25.5 13.5 45.5l11 67h177v-140h122v-150h-122v-51h110v-112h-108c2.66699 -17.333 9.83398 -30.166 21.501 -38.499
s29.5 -12.5 53.5 -12.5h49v-169h-124c-73.333 0 -129.5 17.167 -168.5 51.5z" />
    <glyph glyph-name="Utilde" unicode="&#x168;" horiz-adv-x="759" 
d="M207.5 21.5c-48.333 24.333 -85.332 59.5 -110.999 105.5s-38.5 100.667 -38.5 164v409h241v-396c0 -64.667 26.667 -97 80 -97s80 32.333 80 97v396h242v-409c0 -63.333 -12.833 -118 -38.5 -164s-62.834 -81.167 -111.501 -105.5s-106 -36.5 -172 -36.5
s-123.167 12.167 -171.5 36.5zM198.001 800c0 38 8.99902 67.167 26.999 87.5s44 30.5 78 30.5c16.667 0 31 -2.16699 43 -6.5s24 -10.166 36 -17.499c8 -4.66699 14.5 -8.16699 19.5 -10.5s10.5 -3.5 16.5 -3.5c13.333 0 20 7.33301 20 22v13h124v-31
c0 -38.667 -9 -68 -27 -88s-44 -30 -78 -30c-16.667 0 -31 2.16699 -43 6.5s-24 10.166 -36 17.499c-15.333 9.33301 -27.666 14 -36.999 14c-12.667 0 -19 -7.33301 -19 -22v-13h-124v31z" />
    <glyph glyph-name="utilde" unicode="&#x169;" horiz-adv-x="686" 
d="M107.5 47c-39.667 41.333 -59.499 97.6689 -59.499 169.002v317h228v-289c0 -24.667 5.33301 -43.334 16 -56.001s26 -19 46 -19s35.667 6.66699 47 20s17 32.666 17 57.999v286h228v-533h-163l-22 56c-20.667 -22.667 -46 -40.167 -76 -52.5s-63 -18.5 -99 -18.5
c-68.667 0 -122.834 20.667 -162.501 62zM156.001 631.003c0 38.667 8.99902 67.999 26.999 87.999s44.333 30 79 30c18 0 32.667 -2.16699 44 -6.5s23.333 -10.166 36 -17.499c14 -9.33301 25.667 -14 35 -14c12.667 0 19 7.33301 19 22v13h125v-31
c0 -38 -9 -67.167 -27 -87.5s-44.333 -30.5 -79 -30.5c-17.333 0 -31.666 2 -42.999 6s-23.333 10 -36 18c-8 4.66699 -14.5 8.16699 -19.5 10.5s-10.5 3.5 -16.5 3.5c-12.667 0 -19 -7.33301 -19 -22v-13h-125v31z" />
    <glyph glyph-name="Umacron" unicode="&#x16a;" horiz-adv-x="759" 
d="M207.5 21.5c-48.333 24.333 -85.332 59.5 -110.999 105.5s-38.5 100.667 -38.5 164v409h241v-396c0 -64.667 26.667 -97 80 -97s80 32.333 80 97v396h242v-409c0 -63.333 -12.833 -118 -38.5 -164s-62.834 -81.167 -111.501 -105.5s-106 -36.5 -172 -36.5
s-123.167 12.167 -171.5 36.5zM199.001 900h361v-121h-361v121z" />
    <glyph glyph-name="umacron" unicode="&#x16b;" horiz-adv-x="686" 
d="M107.5 47c-39.667 41.333 -59.499 97.6689 -59.499 169.002v317h228v-289c0 -24.667 5.33301 -43.334 16 -56.001s26 -19 46 -19s35.667 6.66699 47 20s17 32.666 17 57.999v286h228v-533h-163l-22 56c-20.667 -22.667 -46 -40.167 -76 -52.5s-63 -18.5 -99 -18.5
c-68.667 0 -122.834 20.667 -162.501 62zM168.001 731.003h342v-121h-342v121z" />
    <glyph glyph-name="Ubreve" unicode="&#x16c;" horiz-adv-x="759" 
d="M207.5 21.5c-48.333 24.333 -85.332 59.5 -110.999 105.5s-38.5 100.667 -38.5 164v409h241v-396c0 -64.667 26.667 -97 80 -97s80 32.333 80 97v396h242v-409c0 -63.333 -12.833 -118 -38.5 -164s-62.834 -81.167 -111.501 -105.5s-106 -36.5 -172 -36.5
s-123.167 12.167 -171.5 36.5zM217.001 919h125v-9c0 -11.333 3.33301 -20.166 10 -26.499s15.667 -9.5 27 -9.5c12 0 21.167 3.16699 27.5 9.5s9.5 15.166 9.5 26.499v9h126v-16c0 -46 -13.5 -81.333 -40.5 -106s-67.833 -37 -122.5 -37c-52 0 -92 12.5 -120 37.5
s-42 60.167 -42 105.5v16z" />
    <glyph glyph-name="ubreve" unicode="&#x16d;" horiz-adv-x="686" 
d="M107.5 47c-39.667 41.333 -59.499 97.6689 -59.499 169.002v317h228v-289c0 -24.667 5.33301 -43.334 16 -56.001s26 -19 46 -19s35.667 6.66699 47 20s17 32.666 17 57.999v286h228v-533h-163l-22 56c-20.667 -22.667 -46 -40.167 -76 -52.5s-63 -18.5 -99 -18.5
c-68.667 0 -122.834 20.667 -162.501 62zM168.001 763.003h126.001v-15c0 -14 4 -24.5 12 -31.5s18.667 -10.5 32 -10.5c14 0 25 3.5 33 10.5s12 17.5 12 31.5v15h126v-24c0 -48 -14.833 -84.5 -44.5 -109.5s-71.834 -37.5 -126.501 -37.5s-96.667 12.5 -126 37.5
s-44 61.5 -44 109.5v24z" />
    <glyph glyph-name="Uring" unicode="&#x16e;" horiz-adv-x="759" 
d="M207.5 21.5c-48.333 24.333 -85.332 59.5 -110.999 105.5s-38.5 100.667 -38.5 164v409h241v-396c0 -64.667 26.667 -97 80 -97s80 32.333 80 97v396h242v-409c0 -63.333 -12.833 -118 -38.5 -164s-62.834 -81.167 -111.501 -105.5s-106 -36.5 -172 -36.5
s-123.167 12.167 -171.5 36.5zM279.001 950c25.333 22.667 58.666 34 99.999 34c42 0 75.667 -11.333 101 -34s38 -52.334 38 -89.001s-12.667 -66.334 -38 -89.001s-59 -34 -101 -34c-41.333 0 -74.666 11.333 -99.999 34s-38 52.334 -38 89.001s12.667 66.334 38 89.001z
M353.001 835c6.66699 -6.66699 15.334 -10 26.001 -10s19.5 3.33301 26.5 10s10.5 15.334 10.5 26.001c0 11.333 -3.33301 20.333 -10 27s-15.667 10 -27 10c-10.667 0 -19.334 -3.5 -26.001 -10.5s-10 -15.833 -10 -26.5s3.33301 -19.334 10 -26.001z" />
    <glyph glyph-name="uring" unicode="&#x16f;" horiz-adv-x="686" 
d="M107.5 47c-39.667 41.333 -59.499 97.6689 -59.499 169.002v317h228v-289c0 -24.667 5.33301 -43.334 16 -56.001s26 -19 46 -19s35.667 6.66699 47 20s17 32.666 17 57.999v286h228v-533h-163l-22 56c-20.667 -22.667 -46 -40.167 -76 -52.5s-63 -18.5 -99 -18.5
c-68.667 0 -122.834 20.667 -162.501 62zM241.001 788.003c24.667 22 57.334 33 98.001 33s73.334 -11 98.001 -33s37 -51.333 37 -88s-12.333 -66 -37 -88s-57.334 -33 -98.001 -33s-73.334 11 -98.001 33s-37 51.333 -37 88s12.333 66 37 88zM313.001 674.003
c6.66699 -6.66699 15.334 -10 26.001 -10s19.334 3.33301 26.001 10s10 15.334 10 26.001s-3.33301 19.334 -10 26.001s-15.334 10 -26.001 10s-19.334 -3.33301 -26.001 -10s-10 -15.334 -10 -26.001s3.33301 -19.334 10 -26.001z" />
    <glyph glyph-name="Uhungarumlaut" unicode="&#x170;" horiz-adv-x="759" 
d="M207.5 21.5c-48.333 24.333 -85.332 59.5 -110.999 105.5s-38.5 100.667 -38.5 164v409h241v-396c0 -64.667 26.667 -97 80 -97s80 32.333 80 97v396h242v-409c0 -63.333 -12.833 -118 -38.5 -164s-62.834 -81.167 -111.501 -105.5s-106 -36.5 -172 -36.5
s-123.167 12.167 -171.5 36.5zM258.001 919h165l-78 -154h-142zM479.001 919h163l-93 -154h-149z" />
    <glyph glyph-name="uhungarumlaut" unicode="&#x171;" horiz-adv-x="686" 
d="M107.5 47c-39.667 41.333 -59.499 97.6689 -59.499 169.002v317h228v-289c0 -24.667 5.33301 -43.334 16 -56.001s26 -19 46 -19s35.667 6.66699 47 20s17 32.666 17 57.999v286h228v-533h-163l-22 56c-20.667 -22.667 -46 -40.167 -76 -52.5s-63 -18.5 -99 -18.5
c-68.667 0 -122.834 20.667 -162.501 62zM222.001 763.003h154l-66 -166h-131zM413.001 763.003h155l-87 -166h-134z" />
    <glyph glyph-name="Uogonek" unicode="&#x172;" horiz-adv-x="759" 
d="M347.5 -190.5c-23.667 17.667 -35.499 42.1689 -35.499 73.502c0 36 16.333 70.333 49 103c-98 5.33301 -173 34.166 -225 86.499s-78 125.166 -78 218.499v409h241v-396c0 -64.667 26.667 -97 80 -97s80 32.333 80 97v396h242v-409c0 -64 -11.5 -116.667 -34.5 -158
s-60.833 -78.333 -113.5 -111c-28.667 -18 -49.334 -34.667 -62.001 -50s-19 -30.666 -19 -45.999c0 -10.667 2.83301 -18.334 8.5 -23.001s14.5 -7 26.5 -7h21v-113h-83c-41.333 0 -73.833 8.83301 -97.5 26.5z" />
    <glyph glyph-name="uogonek" unicode="&#x173;" horiz-adv-x="686" 
d="M107.5 47c-39.667 41.333 -59.498 97.6689 -59.498 169.002v317h228v-289c0 -24.667 5.33301 -43.334 16 -56.001s26 -19 46 -19s35.667 6.66699 47 20s17 32.666 17 57.999v286h228v-533c-16.667 -10 -29.834 -21.333 -39.501 -34s-14.5 -25 -14.5 -37
c0 -19.333 11.333 -29 34 -29h20v-109h-80c-40 0 -71.167 8.5 -93.5 25.5s-33.5 40.5 -33.5 70.5c0 40 20.667 77.667 62 113h-18l-22 56c-20.667 -22.667 -46 -40.167 -76 -52.5s-63 -18.5 -99 -18.5c-68.667 0 -122.834 20.667 -162.501 62z" />
    <glyph glyph-name="Wcircumflex" unicode="&#x174;" horiz-adv-x="1147" 
d="M3 700h256l40 -152l55 -189h4l55 189l41 152h239l41 -152l56 -193h4l56 193l40 152h254l-216 -700h-252l-44 154l-57 193h-3l-57 -193l-43 -154h-253zM492 919h163l125 -154h-160l-46 51l-47 -51h-160z" />
    <glyph glyph-name="wcircumflex" unicode="&#x175;" horiz-adv-x="988" 
d="M3 533h235l38 -133l42 -133h3l42 133l38 133h186l38 -133l41 -133h4l42 133l39 133h234l-188 -533h-221l-80 255h-4l-80 -255h-220zM413 763h162l126 -166h-160l-47 58l-46 -58h-160z" />
    <glyph glyph-name="Ycircumflex" unicode="&#x176;" horiz-adv-x="745" 
d="M252 233l-249 467h268l57 -130l43 -106h3l42 106l57 130h269l-248 -463v-237h-242v233zM291 919h162l125 -154h-159l-47 51l-47 -51h-160z" />
    <glyph glyph-name="ycircumflex" unicode="&#x177;" horiz-adv-x="660" 
d="M77 -24h74.999c20.667 0 36.334 3.16699 47.001 9.5s19 16.833 25 31.5l-221 516h248l48 -147l37 -116h3l32 116l43 147h243l-228 -578c-16 -42.667 -34.333 -75.667 -55 -99s-46.667 -39.833 -78 -49.5s-72.333 -14.5 -123 -14.5h-96v184zM250.999 763h162l126 -166
h-160l-47 58l-46 -58h-160z" />
    <glyph glyph-name="Ydieresis" unicode="&#x178;" horiz-adv-x="745" 
d="M252 233l-249 467h268l57 -130l43 -106h3l42 106l57 130h269l-248 -463v-237h-242v233zM182.5 920.5c17.667 17.667 40.5 26.5 68.5 26.5s50.833 -8.83301 68.5 -26.5s26.5 -40.5 26.5 -68.5s-8.83301 -50.667 -26.5 -68s-40.5 -26 -68.5 -26s-50.833 8.66699 -68.5 26
s-26.5 40 -26.5 68s8.83301 50.833 26.5 68.5zM424.5 921c17.667 17.333 40.5 26 68.5 26s50.667 -8.66699 68 -26s26 -40.333 26 -69c0 -28 -8.66699 -50.667 -26 -68s-40 -26 -68 -26s-50.833 8.66699 -68.5 26s-26.5 40 -26.5 68c0 28.667 8.83301 51.667 26.5 69z" />
    <glyph glyph-name="Zacute" unicode="&#x179;" horiz-adv-x="639" 
d="M32 172l262 318l-1 3l-87 -1h-164v208h559v-172l-261 -318l1 -3l97 1h169v-208h-575v172zM304 919h178l-84 -154h-150z" />
    <glyph glyph-name="zacute" unicode="&#x17a;" horiz-adv-x="549" 
d="M29 145l204 215l-1 3l-56 -2h-140v172h479v-143l-204 -217l1 -3l64 2h144v-172h-491v145zM251 763h178l-84 -166h-150z" />
    <glyph glyph-name="Zdotaccent" unicode="&#x17b;" horiz-adv-x="639" 
d="M32 172l262 318l-1 3l-87 -1h-164v208h559v-172l-261 -318l1 -3l97 1h169v-208h-575v172zM239.5 940.5c21 20.333 48.167 30.5 81.5 30.5c34 0 61.5 -10.167 82.5 -30.5s31.5 -46.5 31.5 -78.5s-10.5 -58 -31.5 -78s-48.5 -30 -82.5 -30c-33.333 0 -60.5 10 -81.5 30
s-31.5 46 -31.5 78s10.5 58.167 31.5 78.5z" />
    <glyph glyph-name="zdotaccent" unicode="&#x17c;" horiz-adv-x="549" 
d="M29 145l204 215l-1 3l-56 -2h-140v172h479v-143l-204 -217l1 -3l64 2h144v-172h-491v145zM197 775.5c20 19 46.333 28.5 79 28.5s59 -9.5 79 -28.5s30 -44.167 30 -75.5s-10 -56.5 -30 -75.5s-46.333 -28.5 -79 -28.5s-59 9.5 -79 28.5s-30 44.167 -30 75.5
s10 56.5 30 75.5z" />
    <glyph glyph-name="Zcaron" unicode="&#x17d;" horiz-adv-x="639" 
d="M32 172l262 318l-1 3l-87 -1h-164v208h559v-172l-261 -318l1 -3l97 1h169v-208h-575v172zM275 919l47 -51l46 51h160l-125 -154h-162l-126 154h160z" />
    <glyph glyph-name="zcaron" unicode="&#x17e;" horiz-adv-x="549" 
d="M29 145l204 215l-1 3l-56 -2h-140v172h479v-143l-204 -217l1 -3l64 2h144v-172h-491v145zM229 762l47 -58l46 58h160l-125 -166h-162l-126 166h160z" />
    <glyph glyph-name="longs" unicode="&#x17f;" horiz-adv-x="437" 
d="M167.5 716c35 37.333 85.833 56.001 152.5 56.001h151v-174h-73c-18 0 -31.667 -4.83301 -41 -14.5s-14 -23.834 -14 -42.501v-541h-228v357h-99v176h99v21c0 70.667 17.5 124.667 52.5 162z" />
    <glyph glyph-name="uni018F" unicode="&#x18f;" horiz-adv-x="815" 
d="M201 36.5c-58.667 34.333 -103.165 83.167 -133.498 146.5s-43.833 137 -40.5 221h540c-8 45.333 -26.667 80.333 -56 105s-65.333 37 -108 37c-30 0 -57.833 -6 -83.5 -18s-45.834 -29.333 -60.501 -52h-219c27.333 74.667 73.5 133.167 138.5 175.5
s142.167 63.5 231.5 63.5c74 0 139.667 -15.5 197 -46.5s102 -74.333 134 -130s48 -119.167 48 -190.5c0 -70.667 -16.167 -133.5 -48.5 -188.5s-77.5 -97.833 -135.5 -128.5s-124 -46 -198 -46c-78.667 0 -147.334 17.167 -206.001 51.5zM298.502 187.501
c28.333 -23 63.834 -34.5 106.501 -34.5c40.667 0 75.5 11.5 104.5 34.5s47.833 54.833 56.5 95.5h-324c9.33301 -40.667 28.166 -72.5 56.499 -95.5z" />
    <glyph glyph-name="florin" unicode="&#x192;" horiz-adv-x="601" 
d="M-21 -10h74c24.667 0 44 6 58 18s23.333 33.667 28 65l42 284h-120v176h146l4 28c11.333 74 35.333 127.667 72 161s92 50 166 50h142v-168h-101c-20 0 -35.167 -4.66699 -45.5 -14s-17.166 -25.666 -20.499 -48.999l-2 -15h158v-169h-176l-47 -310
c-8.66699 -58 -22.834 -104.833 -42.501 -140.5s-47.5 -62.334 -83.5 -80.001s-83.333 -26.5 -142 -26.5h-110v190z" />
    <glyph glyph-name="uni01CD" unicode="&#x1cd;" horiz-adv-x="779" 
d="M263 700h252l261 -700h-254l-31 87h-205l-31 -87h-252zM342 919l47 -51l46 51h160l-125 -154h-162l-126 154h160zM453 247l-62 192h-4l-61 -192h127z" />
    <glyph glyph-name="uni01CE" unicode="&#x1ce;" horiz-adv-x="654" 
d="M88 32c-36 30 -53.999 70.667 -53.999 122c0 49.333 16.333 88.833 49 118.5s76.667 44.5 132 44.5h170v32c0 13.333 -5.5 24.5 -16.5 33.5s-24.833 13.5 -41.5 13.5c-15.333 0 -28.333 -4 -39 -12s-16.667 -18.667 -18 -32h-210c8 64 34.833 112.5 80.5 145.5
s108.167 49.5 187.5 49.5c90 0 159 -21 207 -63s72 -103 72 -183v-301h-163l-23 58c-22.667 -23.333 -49.834 -41 -81.501 -53s-66.5 -18 -104.5 -18c-62 0 -111 15 -147 45zM281.001 762l47 -58l46 58h160l-125 -166h-162l-126 166h160zM267.001 139.5
c10 -7.66699 23.667 -11.498 41 -11.498c24 0 43.333 7 58 21s22 32.667 22 56v7h-80c-17.333 0 -31 -3.83301 -41 -11.5s-15 -17.834 -15 -30.501s5 -22.834 15 -30.501z" />
    <glyph glyph-name="Gcaron" unicode="&#x1e6;" horiz-adv-x="809" 
d="M208 31c-57.333 30.667 -101.837 73.6709 -133.504 129.004s-47.5 118.666 -47.5 189.999s15.833 134.666 47.5 189.999s76 98.333 133 129s122.167 46 195.5 46c60.667 0 116.334 -10.5 167.001 -31.5s93.5 -51 128.5 -90s59.167 -84.5 72.5 -136.5h-245
c-12 17.333 -28.5 30.833 -49.5 40.5s-44.5 14.5 -70.5 14.5c-46 0 -83 -14.833 -111 -44.5s-42 -68.834 -42 -117.501c0 -48 13.833 -87.167 41.5 -117.5s65.834 -45.5 114.501 -45.5c32 0 59.333 6.66699 82 20s39.334 31.666 50.001 54.999h-172v146h412
c2 -18 3 -35.667 3 -53c0 -72 -15.5 -136 -46.5 -192s-75.167 -99.667 -132.5 -131s-123.666 -47 -198.999 -47c-74.667 0 -140.667 15.333 -198 46zM356.996 919.004l47 -51l46 51h160l-125 -154h-162l-126 154h160z" />
    <glyph glyph-name="gcaron" unicode="&#x1e7;" horiz-adv-x="705" 
d="M133 -181c-52.667 37.333 -80.665 89.332 -83.998 155.999h217c2.66699 -14.667 10.5 -26 23.5 -34s30.5 -12 52.5 -12c27.333 0 47.5 6.83301 60.5 20.5s19.5 34.834 19.5 63.501v41c-41.333 -24.667 -89.333 -37 -144 -37c-49.333 0 -93.333 11.167 -132 33.5
s-68.667 53.5 -90 93.5s-32 86 -32 138s10.667 98 32 138s51.333 71.167 90 93.5s82.667 33.5 132 33.5c37.333 0 71.833 -6 103.5 -18s59.167 -29 82.5 -51l21 55h163v-505c0 -86 -26.833 -151.667 -80.5 -197s-127.834 -68 -222.501 -68
c-88.667 0 -159.334 18.667 -212.001 56zM300.002 761.999l47 -58l46 58h160l-125 -166h-162l-126 166h160zM271.502 215.999c16.333 -16.667 37.833 -25 64.5 -25c26 0 47.167 8.33301 63.5 25s24.5 38.334 24.5 65.001s-8.16699 48.334 -24.5 65.001s-37.5 25 -63.5 25
c-26.667 0 -48.167 -8.33301 -64.5 -25s-24.5 -38.334 -24.5 -65.001s8.16699 -48.334 24.5 -65.001z" />
    <glyph glyph-name="AEacute" unicode="&#x1fc;" horiz-adv-x="1013" 
d="M377 700h588v-179h-247v-81h220v-174h-220v-84h256v-182h-482v81h-183l-43 -81h-263zM492 241v227h-3l-115 -227h118zM583 919h178l-84 -154h-150z" />
    <glyph glyph-name="aeacute" unicode="&#x1fd;" horiz-adv-x="1028" 
d="M598 7c-36 14.667 -66.3301 35.332 -90.9971 61.999c-25.333 -27.333 -57.5 -48.166 -96.5 -62.499s-83.833 -21.5 -134.5 -21.5c-76.667 0 -136.167 14.833 -178.5 44.5s-63.5 71.167 -63.5 124.5c0 50 17.167 89.833 51.5 119.5s80.5 44.5 138.5 44.5h163v24
c0 16.667 -5.33301 30 -16 40s-25.334 15 -44.001 15c-16 0 -29.333 -4 -40 -12s-17.334 -19 -20.001 -33h-207c7.33301 62.667 33.166 110.834 77.499 144.501s104.166 50.5 179.499 50.5c90 0 156.667 -24.667 200 -74c25.333 24 55.166 42.333 89.499 55
s71.833 19 112.5 19c61.333 0 114 -13.5 158 -40.5s76.833 -65.333 98.5 -115s30.834 -107.834 27.501 -174.501h-393c5.33301 -23.333 16 -41.333 32 -54s35.667 -19 59 -19c15.333 0 29.833 2.83301 43.5 8.5s24.834 13.5 33.501 23.5h216
c-21.333 -61.333 -56 -108.5 -104 -141.5s-106 -49.5 -174 -49.5c-42.667 0 -82 7.33301 -118 22zM268.503 138.998c10.333 -7.33301 24.5 -11.002 42.5 -11.002c24.667 0 44.167 7.33301 58.5 22s21.5 34.334 21.5 59.001v4h-80c-18 0 -32.167 -3.83301 -42.5 -11.5
s-15.5 -18.167 -15.5 -31.5s5.16699 -23.666 15.5 -30.999zM487.003 762.996h178l-84 -166h-150zM789.003 321.996c-7.33301 21.333 -18.5 37.666 -33.5 48.999s-33.5 17 -55.5 17s-40.667 -5.66699 -56 -17s-26 -27.666 -32 -48.999h177z" />
    <glyph glyph-name="Oslashacute" unicode="&#x1fe;" horiz-adv-x="828" 
d="M139 84c-36 32 -63.667 70.833 -83 116.5s-29 95.5 -29 149.5c0 70.667 16.333 133.667 49 189s78.334 98.5 137.001 129.5s125.667 46.5 201 46.5c40.667 0 78 -4.33301 112 -13l35 52h223l-94 -138c36 -32 63.667 -70.833 83 -116.5s29 -95.5 29 -149.5
c0 -70.667 -16.333 -133.667 -49 -189s-78.334 -98.5 -137.001 -129.5s-126 -46.5 -202 -46.5c-40 0 -77 4.33301 -111 13l-35 -52h-223zM311 245.5c26.667 -27 61 -40.5 103 -40.5s76.5 13.5 103.5 40.5s40.5 61.833 40.5 104.5s-13.5 77.5 -40.5 104.5
s-61.5 40.5 -103.5 40.5s-76.333 -13.5 -103 -40.5s-40 -61.833 -40 -104.5s13.333 -77.5 40 -104.5zM387 919h178l-84 -154h-150z" />
    <glyph glyph-name="oslashacute" unicode="&#x1ff;" horiz-adv-x="684" 
d="M115 59c-29.333 24.667 -51.833 54.667 -67.5 90s-23.5 74.333 -23.5 117c0 56 13.333 105.167 40 147.5s64 75.166 112 98.499s103.333 35 166 35c35.333 0 66.666 -3.33301 93.999 -10l39 57h177l-83 -121c29.333 -24.667 51.833 -54.667 67.5 -90
s23.5 -74.333 23.5 -117c0 -56 -13.333 -105.167 -40 -147.5s-64 -75.166 -112 -98.499s-103.333 -35 -166 -35c-35.333 0 -66.666 3.33301 -93.999 10l-38 -57h-177zM273 196.5c18 -17.667 41 -26.5 69 -26.5s51 8.83301 69 26.5s27 40.834 27 69.501s-9 52 -27 70
s-41 27 -69 27s-51 -9 -69 -27s-27 -41.333 -27 -70s9 -51.834 27 -69.501zM317 763h178l-84 -166h-150z" />
    <glyph glyph-name="uni0218" unicode="&#x218;" horiz-adv-x="654" 
d="M106.5 49.5c-53 43 -79.4971 103.166 -79.4971 180.499h231c0 -22.667 6 -40 18 -52s29.333 -18 52 -18c19.333 0 34.333 3.83301 45 11.5s16 18.5 16 32.5c0 17.333 -9.16699 31.5 -27.5 42.5s-47.5 19.833 -87.5 26.5c-82.667 14 -143.667 39 -183 75
s-59 84.667 -59 146c0 68.667 25.167 122.667 75.5 162s119.5 59 207.5 59c60 0 112.167 -9.66699 156.5 -29s78.666 -47.166 102.999 -83.499s36.833 -78.833 37.5 -127.5h-226c0 22 -5.83301 38.833 -17.5 50.5s-28.167 17.5 -49.5 17.5c-18.667 0 -33.334 -4 -44.001 -12
s-16 -18.667 -16 -32c0 -16 8.5 -29 25.5 -39s46.5 -19 88.5 -27c87.333 -16.667 151.166 -42.667 191.499 -78s60.5 -83 60.5 -143c0 -71.333 -26 -127 -78 -167s-124.667 -60 -218 -60c-95.333 0 -169.5 21.5 -222.5 64.5zM282.503 -83.501
c15 14.333 34.1689 21.501 57.502 21.501c28 0 49.833 -10.167 65.5 -30.5s23.5 -45.833 23.5 -76.5c0 -26 -5.33301 -50.833 -16 -74.5s-26.334 -43 -47.001 -58s-45 -23.167 -73 -24.5v66c15.333 3.33301 27.166 8.66602 35.499 15.999s13.5 18 15.5 32h-7
c-22.667 0 -41.167 6.83301 -55.5 20.5s-21.5 31.5 -21.5 53.5s7.5 40.167 22.5 54.5z" />
    <glyph glyph-name="uni0219" unicode="&#x219;" horiz-adv-x="572" 
d="M94.5 36c-47 34 -70.499 80.332 -70.499 138.999h220c0 -13.333 4.16699 -24.333 12.5 -33s19.166 -13 32.499 -13c11.333 0 20.333 2.83301 27 8.5s10 13.167 10 22.5c0 12 -7.33301 21.833 -22 29.5s-39 13.834 -73 18.501c-69.333 10 -120.5 28.667 -153.5 56
s-49.5 64.666 -49.5 111.999c0 55.333 21.833 97.666 65.5 126.999s106.834 44 189.501 44c79.333 0 140.666 -15.667 183.999 -47s66.666 -77.333 69.999 -138h-212c-0.666992 14 -5 24.667 -13 32s-19 11 -33 11c-11.333 0 -20.166 -2.66699 -26.499 -8
s-9.5 -12.666 -9.5 -21.999c0 -12 7 -21.333 21 -28s40.333 -13 79 -19c68 -10 118.833 -29 152.5 -57s50.5 -65.333 50.5 -112c0 -55.333 -22.667 -98.166 -68 -128.499s-109.333 -45.5 -192 -45.5c-80.667 0 -144.5 17 -191.5 51zM229.501 -83.501
c15 14.333 34.501 21.501 58.501 21.501c27.333 0 48.833 -10.167 64.5 -30.5s23.5 -45.833 23.5 -76.5c0 -26 -5.33301 -50.833 -16 -74.5s-26.334 -43 -47.001 -58s-45 -23.167 -73 -24.5v66c15.333 3.33301 27.166 8.66602 35.499 15.999s13.5 18 15.5 32h-6
c-23.333 0 -42.166 6.83301 -56.499 20.5s-21.5 31.5 -21.5 53.5s7.5 40.167 22.5 54.5z" />
    <glyph glyph-name="uni021A" unicode="&#x21a;" horiz-adv-x="703" 
d="M230 481h-203v219h648v-219h-203v-481h-242v481zM294.5 -83.5c15 14.333 34.502 21.501 58.502 21.501c28 0 49.833 -10.167 65.5 -30.5s23.5 -45.833 23.5 -76.5c0 -26 -5.33301 -50.833 -16 -74.5s-26.334 -43 -47.001 -58s-45 -23.167 -73 -24.5v66
c15.333 3.33301 27.166 8.66602 35.499 15.999s13.166 18 14.499 32h-6c-23.333 0 -42.166 6.83301 -56.499 20.5s-21.5 31.5 -21.5 53.5s7.5 40.167 22.5 54.5z" />
    <glyph glyph-name="uni021B" unicode="&#x21b;" horiz-adv-x="499" 
d="M168.5 53.5c-39.667 35.667 -59.498 88.833 -59.498 159.5v144h-95v176h47c21.333 0 37.666 2 48.999 6s19.833 11.167 25.5 21.5s10.167 25.5 13.5 45.5l11 67h177v-140h122v-175h-122v-99c0 -25.333 6.16699 -43.833 18.5 -55.5s31.833 -17.5 58.5 -17.5h51v-186h-119
c-78.667 -0 -137.834 17.833 -177.501 53.5zM245.502 -83.501c15 14.333 34.1689 21.501 57.502 21.501c28 0 49.833 -10.167 65.5 -30.5s23.5 -45.833 23.5 -76.5c0 -26 -5.33301 -50.833 -16 -74.5s-26.334 -43 -47.001 -58s-45 -23.167 -73 -24.5v66
c15.333 3.33301 27.166 8.66602 35.499 15.999s13.5 18 15.5 32h-7c-22.667 0 -41.167 6.83301 -55.5 20.5s-21.5 31.5 -21.5 53.5s7.5 40.167 22.5 54.5z" />
    <glyph glyph-name="uni0237" unicode="&#x237;" horiz-adv-x="345" 
d="M-56 -58h50c44.667 0 67 23 67 69v522h228v-527c0 -172 -85.333 -258 -256 -258h-89v194z" />
    <glyph glyph-name="uni0259" unicode="&#x259;" horiz-adv-x="667" 
d="M495 512.5c46.667 -23.667 83.001 -56.8311 109.001 -99.498s39 -91.334 39 -146.001s-13.167 -103.334 -39.5 -146.001s-62.833 -75.834 -109.5 -99.501s-100.334 -35.5 -161.001 -35.5c-66 0 -122.833 13.5 -170.5 40.5s-83.5 65.5 -107.5 115.5s-34.333 108 -31 174
h398c-6 24 -17.333 42 -34 54s-36.667 18 -60 18c-16.667 0 -32.167 -2.83301 -46.5 -8.5s-25.833 -13.5 -34.5 -23.5h-214c22 60.667 59.5 107.834 112.5 141.501s116.167 50.5 189.5 50.5c60 0 113.333 -11.833 160 -35.5zM271.001 161.503
c15.333 -11.667 34.667 -17.5 58 -17.5c22.667 0 42 5.66699 58 17s27.333 28 34 50h-183c6.66699 -21.333 17.667 -37.833 33 -49.5z" />
    <glyph glyph-name="uni02BC" unicode="&#x2bc;" horiz-adv-x="283" 
d="M120 492.5c11.333 10.333 18.002 25.167 20.002 44.5h-8c-32.667 0 -59 9.5 -79 28.5s-30 43.833 -30 74.5s10.667 56 32 76s48.333 30 81 30c38.667 0 68.834 -14 90.501 -42s32.5 -63.667 32.5 -107c0 -36 -7.33301 -70.5 -22 -103.5s-36.334 -60 -65.001 -81
s-62.334 -32.167 -101.001 -33.5v92c21.333 4 37.666 11.167 48.999 21.5z" />
    <glyph glyph-name="circumflex" unicode="&#x2c6;" horiz-adv-x="513" 
d="M175 763h162l126 -166h-160l-47 58l-46 -58h-160z" />
    <glyph glyph-name="caron" unicode="&#x2c7;" horiz-adv-x="513" 
d="M338 596h-162l-126 166h160l47 -58l46 58h160z" />
    <glyph glyph-name="breve" unicode="&#x2d8;" horiz-adv-x="442" 
d="M94.5 629.5c-29.667 25 -44.498 61.5 -44.498 109.5v24h127v-15c0 -28 14.667 -42 44 -42c13.333 0 24 3.5 32 10.5s12 17.5 12 31.5v15h127v-24c0 -48 -14.833 -84.5 -44.5 -109.5s-71.834 -37.5 -126.501 -37.5s-96.834 12.5 -126.501 37.5z" />
    <glyph glyph-name="dotaccent" unicode="&#x2d9;" horiz-adv-x="100" 
d="M130 624.5c-20 19 -30 44.167 -30 75.5s10 56.5 30 75.5s46.333 28.5 79 28.5s59 -9.5 79 -28.5s30 -44.167 30 -75.5s-10 -56.5 -30 -75.5s-46.333 -28.5 -79 -28.5s-59 9.5 -79 28.5z" />
    <glyph glyph-name="ring" unicode="&#x2da;" horiz-adv-x="371" 
d="M87 612c-24.667 22 -37 51.333 -37 88s12.333 66 37 88s57.334 33 98.001 33c41.333 0 74.333 -11 99 -33s37 -51.333 37 -88s-12.333 -66 -37 -88s-57.667 -33 -99 -33c-40.667 0 -73.334 11 -98.001 33zM159.5 674c6.33301 -6.66699 14.833 -10 25.5 -10
s19.334 3.33301 26.001 10s10 15.334 10 26.001s-3.33301 19.334 -10 26.001s-15.334 10 -26.001 10s-19.167 -3.33301 -25.5 -10s-9.5 -15.334 -9.5 -26.001s3.16699 -19.334 9.5 -26.001z" />
    <glyph glyph-name="ogonek" unicode="&#x2db;" horiz-adv-x="307" 
d="M84 -183.5c-22.667 17 -34 40.499 -34 70.499c0 28.667 10.833 56.334 32.5 83.001s52.834 50.667 93.501 72l81 -42c-16.667 -10 -29.834 -21.333 -39.501 -34s-14.5 -25 -14.5 -37c0 -19.333 11.333 -29 34 -29h20v-109h-79c-40 0 -71.333 8.5 -94 25.5z" />
    <glyph glyph-name="tilde" unicode="&#x2dc;" horiz-adv-x="464" 
d="M265 603.5c-11.333 4.33301 -23.333 10.166 -36 17.499c-14 9.33301 -25.667 14 -35 14c-13.333 0 -20 -7.33301 -20 -22v-13h-124v31c0 38.667 9 68 27 88s44 30 78 30c18 0 32.667 -2.16699 44 -6.5s23.333 -10.166 36 -17.499c14 -9.33301 26 -14 36 -14
c12.667 0 19 7.33301 19 22v13h124v-31c0 -38 -9 -67.167 -27 -87.5s-44 -30.5 -78 -30.5c-18 0 -32.667 2.16699 -44 6.5z" />
    <glyph glyph-name="hungarumlaut" unicode="&#x2dd;" horiz-adv-x="490" 
d="M284 763h156l-88 -166h-134zM93 763h154l-66 -166h-131z" />
    <glyph glyph-name="gravecomb" unicode="&#x300;" 
d="M50 763h178l56 -166h-150z" />
    <glyph glyph-name="acutecomb" unicode="&#x301;" 
d="M106 763h178l-84 -166h-150z" />
    <glyph glyph-name="uni0302" unicode="&#x302;" 
d="M175 763h162l126 -166h-160l-47 58l-46 -58h-160z" />
    <glyph glyph-name="tildecomb" unicode="&#x303;" 
d="M265 603.5c-11.333 4.33301 -23.333 10.166 -36 17.499c-14 9.33301 -25.667 14 -35 14c-13.333 0 -20 -7.33301 -20 -22v-13h-124v31c0 38.667 9 68 27 88s44 30 78 30c18 0 32.667 -2.16699 44 -6.5s23.333 -10.166 36 -17.499c14 -9.33301 26 -14 36 -14
c12.667 0 19 7.33301 19 22v13h124v-31c0 -38 -9 -67.167 -27 -87.5s-44 -30.5 -78 -30.5c-18 0 -32.667 2.16699 -44 6.5z" />
    <glyph glyph-name="uni0304" unicode="&#x304;" 
d="M50 731h342v-121h-342v121z" />
    <glyph glyph-name="uni0306" unicode="&#x306;" 
d="M94.5 629.5c-29.667 25 -44.498 61.5 -44.498 109.5v24h127v-15c0 -28 14.667 -42 44 -42c13.333 0 24 3.5 32 10.5s12 17.5 12 31.5v15h127v-24c0 -48 -14.833 -84.5 -44.5 -109.5s-71.834 -37.5 -126.501 -37.5s-96.834 12.5 -126.501 37.5z" />
    <glyph glyph-name="uni0307" unicode="&#x307;" 
d="M80 624.5c-20 19 -30 44.167 -30 75.5s10 56.5 30 75.5s46.333 28.5 79 28.5s59 -9.5 79 -28.5s30 -44.167 30 -75.5s-10 -56.5 -30 -75.5s-46.333 -28.5 -79 -28.5s-59 9.5 -79 28.5z" />
    <glyph glyph-name="uni0308" unicode="&#x308;" 
d="M312 622.5c-17.333 17 -26 39.167 -26 66.5s8.66699 49.5 26 66.5s39.666 25.5 66.999 25.5s49.666 -8.5 66.999 -25.5s26 -39.167 26 -66.5s-8.66699 -49.5 -26 -66.5s-39.666 -25.5 -66.999 -25.5s-49.666 8.5 -66.999 25.5zM76 755.5
c17.333 17 39.666 25.5 66.999 25.5s49.5 -8.5 66.5 -25.5s25.5 -39.167 25.5 -66.5s-8.5 -49.5 -25.5 -66.5s-39.167 -25.5 -66.5 -25.5s-49.666 8.5 -66.999 25.5s-26 39.167 -26 66.5s8.66699 49.5 26 66.5z" />
    <glyph glyph-name="uni030A" unicode="&#x30a;" 
d="M87 612c-24.667 22 -37 51.333 -37 88s12.333 66 37 88s57.334 33 98.001 33c41.333 0 74.333 -11 99 -33s37 -51.333 37 -88s-12.333 -66 -37 -88s-57.667 -33 -99 -33c-40.667 0 -73.334 11 -98.001 33zM159.5 674c6.33301 -6.66699 14.833 -10 25.5 -10
s19.334 3.33301 26.001 10s10 15.334 10 26.001s-3.33301 19.334 -10 26.001s-15.334 10 -26.001 10s-19.167 -3.33301 -25.5 -10s-9.5 -15.334 -9.5 -26.001s3.16699 -19.334 9.5 -26.001z" />
    <glyph glyph-name="uni030B" unicode="&#x30b;" 
d="M284 763h156l-88 -166h-134zM93 763h154l-66 -166h-131z" />
    <glyph glyph-name="uni030C" unicode="&#x30c;" 
d="M338 596h-162l-126 166h160l47 -58l46 58h160z" />
    <glyph glyph-name="uni0312" unicode="&#x312;" 
d="M150.5 777c-8.33301 -7.33301 -13.502 -18.001 -15.502 -32.001h7c22.667 0 41.167 -6.83301 55.5 -20.5s21.5 -31.5 21.5 -53.5s-7.5 -40.167 -22.5 -54.5s-34.167 -21.5 -57.5 -21.5c-28 0 -49.833 10.167 -65.5 30.5s-23.5 45.833 -23.5 76.5
c0 26 5.33301 50.833 16 74.5s26.334 43 47.001 58s45 23.167 73 24.5v-66c-15.333 -3.33301 -27.166 -8.66602 -35.499 -15.999z" />
    <glyph glyph-name="uni0326" unicode="&#x326;" 
d="M118.5 -244c8.33301 7.33301 13.502 18.001 15.502 32.001h-7c-22.667 0 -41.167 6.83301 -55.5 20.5s-21.5 31.5 -21.5 53.5s7.5 40.167 22.5 54.5s34.167 21.5 57.5 21.5c28 0 49.833 -10.167 65.5 -30.5s23.5 -45.833 23.5 -76.5c0 -26 -5.33301 -50.833 -16 -74.5
s-26.334 -43 -47.001 -58s-45 -23.167 -73 -24.5v66c15.333 3.33301 27.166 8.66602 35.499 15.999z" />
    <glyph glyph-name="uni0327" unicode="&#x327;" 
d="M50 -161l88 0.000976562c18 0 27 6.66699 27 20c0 14 -9 21 -27 21h-46l-26 35l34 109h109l-20 -62c32 -4.66699 56.667 -17.334 74 -38.001s26 -46 26 -76c0 -34.667 -11.167 -62.667 -33.5 -84s-53.833 -32 -94.5 -32h-111v107z" />
    <glyph glyph-name="uni0328" unicode="&#x328;" 
d="M84 -183.5c-22.667 17 -34 40.499 -34 70.499c0 28.667 10.833 56.334 32.5 83.001s52.834 50.667 93.501 72l81 -42c-16.667 -10 -29.834 -21.333 -39.501 -34s-14.5 -25 -14.5 -37c0 -19.333 11.333 -29 34 -29h20v-109h-79c-40 0 -71.333 8.5 -94 25.5z" />
    <glyph glyph-name="uni0394" unicode="&#x394;" horiz-adv-x="796" 
d="M275 700h246l272 -700h-790zM481 184l-45 141l-38 118l-38 -118l-46 -141h167z" />
    <glyph glyph-name="uni03A9" unicode="&#x3a9;" horiz-adv-x="881" 
d="M30 184l85 -0.000976562l1 2c-42.667 58.667 -64 125 -64 199c0 66 16 123.833 48 173.5s77.333 88.167 136 115.5s126.667 41 204 41s145.333 -13.667 204 -41s104.167 -66 136.5 -116s48.5 -107.667 48.5 -173c0 -73.333 -21.667 -139.666 -65 -198.999l1 -2h86v-184
h-366v150c36.667 25.333 63.5 52.833 80.5 82.5s25.5 63.167 25.5 100.5c0 50.667 -13.5 90.667 -40.5 120s-63.833 44 -110.5 44c-46 0 -82.667 -14.667 -110 -44s-41 -69.333 -41 -120c0 -37.333 8.66699 -70.833 26 -100.5s44.333 -57.167 81 -82.5v-150h-366v184z" />
    <glyph glyph-name="uni03BC" unicode="&#x3bc;" horiz-adv-x="697" 
d="M57 533h227.999v-290c0 -24 5.5 -42.333 16.5 -55s26.5 -19 46.5 -19s35.667 6.33301 47 19s17 31 17 55v290h228v-533h-163l-15 39c-12.667 -16.667 -28.667 -29.167 -48 -37.5s-40 -12.5 -62 -12.5c-29.333 0 -55.666 6.33301 -78.999 19v-208h-216v733z" />
    <glyph glyph-name="pi" unicode="&#x3c0;" horiz-adv-x="692" 
d="M57 533h578v-533h-228v332h-122v-332h-228v533z" />
    <glyph glyph-name="uni0400" unicode="&#x400;" horiz-adv-x="616" 
d="M63 700h504v-179h-269v-81h243v-174h-243v-84h279v-182h-514v700zM330 919l56 -154h-150l-84 154h178z" />
    <glyph glyph-name="uni0401" unicode="&#x401;" horiz-adv-x="616" 
d="M63 700h504v-179h-269v-81h243v-174h-243v-84h279v-182h-514v700zM123.5 920.5c17.667 17.667 40.5 26.5 68.5 26.5s50.833 -8.83301 68.5 -26.5s26.5 -40.5 26.5 -68.5s-8.83301 -50.667 -26.5 -68s-40.5 -26 -68.5 -26s-50.833 8.66699 -68.5 26s-26.5 40 -26.5 68
s8.83301 50.833 26.5 68.5zM365.5 921c17.667 17.333 40.167 26 67.5 26c28 0 50.833 -8.66699 68.5 -26s26.5 -40.333 26.5 -69c0 -28 -8.83301 -50.667 -26.5 -68s-40.5 -26 -68.5 -26s-50.667 8.66699 -68 26s-26 40 -26 68c0 28.667 8.83301 51.667 26.5 69z" />
    <glyph glyph-name="uni0402" unicode="&#x402;" horiz-adv-x="877" 
d="M507 -31h32.001c21.333 0 37 4 47 12s15 22 15 42v90c0 35.333 -6.5 59.5 -19.5 72.5s-37.167 19.5 -72.5 19.5h-38v-205h-241v481h-203v219h696v-212h-252v-83h96c89.333 0 157.166 -21.667 203.499 -65s69.5 -107 69.5 -191v-131c0 -78 -20.333 -135.833 -61 -173.5
s-104.667 -56.5 -192 -56.5h-80v181z" />
    <glyph glyph-name="uni0403" unicode="&#x403;" horiz-adv-x="601" 
d="M63 700h513v-219h-271v-481h-242v700zM295 919h178l-84 -154h-150z" />
    <glyph glyph-name="uni0404" unicode="&#x404;" horiz-adv-x="797" 
d="M204 31c-56 30.667 -99.501 73.6689 -130.501 129.002s-46.5 118.666 -46.5 189.999s15.5 134.666 46.5 189.999s74.5 98.333 130.5 129s120 46 192 46c64 0 122.333 -12.333 175 -37s96 -59.5 130 -104.5s56.333 -97.5 67 -157.5h-215
c-10.667 30.667 -29.167 54.667 -55.5 72s-57.5 26 -93.5 26c-33.333 0 -62.166 -7.66699 -86.499 -23s-42.166 -37 -53.499 -65h220v-151h-220c11.333 -28 29.166 -49.833 53.499 -65.5s53.166 -23.5 86.499 -23.5c36 0 67.333 8.83301 94 26.5s45.667 42.834 57 75.501
h217c-9.33301 -60.667 -31.166 -113.834 -65.499 -159.501s-78 -81 -131 -106s-112.5 -37.5 -178.5 -37.5c-72.667 0 -137 15.333 -193 46z" />
    <glyph glyph-name="uni0405" unicode="&#x405;" horiz-adv-x="654" 
d="M106.5 49.5c-53 43 -79.4971 103.166 -79.4971 180.499h231c0 -22.667 6 -40 18 -52s29.333 -18 52 -18c19.333 0 34.333 3.83301 45 11.5s16 18.5 16 32.5c0 17.333 -9.16699 31.5 -27.5 42.5s-47.5 19.833 -87.5 26.5c-82.667 14 -143.667 39 -183 75
s-59 84.667 -59 146c0 68.667 25.167 122.667 75.5 162s119.5 59 207.5 59c60 0 112.167 -9.66699 156.5 -29s78.666 -47.166 102.999 -83.499s36.833 -78.833 37.5 -127.5h-226c0 22 -5.83301 38.833 -17.5 50.5s-28.167 17.5 -49.5 17.5c-18.667 0 -33.334 -4 -44.001 -12
s-16 -18.667 -16 -32c0 -16 8.5 -29 25.5 -39s46.5 -19 88.5 -27c87.333 -16.667 151.166 -42.667 191.499 -78s60.5 -83 60.5 -143c0 -71.333 -26 -127 -78 -167s-124.667 -60 -218 -60c-95.333 0 -169.5 21.5 -222.5 64.5z" />
    <glyph glyph-name="uni0406" unicode="&#x406;" horiz-adv-x="367" 
d="M63 700h242v-700h-242v700z" />
    <glyph glyph-name="uni0407" unicode="&#x407;" horiz-adv-x="367" 
d="M63 700h242v-700h-242v700zM-5.5 920.5c17.667 17.667 40.5 26.5 68.5 26.5s50.833 -8.83301 68.5 -26.5s26.5 -40.5 26.5 -68.5s-8.83301 -50.667 -26.5 -68s-40.5 -26 -68.5 -26s-50.833 8.66699 -68.5 26s-26.5 40 -26.5 68s8.83301 50.833 26.5 68.5zM236.5 921
c17.667 17.333 40.5 26 68.5 26s50.667 -8.66699 68 -26s26 -40.333 26 -69c0 -28 -8.66699 -50.667 -26 -68s-40 -26 -68 -26s-50.833 8.66699 -68.5 26s-26.5 40 -26.5 68c0 28.667 8.83301 51.667 26.5 69z" />
    <glyph glyph-name="uni0408" unicode="&#x408;" horiz-adv-x="523" 
d="M29 220h103c30.667 0 53 7 67 21s21 37 21 69v390h242v-423c0 -89.333 -25.667 -157.833 -77 -205.5s-124.333 -71.5 -219 -71.5h-137v220z" />
    <glyph glyph-name="uni0409" unicode="&#x409;" horiz-adv-x="1134" 
d="M18 215l46.002 -0.00195312c20 0 34.667 4.83301 44 14.5s14.666 25.834 15.999 48.501l34 422h576v-191h108c52.667 0 99.667 -10.667 141 -32s73.5 -51.333 96.5 -90s34.5 -83 34.5 -133s-11.5 -94.167 -34.5 -132.5s-55.167 -68.166 -96.5 -89.499
s-88.333 -32 -141 -32h-348v480h-117l-17 -260c-4.66699 -76 -26.334 -131.667 -65.001 -167s-96.667 -53 -174 -53h-103v215zM797.002 188.998c22.667 0 41 5.66797 55 17.001s21 27.666 21 48.999s-7 37.5 -21 48.5s-32.333 16.5 -55 16.5h-68v-131h68z" />
    <glyph glyph-name="uni040A" unicode="&#x40a;" horiz-adv-x="1108" 
d="M468 255l-163 0.000976562v-255h-242v700h242v-225h163v225h242v-194h111c52.667 0 99.167 -10.833 139.5 -32.5s71.666 -51.834 93.999 -90.501s33.5 -82.667 33.5 -132s-11.667 -93 -35 -131s-55.166 -67.5 -95.499 -88.5s-85.833 -31.5 -136.5 -31.5h-353v255z
M767 189.001c24.667 0 44.334 5.5 59.001 16.5s22 27.5 22 49.5c0 21.333 -7.33301 37.5 -22 48.5s-34.334 16.5 -59.001 16.5h-63v-131h63z" />
    <glyph glyph-name="uni040B" unicode="&#x40b;" horiz-adv-x="877" 
d="M581.5 188.5c-13 13 -37.166 19.5 -72.499 19.5h-38v-208h-241v481h-203v219h696v-212h-252v-83h96c89.333 0 157.166 -21.667 203.499 -65s69.5 -107 69.5 -191v-149h-239v116c0 35.333 -6.5 59.5 -19.5 72.5z" />
    <glyph glyph-name="uni040C" unicode="&#x40c;" horiz-adv-x="781" 
d="M63 700l242.001 -0.000976562v-235h21c30 0 51.167 4.33301 63.5 13s22.833 26 31.5 52l57 170h260l-101 -270c-14.667 -37.333 -30.334 -67.666 -47.001 -90.999l172 -339h-276l-116 249h-65v-249h-242v700zM366.001 918.999h178l-84 -154h-150z" />
    <glyph glyph-name="uni040D" unicode="&#x40d;" horiz-adv-x="784" 
d="M63 700h238v-210l-2 -95h3l222 305h198v-700h-238v213l2 94l-4 1l-223 -308h-196v700zM413 919l55 -154h-150l-83 154h178z" />
    <glyph glyph-name="uni040E" unicode="&#x40e;" horiz-adv-x="749" 
d="M117 206l73.999 -0.000976562c27.333 0 48 4.66699 62 14l-244 480h270l68 -163l38 -100h3l35 100l63 163h260l-245 -535c-19.333 -42.667 -39.666 -75.667 -60.999 -99s-46.5 -40.166 -75.5 -50.499s-65.5 -15.5 -109.5 -15.5h-138v206zM219.999 918.999h125v-9
c0 -11.333 3.33301 -20.166 10 -26.499s15.667 -9.5 27 -9.5c12 0 21.167 3.16699 27.5 9.5s9.5 15.166 9.5 26.499v9h126v-16c0 -46 -13.5 -81.333 -40.5 -106s-67.833 -37 -122.5 -37c-52 0 -92 12.5 -120 37.5s-42 60.167 -42 105.5v16z" />
    <glyph glyph-name="uni040F" unicode="&#x40f;" horiz-adv-x="774" 
d="M63 700h242v-480h164v480h242v-700h-207v-138h-234v138h-207v700z" />
    <glyph glyph-name="uni0410" unicode="&#x410;" horiz-adv-x="779" 
d="M263 700h252l261 -700h-254l-31 87h-205l-31 -87h-252zM453 247l-62 192h-4l-61 -192h127z" />
    <glyph glyph-name="uni0411" unicode="&#x411;" horiz-adv-x="717" 
d="M63 700h574v-182h-335v-73h151c74.667 0 133 -20.167 175 -60.5s63 -94.166 63 -161.499c0 -44 -9.33301 -82.833 -28 -116.5s-46 -59.834 -82 -78.501s-78.667 -28 -128 -28h-390v700zM383 170c22 0 38.667 4.66895 50 14.002s17 22.666 17 39.999
s-5.66699 30.666 -17 39.999s-28 14 -50 14h-83v-108h83z" />
    <glyph glyph-name="uni0412" unicode="&#x412;" horiz-adv-x="723" 
d="M63 700h383c72 0 128.833 -16.667 170.5 -50s62.5 -79 62.5 -137c0 -34.667 -7.5 -65.667 -22.5 -93s-36.5 -49 -64.5 -65c32.667 -14 58.667 -35.5 78 -64.5s29 -62.167 29 -99.5s-9.83301 -70.5 -29.5 -99.5s-47.5 -51.5 -83.5 -67.5s-77 -24 -123 -24h-400v700z
M394 165c20 0 35.5 4.83301 46.5 14.5s16.5 23.167 16.5 40.5c0 18 -5.5 31.833 -16.5 41.5s-26.5 14.5 -46.5 14.5h-98v-111h98zM381 429c19.333 0 34.333 4.66895 45 14.002s16 22.666 16 39.999s-5.33301 30.666 -16 39.999s-25.667 14 -45 14h-85v-108h85z" />
    <glyph glyph-name="uni0413" unicode="&#x413;" horiz-adv-x="601" 
d="M63 700h513v-219h-271v-481h-242v700z" />
    <glyph glyph-name="uni0414" unicode="&#x414;" horiz-adv-x="864" 
d="M22 223l79 0.000976562c12 12 21.333 26.667 28 44s11 38.666 13 63.999l29 369h569v-477h100v-361h-233v138h-352v-138h-233v361zM501 211.001v273h-109l-14 -174c-3.33301 -40.667 -12 -73.667 -26 -99h149z" />
    <glyph glyph-name="uni0415" unicode="&#x415;" horiz-adv-x="616" 
d="M63 700h504v-179h-269v-81h243v-174h-243v-84h279v-182h-514v700z" />
    <glyph glyph-name="uni0416" unicode="&#x416;" horiz-adv-x="1178" 
d="M191 339c-16.667 23.333 -32.334 53.666 -47.001 90.999l-101 270h260l56 -170c8.66699 -26 19.334 -43.333 32.001 -52s33.667 -13 63 -13h15v235h240v-235h14c29.333 0 50.333 4.33301 63 13s23.334 26 32.001 52l57 170h260l-101 -270
c-14.667 -37.333 -30.334 -67.666 -47.001 -90.999l172 -339h-277l-115 249h-58v-249h-240v249h-58l-116 -249h-277z" />
    <glyph glyph-name="uni0417" unicode="&#x417;" horiz-adv-x="653" 
d="M106 45.5c-51.333 40.333 -79.665 99.4961 -84.998 177.496h226c0.666992 -20.667 7.33398 -36.834 20.001 -48.501s30.667 -17.5 54 -17.5c21.333 0 38.833 4.83301 52.5 14.5s20.5 23.5 20.5 41.5c0 17.333 -6.16699 31 -18.5 41s-29.166 15 -50.499 15h-106v167h96
c20.667 0 37 4.83301 49 14.5s18 22.834 18 39.501s-6 29.834 -18 39.501s-27.333 14.5 -46 14.5c-20.667 0 -36.834 -5.66699 -48.501 -17s-17.834 -26.666 -18.501 -45.999h-223c4.66699 72.667 33.167 129.834 85.5 171.501s123.166 62.5 212.499 62.5
c58 0 108.333 -8.33301 151 -25s75.5 -40.667 98.5 -72s34.5 -68 34.5 -110c0 -32 -7.33301 -61.167 -22 -87.5s-35.667 -47.833 -63 -64.5c32 -14 57.167 -35.333 75.5 -64s27.5 -62 27.5 -100c0 -65.333 -26.333 -116.166 -79 -152.499s-126.334 -54.5 -221.001 -54.5
c-96.667 0 -170.667 20.167 -222 60.5z" />
    <glyph glyph-name="uni0418" unicode="&#x418;" horiz-adv-x="784" 
d="M63 700h238v-210l-2 -95h3l222 305h198v-700h-238v213l2 94l-4 1l-223 -308h-196v700z" />
    <glyph glyph-name="uni0419" unicode="&#x419;" horiz-adv-x="784" 
d="M63 700h238v-210l-2 -95h3l222 305h198v-700h-238v213l2 94l-4 1l-223 -308h-196v700zM233 919h125v-9c0 -11.333 3.33301 -20.166 10 -26.499s15.667 -9.5 27 -9.5c12 0 21.167 3.16699 27.5 9.5s9.5 15.166 9.5 26.499v9h126v-16c0 -46 -13.5 -81.333 -40.5 -106
s-67.833 -37 -122.5 -37c-52 0 -92 12.5 -120 37.5s-42 60.167 -42 105.5v16z" />
    <glyph glyph-name="uni041A" unicode="&#x41a;" horiz-adv-x="781" 
d="M63 700l242.001 -0.000976562v-235h21c30 0 51.167 4.33301 63.5 13s22.833 26 31.5 52l57 170h260l-101 -270c-14.667 -37.333 -30.334 -67.666 -47.001 -90.999l172 -339h-276l-116 249h-65v-249h-242v700z" />
    <glyph glyph-name="uni041B" unicode="&#x41b;" horiz-adv-x="801" 
d="M18 215l45.999 -0.000976562c20 0 34.667 4.83301 44 14.5s14.666 25.834 15.999 48.501l34 422h580v-700h-241v480h-119l-18 -260c-5.33301 -76 -27.166 -131.667 -65.499 -167s-96.166 -53 -173.499 -53h-103v215z" />
    <glyph glyph-name="uni041C" unicode="&#x41c;" horiz-adv-x="954" 
d="M63 700h196l218 -294l219 294h195v-700h-236v161l2 144h-3l-110 -151h-134l-110 152l-3 -1l2 -144v-161h-236v700z" />
    <glyph glyph-name="uni041D" unicode="&#x41d;" horiz-adv-x="774" 
d="M469 246h-164v-246h-242v700h242v-234h164v234h242v-700h-242v246z" />
    <glyph glyph-name="uni041E" unicode="&#x41e;" horiz-adv-x="828" 
d="M213 31.5c-58.667 31 -104.334 74.167 -137.001 129.5s-49 118.333 -49 189s16.333 133.667 49 189s78.334 98.5 137.001 129.5s125.667 46.5 201 46.5c76 0 143.333 -15.5 202 -46.5s104.334 -74.167 137.001 -129.5s49 -118.333 49 -189s-16.333 -133.667 -49 -189
s-78.334 -98.5 -137.001 -129.5s-126 -46.5 -202 -46.5c-75.333 0 -142.333 15.5 -201 46.5zM311 245.5c26.667 -27 61 -40.5 103 -40.5s76.5 13.5 103.5 40.5s40.5 61.833 40.5 104.5s-13.5 77.5 -40.5 104.5s-61.5 40.5 -103.5 40.5s-76.333 -13.5 -103 -40.5
s-40 -61.833 -40 -104.5s13.333 -77.5 40 -104.5z" />
    <glyph glyph-name="uni041F" unicode="&#x41f;" horiz-adv-x="774" 
d="M63 700h648v-700h-242v480h-164v-480h-242v700z" />
    <glyph glyph-name="uni0420" unicode="&#x420;" horiz-adv-x="707" 
d="M63 700l325 0.000976562c60.667 0 113.5 -11 158.5 -33s79.667 -53.333 104 -94s36.5 -88.334 36.5 -143.001s-12.167 -102.167 -36.5 -142.5s-58.833 -71.5 -103.5 -93.5s-97 -33 -157 -33h-85v-161h-242v700zM356 350.001c28.667 0 50.667 6.83105 66 20.498
s23 32.834 23 57.501s-7.66699 43.834 -23 57.501s-37.333 20.5 -66 20.5h-56v-156h56z" />
    <glyph glyph-name="uni0421" unicode="&#x421;" horiz-adv-x="800" 
d="M204 31c-56 30.667 -99.5 73.6689 -130.5 129.002s-46.5 118.666 -46.5 189.999s15.5 134.666 46.5 189.999s74.5 98.333 130.5 129s120 46 192 46c66.667 0 126.5 -12.333 179.5 -37s96.333 -60.167 130 -106.5s55.834 -100.833 66.501 -163.5h-237
c-9.33301 26.667 -25.5 47.834 -48.5 63.501s-49.5 23.5 -79.5 23.5c-40.667 0 -73.5 -13.333 -98.5 -40s-37.5 -61.667 -37.5 -105c0 -42.667 12.5 -77.5 37.5 -104.5s57.167 -40.5 96.5 -40.5c31.333 0 58.666 8 81.999 24s40 38 50 66h238
c-8 -62 -29.167 -116.333 -63.5 -163s-78.5 -82.834 -132.5 -108.501s-114.333 -38.5 -181 -38.5c-73.333 0 -138 15.333 -194 46z" />
    <glyph glyph-name="uni0422" unicode="&#x422;" horiz-adv-x="703" 
d="M230 481h-203v219h648v-219h-203v-481h-242v481z" />
    <glyph glyph-name="uni0423" unicode="&#x423;" horiz-adv-x="749" 
d="M117 206l73.999 -0.000976562c27.333 0 48 4.66699 62 14l-244 480h270l68 -163l38 -100h3l35 100l63 163h260l-245 -535c-19.333 -42.667 -39.666 -75.667 -60.999 -99s-46.5 -40.166 -75.5 -50.499s-65.5 -15.5 -109.5 -15.5h-138v206z" />
    <glyph glyph-name="uni0424" unicode="&#x424;" horiz-adv-x="951" 
d="M363 29c-67.333 2 -126.667 16.667 -178 44s-90.833 64.833 -118.5 112.5s-41.5 102.5 -41.5 164.5c0 61.333 14 116 42 164s67.5 85.833 118.5 113.5s110.167 42.5 177.5 44.5v85h225v-85c67.333 -2 126.5 -16.833 177.5 -44.5s90.5 -65.5 118.5 -113.5
s42 -102.667 42 -164c0 -62 -14 -116.833 -42 -164.5s-67.5 -85.167 -118.5 -112.5s-110.167 -42 -177.5 -44v-89h-225v89zM290.499 272c19.667 -19.333 45.834 -30.3311 78.501 -32.998v223c-32.667 -2.66699 -58.834 -13.834 -78.501 -33.501s-29.5 -45.834 -29.5 -78.501
s9.83301 -58.667 29.5 -78zM659.999 272.002c19.333 19.333 29 45.3311 29 77.998s-9.66699 58.834 -29 78.501s-45.333 30.834 -78 33.501v-223c32.667 2.66699 58.667 13.667 78 33z" />
    <glyph glyph-name="uni0425" unicode="&#x425;" horiz-adv-x="801" 
d="M237 357l-207 343h266l48 -89l55 -97h3l54 97l49 89h265l-207 -342l221 -358h-278l-56 101l-48 88h-3l-105 -189h-276z" />
    <glyph glyph-name="uni0426" unicode="&#x426;" horiz-adv-x="831" 
d="M574 0h-511v700h242v-480h164v480h242v-477h97v-361h-234v138z" />
    <glyph glyph-name="uni0427" unicode="&#x427;" horiz-adv-x="736" 
d="M113.5 273c-51 48.667 -76.501 115.333 -76.501 200v227h242v-184c0 -36 7.33301 -61.667 22 -77s40.334 -23 77.001 -23h55v284h240v-700h-242v200h-100c-94 0 -166.5 24.333 -217.5 73z" />
    <glyph glyph-name="uni0428" unicode="&#x428;" horiz-adv-x="1170" 
d="M63 700h242v-480h161v480h238v-480h162v480h242v-700h-1045v700z" />
    <glyph glyph-name="uni0429" unicode="&#x429;" horiz-adv-x="1232" 
d="M975 0h-912v700h242v-480h161v480h238v-480h162v480h242v-477h100v-361h-233v138z" />
    <glyph glyph-name="uni042A" unicode="&#x42a;" horiz-adv-x="828" 
d="M183 482l-165 -0.00195312v218h407v-191h113c52.667 0 99.5 -10.667 140.5 -32s72.833 -51.166 95.5 -89.499s34 -82.833 34 -133.5c0 -50 -11.333 -94.167 -34 -132.5s-54.5 -68.166 -95.5 -89.499s-87.833 -32 -140.5 -32h-355v482zM494 189.998
c23.333 0 41.333 5.5 54 16.5s19 27.5 19 49.5c0 42 -24.333 63 -73 63h-74v-129h74z" />
    <glyph glyph-name="uni042B" unicode="&#x42b;" horiz-adv-x="1075" 
d="M63 700l242 -0.00195312v-191h112c52.667 0 99.5 -10.667 140.5 -32s72.833 -51.166 95.5 -89.499s34 -82.833 34 -133.5c0 -50 -11.333 -94.167 -34 -132.5s-54.5 -68.166 -95.5 -89.499s-87.833 -32 -140.5 -32h-354v700zM373 189.998c24 0 42.333 5.5 55 16.5
s19 27.5 19 49.5c0 42 -24.667 63 -74 63h-74v-129h74zM770 699.998h242v-700h-242v700z" />
    <glyph glyph-name="uni042C" unicode="&#x42c;" horiz-adv-x="707" 
d="M63 700l242 -0.00195312v-191h112c52.667 0 99.5 -10.667 140.5 -32s72.833 -51.166 95.5 -89.499s34 -82.833 34 -133.5c0 -50 -11.333 -94.167 -34 -132.5s-54.5 -68.166 -95.5 -89.499s-87.833 -32 -140.5 -32h-354v700zM373 189.998c24 0 42.333 5.5 55 16.5
s19 27.5 19 49.5c0 42 -24.667 63 -74 63h-74v-129h74z" />
    <glyph glyph-name="uni042D" unicode="&#x42d;" horiz-adv-x="797" 
d="M221.5 22.5c-53 25 -96.6689 60.3311 -131.002 105.998s-56.166 98.834 -65.499 159.501h217c11.333 -32.667 30.333 -57.834 57 -75.501s58 -26.5 94 -26.5c34 0 63.167 7.83301 87.5 23.5s42.166 37.5 53.499 65.5h-221v151h220c-11.333 28 -29.166 49.667 -53.499 65
s-53.166 23 -86.499 23c-36 0 -67.167 -8.66699 -93.5 -26s-44.833 -41.333 -55.5 -72h-215c10.667 60 33 112.5 67 157.5s77.333 79.833 130 104.5s111 37 175 37c72 0 136 -15.333 192 -46s99.5 -73.667 130.5 -129s46.5 -118.666 46.5 -189.999
s-15.5 -134.666 -46.5 -189.999s-74.5 -98.333 -130.5 -129s-120.333 -46 -193 -46c-66 0 -125.5 12.5 -178.5 37.5z" />
    <glyph glyph-name="uni042E" unicode="&#x42e;" horiz-adv-x="1142" 
d="M567.5 17c-50.333 21.333 -92.833 51.334 -127.5 90.001s-59 84 -73 136h-63v-243h-241v700h241v-237h65c22.667 77.333 66.5 138.666 131.5 183.999s142.833 68 233.5 68c74 0 139.833 -15.5 197.5 -46.5s102.667 -74.167 135 -129.5s48.5 -118.333 48.5 -189
s-16.167 -133.667 -48.5 -189s-77.333 -98.5 -135 -129.5s-123.5 -46.5 -197.5 -46.5c-60.667 0 -116.167 10.667 -166.5 32zM627 245.501c26.667 -27 60.667 -40.5 102 -40.5c42 0 76.167 13.5 102.5 40.5s39.5 61.833 39.5 104.5s-13.167 77.5 -39.5 104.5
s-60.5 40.5 -102.5 40.5c-41.333 0 -75.333 -13.5 -102 -40.5s-40 -61.833 -40 -104.5s13.333 -77.5 40 -104.5z" />
    <glyph glyph-name="uni042F" unicode="&#x42f;" horiz-adv-x="734" 
d="M431 185h-43l-88 -185h-269l120 227c-36 21.333 -63.667 50.5 -83 87.5s-29 79.5 -29 127.5c0 52.667 11.5 98.5 34.5 137.5s56 68.833 99 89.5s93.833 31 152.5 31h346v-700h-240v185zM302.5 383.5c14.333 -13 34.833 -19.5 61.5 -19.5h71v150h-71
c-26.667 0 -47.167 -6.5 -61.5 -19.5s-21.5 -31.5 -21.5 -55.5s7.16699 -42.5 21.5 -55.5z" />
    <glyph glyph-name="uni0430" unicode="&#x430;" horiz-adv-x="654" 
d="M88 32c-36 30 -53.999 70.667 -53.999 122c0 49.333 16.333 88.833 49 118.5s76.667 44.5 132 44.5h170v32c0 13.333 -5.5 24.5 -16.5 33.5s-24.833 13.5 -41.5 13.5c-15.333 0 -28.333 -4 -39 -12s-16.667 -18.667 -18 -32h-210c8 64 34.833 112.5 80.5 145.5
s108.167 49.5 187.5 49.5c90 0 159 -21 207 -63s72 -103 72 -183v-301h-163l-23 58c-22.667 -23.333 -49.834 -41 -81.501 -53s-66.5 -18 -104.5 -18c-62 0 -111 15 -147 45zM267.001 139.5c10 -7.66699 23.667 -11.498 41 -11.498c24 0 43.333 7 58 21s22 32.667 22 56v7
h-80c-17.333 0 -31 -3.83301 -41 -11.5s-15 -17.834 -15 -30.501s5 -22.834 15 -30.501z" />
    <glyph glyph-name="uni0431" unicode="&#x431;" horiz-adv-x="696" 
d="M192.5 24c-47.667 26 -84.5 62.998 -110.5 110.998s-39 104.333 -39 169v56c0 116.667 22.833 206.834 68.5 270.501s118.167 104.834 217.5 123.501l301 57v-198l-263 -47c-37.333 -7.33301 -65.5 -19.833 -84.5 -37.5s-30.167 -42.5 -33.5 -74.5
c20.667 21.333 45.667 37.666 75 48.999s61 17 95 17c48 0 91.167 -11 129.5 -33s68.333 -52.333 90 -91s32.5 -82.334 32.5 -131.001c0 -55.333 -13 -104.166 -39 -146.499s-62.5 -75.166 -109.5 -98.499s-101.167 -35 -162.5 -35c-64 0 -119.833 13 -167.5 39z
M289.5 195.998c17.667 -17.333 40.167 -26 67.5 -26c28 0 50.667 8.66699 68 26s26 39.666 26 66.999c0 28 -8.66699 50.667 -26 68s-40 26 -68 26c-27.333 0 -49.833 -8.66699 -67.5 -26s-26.5 -40 -26.5 -68c0 -27.333 8.83301 -49.666 26.5 -66.999z" />
    <glyph glyph-name="uni0432" unicode="&#x432;" horiz-adv-x="620" 
d="M57 533l359 0.000976562c49.333 0 89.5 -13.333 120.5 -40s46.5 -60.667 46.5 -102c0 -25.333 -6.16699 -48.333 -18.5 -69s-30.5 -37.334 -54.5 -50.001c28.667 -12 50.5 -29.167 65.5 -51.5s22.5 -47.5 22.5 -75.5c0 -42 -16.167 -76.667 -48.5 -104
s-75.5 -41 -129.5 -41h-363v533zM335 131.001c14 0 25 3.33301 33 10s12 16 12 28s-4 21.667 -12 29s-19 11 -33 11h-66v-78h66zM327 329.001c13.333 0 24.166 3.5 32.499 10.5s12.5 16.167 12.5 27.5s-4.16699 20.333 -12.5 27s-19.166 10 -32.499 10h-58v-75h58z" />
    </font>
</defs>
</svg>
